/* XPM */
static char *_df8c29b06e4451b99226e4dab13e4d6tmVx7fIGWOnGnHeU[] = {
/* columns rows colors chars-per-pixel */
"64 64 159 2 ",
"   c #34363A",
".  c #35383E",
"X  c #3C3C3E",
"o  c #373D47",
"O  c #3A3E46",
"+  c #3A3F49",
"@  c #3F4145",
"#  c #3F434B",
"$  c #444446",
"%  c #40444B",
"&  c #474A4F",
"*  c #4B4B4C",
"=  c #4F4F50",
"-  c #4F5055",
";  c #4A5059",
":  c #535354",
">  c #54565B",
",  c #57585C",
"<  c #595A5D",
"1  c #575A62",
"2  c #5B5D62",
"3  c #5E6269",
"4  c #636364",
"5  c #64666B",
"6  c #67686B",
"7  c #6B6B6C",
"8  c #666A73",
"9  c #6B6D72",
"0  c #686E78",
"q  c #6E7075",
"w  c #6D7079",
"e  c #747475",
"r  c #7B7C7C",
"t  c #777A80",
"y  c #7D7E82",
"u  c #7A7F89",
"i  c #7E8083",
"p  c #7E828B",
"a  c #838485",
"s  c #858689",
"d  c #87888B",
"f  c #8B8B8C",
"g  c #8E8F91",
"h  c #8D9096",
"j  c #8E939A",
"k  c #939495",
"l  c #95969A",
"z  c #97989A",
"x  c #9B9B9C",
"c  c #9D9EA1",
"v  c #9FA0A2",
"b  c #9FA3AA",
"n  c #A3A4A4",
"m  c #A5A6A9",
"M  c #A6A8AA",
"N  c #ABABAC",
"B  c #ADAEB1",
"V  c #AFB0B1",
"C  c #B3B4B4",
"Z  c #B6B7B8",
"A  c #B7B8B9",
"S  c #BCBCBC",
"D  c #BEBFC1",
"F  c #BFC0C1",
"G  c #C3C4C4",
"H  c #C7C7C8",
"J  c #C7C8C9",
"K  c #CBCBCC",
"L  c #CECED0",
"P  c #D0CFD0",
"I  c #CFD0D1",
"U  c #D3D3D4",
"Y  c #D7D7D8",
"T  c #D7D8D9",
"R  c #D9D9DA",
"E  c gray86",
"W  c #DADADB",
"Q  c #D8D8D8",
"!  c #DBDBDC",
"~  c #DDDDDD",
"^  c #DCDCDD",
"/  c #DDDEDF",
"(  c #DFDFDF",
")  c gray87",
"_  c #DCDCDC",
"`  c #DFDFE1",
"'  c #DEDFE2",
"]  c #DFDFE0",
"[  c #DFE0E0",
"{  c gray88",
"}  c #E1E1E1",
"|  c #E0E0E1",
" . c #E1E2E2",
".. c #E2E2E2",
"X. c #E3E3E3",
"o. c #E3E3E4",
"O. c #E3E4E4",
"+. c #E4E4E4",
"@. c #E4E4E5",
"#. c gray90",
"$. c #E6E6E6",
"%. c #E7E7E7",
"&. c #E6E7E7",
"*. c #E3E3E3",
"=. c #E7E8E8",
"-. c gray91",
";. c #E8E8E9",
":. c #E9E9E9",
">. c #EAEAEA",
",. c gray92",
"<. c #EBEBEC",
"1. c #ECECEC",
"2. c gray93",
"3. c #EDEDEC",
"4. c #EDEDEE",
"5. c #EDEDEF",
"6. c #EDEEEE",
"7. c #EDEEEF",
"8. c #EEEEEE",
"9. c #EFEFEF",
"0. c #ECECEC",
"q. c #F0F0EF",
"w. c #F0F0EF",
"e. c #EFEFF0",
"r. c #EFF0F1",
"t. c gray94",
"y. c #F0F0F1",
"u. c #F1F1F1",
"i. c #F3F3F1",
"p. c gray95",
"a. c #F2F2F3",
"s. c #F3F3F3",
"d. c #F4F4F4",
"f. c gray96",
"g. c #F5F5F6",
"h. c #F6F5F6",
"j. c #F6F6F6",
"k. c gray97",
"l. c #F5F5F5",
"z. c #F8F7F7",
"x. c #F8F8F7",
"c. c #F8F8F7",
"v. c #F8F8F8",
"b. c #F9F9F8",
"n. c #F9F9F9",
"m. c #FAF9F9",
"M. c gray98",
"N. c #FBFAFA",
"B. c #FBFBFB",
"V. c #FCFBFB",
"C. c gray99",
"Z. c #FDFDFC",
"A. c #FDFDFD",
"S. c #FEFEFD",
"D. c #FEFEFE",
"F. c #FFFEFE",
"G. c #FFFFFE",
"H. c white",
"J. c #FDFDFD",
/* pixels */
"f.f.f.f.f.f.f.f.f.f.f.f.f.f.f.f.f.f.f.f.f.f.f.f.f.f.f.f.f.f.f.f.f.f.f.f.f.f.f.f.f.f.f.f.f.f.f.f.f.f.f.f.f.f.f.f.f.f.f.f.f.f.f.f.",
"f.f.f.f.f.f.f.f.f.f.f.f.f.f.f.f.f.f.f.f.f.f.f.f.f.f.f.f.f.f.f.f.f.f.f.f.f.f.f.f.f.f.f.f.f.f.f.f.f.f.f.f.f.f.f.f.f.f.f.f.f.f.f.f.",
"f.f.f.f.f.f.f.f.f.f.f.f.f.f.f.f.f.f.f.f.f.f.f.f.f.f.f.f.f.f.f.f.f.f.f.f.f.f.f.f.f.f.f.f.f.f.f.f.f.f.f.f.f.f.f.f.f.f.f.f.f.f.f.f.",
"f.f.f.f.f.f.f.f.f.f.f.f.f.f.f.f.f.f.f.f.f.f.f.f.f.f.f.f.f.f.f.f.f.f.f.f.f.f.f.f.f.f.f.f.f.f.f.f.f.f.f.f.f.f.f.f.f.f.f.f.f.f.f.f.",
"f.f.f.f.f.f.f.f.f.f.f.f.f.f.f.f.f.f.f.f.f.f.f.f.f.f.f.f.f.f.s.f.f.f.f.f.f.f.f.f.f.f.f.f.f.f.f.f.f.f.f.f.f.f.f.f.f.f.f.f.f.f.s.f.",
"f.f.f.f.f.f.f.f.f.f.f.f.f.f.f.f.f.f.f.f.f.f.f.f.f.f.f.f.f.q.w.f.f.f.f.f.f.f.f.f.f.f.f.f.f.f.f.f.f.f.f.f.f.f.f.f.f.f.f.f.f.8.s.f.",
"f.f.f.f.f.f.f.f.f.f.f.f.f.f.f.f.f.f.f.f.f.f.f.f.f.f.f.d.w.s.s.f.f.f.f.f.f.f.f.f.f.f.f.f.f.f.f.f.f.f.f.f.f.f.f.f.f.f.f.d.8.w.s.f.",
"f.f.f.f.f.f.f.f.f.f.f.f.f.f.f.f.f.f.f.f.f.f.f.f.f.f.f.q.q.f.f.f.f.f.f.f.f.f.f.f.f.f.f.f.f.f.f.f.f.f.f.f.f.f.f.f.f.f.f.8.s.f.f.f.",
"f.f.f.f.f.f.f.f.f.f.f.f.f.f.f.f.f.f.f.f.f.f.f.f.f.d.q.s.d.f.f.f.f.f.f.f.f.f.f.f.f.f.f.f.f.f.f.f.f.f.f.f.f.f.f.f.f.f.s.w.s.f.f.f.",
"f.f.f.f.f.f.f.f.f.f.f.f.f.f.f.f.f.f.f.f.f.f.f.f.f.s.q.f.d.f.f.f.f.f.f.f.f.f.f.f.f.f.f.f.f.f.f.f.f.f.f.f.f.f.f.f.f.s.e.f.f.f.f.f.",
"f.f.f.f.f.f.f.f.f.f.f.f.f.f.f.f.f.f.f.f.f.f.f.f.f.f.d.f.f.f.f.f.f.f.f.f.f.f.f.f.f.f.f.f.f.f.f.f.f.f.f.f.f.f.f.f.f.f.s.f.f.f.f.f.",
"f.f.f.f.f.f.f.f.f.f.f.f.f.f.f.f.f.f.f.f.f.f.f.f.f.f.f.f.f.f.f.f.f.f.f.f.f.f.f.f.f.f.f.f.f.f.f.f.f.f.f.f.f.f.f.f.f.f.f.f.f.f.f.f.",
"f.f.f.f.f.f.f.f.f.f.f.f.f.f.f.f.f.f.f.f.f.f.f.f.f.f.f.f.f.f.f.f.f.f.f.f.f.f.f.f.f.f.f.f.f.f.f.f.f.f.f.f.f.f.f.f.f.f.f.f.f.f.f.f.",
"f.f.f.f.f.f.f.f.f.f.f.f.f.f.f.f.f.f.f.f.f.f.f.f.f.f.f.f.f.f.f.f.f.f.f.f.f.f.f.f.f.f.f.f.f.f.f.f.f.f.f.f.f.f.f.f.f.f.f.f.f.f.f.f.",
"f.f.f.f.f.s.s.f.f.f.f.f.f.f.f.f.f.f.f.f.f.f.f.f.f.f.f.f.f.f.f.f.f.f.f.f.f.s.s.f.f.f.f.f.f.f.f.f.f.f.f.f.f.f.f.f.f.f.f.f.f.f.f.f.",
"f.f.f.f.s.s.s.f.f.f.f.f.f.f.f.f.f.f.f.f.f.f.f.f.f.f.f.f.f.f.f.f.f.f.f.f.f.s.e.f.f.f.f.f.f.f.f.f.f.f.f.f.f.f.f.f.f.f.f.f.f.f.f.f.",
"f.f.f.f.f.f.f.f.d.d.d.d.d.z.f.f.f.f.f.f.f.f.f.f.d.d.c.d.f.f.d.f.f.f.f.f.d.c.d.c.f.f.d.d.d.c.d.c.f.f.f.f.d.d.f.f.f.f.f.f.f.f.f.f.",
"s.s.d.f.f.f.f.f.d.d.d.d.d.d.f.d.d.f.f.f.d.s.d.d.d.c.d.d.d.d.d.d.f.f.f.d.f.d.w.w.d.f.f.d.d.d.d.w.s.s.d.s.z.d.f.d.s.d.q.d.f.f.f.f.",
"A.A.A.A.k.f.d.s.d.S.S.S.A.x.d.s.x.d.x.A.A.A.N.x.w.d.w.c.A.S.A.A.f.d.d.d.d.S.V.S.A.x.s.s.x.d.V.S.A.A.v.N.s.s.w.b.A.S.A.z.f.d.d.d.",
"H S S K 8.N.A.A.S.Z C F F ,.z.A.+.>.>.C G H W Y S.S.V.i.S K Z S f.N.A.A.S.G v V J >.S.A.) 8.P V G S f.J +.A.b...C K m C d.A.A.A.",
"N U K S C C J V g z H { G C z x r P G F ( d e z H S P H C C e Z n G G G C 4 F +.J n M k a K G U J M r e G Z P V V N r G n F c n ",
"A.S.S.b.J N e z K S.S.P U N M N P G U C N K d.w.#.x N C Z G -.A.,.V f r S { V.H P M N C ( q.Z Z M G w.b.} z x F N U V.#.m n a H ",
"c V d r d Q 3.w.S.N r r a A ( S.F N x f C n K x S S H P k F m z f C q.d.,.g f 4 d S #.S.K g f k Z n K K x P n S n F 7 f C c.S.x.",
"~ +.k ..H Z x r U g P S.$.K N d 7 P W >.f.X.W : a n G Q { c.W f C F N N P f w.S V P N N r D ,.s.j.$.U k k N e J i.$.Z #.C A z A ",
"V.w.b.S.N.A.D c C.g.v.e.v.A.A.<.w.f.V.x.g.v.A.p e.=.r.C.N.f.s.B.S.w.>.8.N.g.A.b M A.g.<.k.A.v.g.g.v.A.A.v.v.u ' V.c.S.x.A.f.q.N.",
"d.b.d.j.f.A.F p C.g.r.g.v.s.g.N.c.c.x.w.v.a.B.8 ' C.v.g.k.f.k.k.w.c.B.f.v.s.A.M j A.a.g.v.g.g.N.g.g.N.r.r.C.0 U S.w.x.d.s.x.f.f.",
"f.>.S.>.<.A.N p C.' C.r.@.B.s.O.S.8.,.A.[ v.g.8 r.<.;.g.;.r.s.&.c.,.,.x.X.g.A.h b A.=.B.o.f.v.[ N.g.[ B.a.<.u I w.S.+.d.v.>.N.9.",
"S.U J F D [ p u Y K G J W F J J Y G A Q Z K K > V U L c C.B C 9.g 8.K n O.S U u l L B r.l ^ Y V Y K S U L S 2 m N q.n P U Y f.C ",
"F x.f ! ! l L o I A.k G A.l G A.f I ^ d A.v D 0 i O.J Z U G G F F K K V ;.N S D + ` =.a C.n C A.z Z A.x C A.; B s.i A.B m A.Z 8.",
"^ d A.V N A.5 u W v k.I z k.U c s.V V v.d ;.I # g.h I S.a >.U l A.m V A.f K k.1 l L N O.m K U Z ^ U B [ K G 3 z A O.m U U z a.W ",
"C Y A H H J c 8 U N >.K V X.U N K H H S J S K 1 h 8.S M A.z F A.d ' [ c o.K K u a L C ^ N I Y h v.Y z <.` c 5 z S ^ N K K S D J ",
"C X.n K U c L # C A.f L A.l D N.a <.U l s.n H 3 z [ D S U H J J J J I N [ U n N # Y =.i A.D z A.x D A.m V A.# J q.i A.m Z <.k o.",
"f.a r.Z n A.0 r d.k ) J F E F n A.x F A.r s.S o s.f Y X.s A.K g A.F l A.n N A.2 c U z A.m H X.V H G [ F D G 6 d D v.f o.G l A.v ",
"n N.m S ^ C m 5 Q V Q U k w.S F K H G C >.l ^ 9 y N.C m A.x J x.l U 9.c U K S v 2 J J K C G >.x W @.i B.G C q f J J K C H Y N Y ",
"F J G H U m S & n A.C n c.r w.$.s z.S B Y D P , n K G H U A H ( C K o.m U U B m < H ,.d @.W a A.G x s.f ^ A.. W I z s.M J ^ c ^ ",
"8.f <.[ a A.f 5 S.n P U x >.V S N.s o.U f A.S $ o.k Y s.a f.U a A.G g A.M m A.< l A.r x.C C X.S J J C K H K 9 7 W [ a A.G l A.z ",
"z A.N B V.m c < ^ N J K S U C G K W m G f.f <.9 9 A.S c A.M Z 8.M K ( m W U M N < G +.A F S 3.n G ^ x ,.N H i k G F +.M P ^ z X.",
"K J G G Y G c 4 l ,.M C V.f { F m >.C H U A U 2 B K H F U S S +.m K -.x W K S m , S q.N Z b.a 3.C n A.f P ^   P C S q.c P Y N U ",
"S.f W >.a A.K $ S.g E Q g V.v G U f A.G k A.N $ @.x G N.r -.,.r S.G k A.z C A.6 a S.r ,.,.f -.c J ^ m -.C G y 6 S.P d S.m n A.M ",
"x A.C m x.S z 4 c U G S H C E V V +.m U >.d f.e e A.J l c.C C c.M F ( n ( P Z m , F ) G H P C F J K m U G J : x P G ~ n P Q M Y ",
"S Y G S +.F z < H P S N { x P H G P n U U Z Q 4 z { G S Q S S $.C G Q n +.U m Z < C c.Z n w.n Q K k c.d ~ P : S c P -.x Q ..z ..",
"N.a ) S.r :.C $ V.m V ) g i.f $.>.a b.M N S.V X ( k H S.a { w.r S.K d S.n N V.4 r S.d Q Q a S.C n >.a j.d +.l = S.Z x S.C x S.c ",
"m s.G C :.n N 4 z #.K z #.a b.V V S.k G Q n 3.e e c.G n w.Z N w.n G w.c P K A M 4 Q K C F $.N P U z ~ k ..P : C S S K H K U N U ",
"C @.G M P K N = H A K P z #.S S G P G K P c w.6 g ..G V ,.F Z } C G :.N K U m Z : n 3.V F ,.n K K G N G P P * C S S :.d ,...x ~ ",
"S.g K { a A.S $ S.c F K H P n K } d S.U f A.n $ Q z J A.a -.,.a S.U a S.C x A.a e w.r A.) a A.c F E N +.m J x : A.+.a S.n C S.F ",
"G Q N C i.n N : g w.c S V.k P H k j.c F j.f ~ 4 a s.G n ( C C ,.N S { c P ( Z z $ G ) C S ) g +.m N V.k S +.X c G Z ( N F G $.V.",
"P S.J P S.S G : ) S >.E G 3.U J U 3.F U j.S 3.n n A.) C S.G J A.G P S.C $.S.V J r U A.S ) q.F ) Q ) E Q ) ( g E K U A.Z $.q.U b.",
"S.w.V.S.w.V.3.K S.x.c.x.c.c.b.V.V.w.S.x.d.S.d.V.S.s.x.A.q.S.N.d.S.b.q.A.x.q.b.x.S.V.d.S.x.d.S.z.c.c.c.b.N.x.A.x.S.x.q.S.x.j.V.d.",
"d.d.d.d.f.d.x.S.s.d.d.d.d.d.d.d.d.f.d.d.f.d.f.d.d.f.d.d.f.d.d.f.d.d.f.s.f.f.s.d.s.d.f.d.d.f.s.d.i.j.j.w.d.d.w.d.d.d.d.d.d.d.d.j.",
"d.d.d.x.f.f.d.d.d.d.f.f.f.f.f.f.f.f.f.f.f.d.f.f.d.d.f.d.f.f.f.f.f.f.f.f.f.f.f.f.f.f.f.f.f.f.f.f.c.i.j.c.j.d.c.d.j.d.j.d.d.j.j.d.",
"f.f.d.f.f.f.f.f.f.f.f.f.f.f.f.f.f.f.f.f.f.f.f.f.f.f.f.f.f.f.f.f.f.f.f.f.f.f.f.f.f.f.f.f.f.f.f.f.d.j.d.j.d.j.d.j.d.j.d.j.d.j.d.j.",
"f.f.f.f.f.f.f.f.f.f.f.f.f.d.d.d.f.f.f.f.f.f.f.f.f.f.f.f.f.f.f.f.f.f.f.f.f.f.f.f.f.f.f.f.f.f.d.s.j.d.j.d.j.d.j.d.j.d.j.d.j.d.j.d.",
"f.f.f.f.f.f.f.f.f.f.f.f.f.f.w.q.f.f.f.f.f.f.f.f.f.f.f.f.f.f.f.f.f.f.f.f.f.f.f.f.f.f.f.f.f.f.w.w.d.j.d.j.d.j.d.j.d.j.d.j.d.j.d.j.",
"f.f.f.f.f.f.f.f.f.f.f.f.d.q.s.f.f.f.f.f.f.f.f.f.f.f.f.f.f.f.f.f.f.f.f.f.f.f.f.f.f.f.f.f.d.8.s.s.j.d.j.d.j.d.j.d.j.d.j.d.j.d.j.d.",
"f.f.f.f.f.f.f.f.f.f.f.f.w.w.d.f.f.f.f.f.f.f.f.f.f.f.f.f.f.f.f.f.f.f.f.f.f.f.f.f.f.f.f.f.w.w.f.f.d.j.d.j.d.j.d.j.d.j.d.j.d.j.d.j.",
"f.f.f.f.f.f.f.f.f.f.d.8.s.s.f.f.f.f.f.f.f.f.f.f.f.f.f.f.f.f.f.f.f.f.f.f.f.f.f.f.f.f.d.w.s.d.f.f.j.d.j.d.j.d.j.d.j.d.j.d.j.d.j.d.",
"f.f.f.f.f.f.f.f.f.f.s.8.f.f.f.f.f.f.f.f.f.f.f.f.f.f.f.f.j.d.j.d.f.f.f.f.f.f.f.f.f.f.s.q.f.f.f.f.f.f.f.f.f.f.f.f.d.j.d.j.d.j.d.j.",
"f.f.f.f.f.f.f.f.f.f.f.d.f.f.f.f.f.f.f.f.f.f.f.f.f.f.f.d.d.j.d.j.f.f.f.f.f.f.f.f.f.f.d.d.f.f.f.f.f.f.f.f.f.f.f.f.j.d.j.d.j.d.j.d.",
"f.f.f.f.f.f.f.f.f.f.f.f.f.f.f.f.f.f.f.f.f.f.f.f.f.d.d.d.j.d.d.d.f.d.s.f.f.f.s.f.f.f.f.f.f.f.f.f.f.f.f.f.f.f.f.f.d.j.d.j.d.j.d.j.",
"f.f.f.f.f.f.f.f.f.f.f.f.f.f.f.f.f.f.f.f.f.f.f.f.d.N.z.z.z.z.x.x.f.A.A.N.A.A.A.f.f.f.f.f.f.f.f.f.f.f.f.f.f.f.f.f.j.d.j.d.j.d.j.d.",
"f.f.f.f.f.f.f.f.f.f.f.f.f.f.f.f.f.f.f.f.d.d.d.j.d...,.,.,.,.:.-.q.U K Y C K K 8.f.d.f.f.f.f.f.f.f.f.f.f.f.f.f.f.d.j.d.j.d.j.d.j.",
"f.f.f.f.f.f.f.f.f.f.f.f.f.f.f.f.f.f.f.f.q.d.j.x.-.M N c c M C N C z n a a k d ( S.d.f.f.f.f.f.f.f.f.f.f.q.d.f.f.j.d.j.d.j.d.j.d.",
"f.f.f.f.f.f.f.f.f.f.f.f.f.f.f.f.f.f.d.d.d.d.d.j.d.d.c.>.8.f.z.q.3.w.S.+.x.S.S.z.f.f.f.f.f.f.f.f.f.f.f.f.w.d.d.j.d.j.d.j.d.j.d.j.",
"f.f.f.f.f.f.f.f.f.f.f.f.f.f.f.f.d.d.z.d.z.d.j.d.j.j.d.c.x.f.d.z.x.z.s.N.d.d.d.d.f.f.f.f.f.f.f.f.f.f.f.f.x.d.j.d.j.d.j.d.j.d.j.d."
};
