/* XPM */
static char *_7cd78684c2e442dc04d3679d9c3f3515cNgIpQxhywzXers[] = {
/* columns rows colors chars-per-pixel */
"64 64 204 2 ",
"   c #2B1C07",
".  c #2D1D09",
"X  c #301F07",
"o  c #301F0B",
"O  c #2E1E11",
"+  c #311F15",
"@  c #35220A",
"#  c #3A260B",
"$  c #342015",
"%  c #3B2315",
"&  c #362118",
"*  c #3D2419",
"=  c #432B0C",
"-  c #4F330E",
";  c #51350E",
":  c #57390F",
">  c #432516",
",  c #432A16",
"<  c #482815",
"1  c #432619",
"2  c #4C2718",
"3  c #44291D",
"4  c #4C2A1C",
"5  c #522714",
"6  c #5C2C16",
"7  c #522C1C",
"8  c #5B2E1A",
"9  c #4D3212",
"0  c #5B3B10",
"q  c #55301F",
"w  c #5C311E",
"e  c #772D0F",
"r  c #7C2E0E",
"t  c #642C15",
"y  c #6C2D13",
"u  c #622E19",
"i  c #742E11",
"p  c #7B2F10",
"a  c #6F3116",
"s  c #613F10",
"d  c #63321D",
"f  c #6B341A",
"g  c #683E18",
"h  c #743216",
"j  c #7B3213",
"k  c #73351A",
"l  c #7A3619",
"z  c #75391D",
"x  c #7C3C1D",
"c  c #452B21",
"v  c #4B2E22",
"b  c #4F3124",
"n  c #533223",
"m  c #5B3524",
"M  c #5E3927",
"N  c #573729",
"B  c #5D3A2A",
"V  c #633621",
"C  c #633A25",
"Z  c #6C3B24",
"A  c #643D2A",
"S  c #693E2B",
"D  c #743D24",
"F  c #7B3F22",
"G  c #654211",
"H  c #6A4512",
"J  c #6E4812",
"K  c #6E491E",
"L  c #734B14",
"P  c #7C4218",
"I  c #764B18",
"U  c #7C5214",
"Y  c #5F4031",
"T  c #664026",
"R  c #6E4423",
"E  c #65412E",
"W  c #6C412D",
"Q  c #764027",
"!  c #7C4226",
"~  c #764D23",
"^  c #7B4C25",
"/  c #73432C",
"(  c #7B452B",
")  c #7C4A2C",
"_  c #7D5522",
"`  c #644332",
"'  c #6A4330",
"]  c #6C4D3A",
"[  c #724631",
"{  c #744B34",
"}  c #744B36",
"|  c #7C4B31",
" . c #6E523F",
".. c #785137",
"X. c #76523D",
"o. c #7C513A",
"O. c #7E5A44",
"+. c #802F0F",
"@. c #81300F",
"#. c #823413",
"$. c #833817",
"%. c #833C1B",
"&. c #84411C",
"*. c #8C421E",
"=. c #874B1D",
"-. c #93431E",
";. c #924A1E",
":. c #825516",
">. c #855916",
",. c #8B5C17",
"<. c #8D541C",
"1. c #885A1B",
"2. c #92551D",
"3. c #9B571D",
"4. c #935D1C",
"5. c #A05C1D",
"6. c #95631A",
"7. c #9B641C",
"8. c #9D691A",
"9. c #A3631E",
"0. c #A56D1C",
"q. c #A96D1E",
"w. c #AC711D",
"e. c #B2761E",
"r. c #B6791E",
"t. c #BA7B1F",
"y. c #834425",
"u. c #8B4623",
"i. c #874B23",
"p. c #8B4924",
"a. c #834629",
"s. c #824B2D",
"d. c #8B4B2B",
"f. c #944621",
"g. c #9B4721",
"h. c #944B24",
"j. c #9B4C24",
"k. c #934D29",
"l. c #994F29",
"z. c #865323",
"x. c #855924",
"c. c #8D5C23",
"v. c #85502C",
"b. c #8C532C",
"n. c #8C592A",
"m. c #955224",
"M. c #9B5325",
"N. c #945D25",
"B. c #9C5B22",
"V. c #955229",
"C. c #9C5229",
"Z. c #925A2B",
"A. c #844D31",
"S. c #8A4F32",
"D. c #855134",
"F. c #8C5334",
"G. c #89563B",
"H. c #875C39",
"J. c #8D593B",
"K. c #935333",
"L. c #995633",
"P. c #965937",
"I. c #9D5A36",
"U. c #935B3A",
"Y. c #9C5E3B",
"T. c #A24C24",
"R. c #A14F28",
"E. c #A35E38",
"W. c #9C6323",
"Q. c #996528",
"!. c #8E6333",
"~. c #996338",
"^. c #A06722",
"/. c #A46C23",
"(. c #AA6F21",
"). c #AC7221",
"_. c #A6712D",
"`. c #B17521",
"'. c #B47822",
"]. c #BC7D21",
"[. c #B27929",
"{. c #A4623C",
"}. c #AA663E",
"|. c #C17F22",
" X c #835C44",
".X c #8B5E44",
"XX c #945F43",
"oX c #8B6349",
"OX c #936244",
"+X c #9A6847",
"@X c #96694C",
"#X c #8B6951",
"$X c #966D51",
"%X c #9A765C",
"&X c #A96943",
"*X c #A77553",
"=X c #9E7D63",
"-X c #BF8021",
";X c #C48220",
":X c #CA8621",
">X c #CC8822",
",X c #A68569",
"<X c #AC8B70",
"1X c #B29275",
/* pixels */
">X>X>X>X>X>X>X>X>X>X>X>X>X>X>X>X>X>X>X>X>X>X>X>X>X>X>X>X>X>X>X>X>X>X>X>X>X>X>X>X>X>X>X>X>X>X>X>X>X>X>X>X>X>X>X>X>X>X>X>X>X>X>X>X",
">X>X>X>X>X>X>X>X>X>X>X>X>X>X>X>X>X>X>X>X>X>X>X>X>X>X>X>X>X>X>X>X>X>X>X>X>X>X>X>X>X>X>X>X>X>X>X>X>X>X>X>X>X>X>X>X>X>X>X>X>X>X>X>X",
">X>X>X>X>X>X>X>X>X>X>X>X>X>X>X>X>X>X>X>X>X>X>X>X>X>X>X>X>X>X>X>X>X>X>X>X>X:X>X>X>X>X>X>X>X>X>X>X>X>X>X>X>X>X>X>X>X>X>X>X>X>X>X>X",
">X>X>X>X>X>X>X>X>X>X>X>X>X>X>X>X>X>X>X>X>X>X>X>X>X>X>X:X>X>X>X>X>X>X>X>X>X>X>X>X>X>X>X>X>X>X>X>X>X>X>X>X>X>X>X>X>X>X>X>X>X>X>X>X",
">X>X>X>X>X>X>X>X>X>X>X>X>X>X>X>X>X>X>X>X>X>X>X>X>X>X>X>X>X>X>X>X>X>X>X>X>X>X>X>X>X>X>X>X>X>X>X>X>X>X>X>X>X>X>X>X>X>X>X>X>X>X>X>X",
">X>X>X>X>X>X>X>X>X>X>X>X>X>X>X>X>X>X>X>X>X>X>X>X>X>X>X>X>X>X>X>X>X>X>X>X>X>X>X>X>X>X>X>X>X>X>X>X>X>X>X>X>X>X>X>X>X>X>X>X>X>X>X>X",
">X>X>X>X>X>X>X>X>X>X>X>X>X>X>X>X>X>X>X>X>X>X>X>X>X>X>X>X>X>X>X>X>X>X>X>X>X>X>X>X>X>X>X>X>X>X>X>Xw.W.r.>X>X>X>X>X>X>X>X>X>X>X>X>X",
">X>X>X>X>X>X>X>X>X>X>X>X>X>X>X>X>X>X>X>X>X>X>X>X>X>X>X>X>X>X>X>X>X>X>X>X>X>X>X>X>X>X>X>X>X>X:XW.s.s.i.W.;X>X>X>X>X>X>X>X>X>X>X>X",
">X>X>X>X>X>X>X>X>X>X>X>X>X>X>X>X>X>X>X>X>X>X>X>X>X>X>X>X>X>X>X>X>X>X>X>X>X>X>X>X>X>X>X>X>X`.N.d.L.K.K.d.N.].>X>X>X>X>X>X>X>X>X>X",
">X>X>X>X>X>X>X>X>X>X>X>X>X>X>X>X>X>X>X>X>X>X>X>X>X>X>X>X>X>X>X>X>X>X>X>X>X>X>X>X>X>X>X;X^.Z.| b S K.L.K.K.Z.].:X>X>X>X>X>X>X>X>X",
">X>X>X>X>X>X>X>X>X>X>X>X>X>X>X>X>X>X>X>X>X:X>X>X>X>X>X>X>X>X>X>X>X>X>X>X>X>X;X:X>X>X`.n.F.[ M c * 7 F.I.K.K.Z.-X>X>X>X>X>X>X>X>X",
">X>X>X>X>X>X>X>X>X>X>X>X>X>X>X>X>X>X>X>X>X>X>X>X>X>X>X>X>X>X>X>X>X>X>X>X>X>X|.>X;XW.b.S.S S A c 1 * 4 F.{.L.@X-X>X>X>X>X>X>X>X>X",
">X>X>X>X>X>X>X>X>X>X>X>X>X>X>X>X>X>X>X>X>X>X>X>X>X>X>X>X>X>X>X>X>X>X>X>X>X>X>Xq.b.A./ S [ [ A c 2 2 2 4 F.&XQ.:X>X>X>X>X>X>X>X>X",
">X>X>X>X>X>X>X>X>X>X>X>X>X>X>X>X>X>X>X>X>X>X>X>X>X>X>X>X>X>X>X>X>X>X>X>X>X'.c.( / W S S S Z V 2 4 5 2 1 K.+X].>X>X>X>X>X>X>X>X>X",
">X>X>X>X>X>X>X>X>X>X>X>X>X>X>X>X>X>X>X>X>X>X>X>X>X>X>X>X>X>X>X>X>X>X>Xt.W.) ) [ W W A m i +.y 5 4 5 2 Z }.Z.:X>X>X>X>X>X>X>X>X>X",
">X>X>X>X>X>X>X>X>X>X>X>X>X>X>X>X>X>X>X>X>X>X>X>X>X>X>X>X>X>X>X>X>X].W.v./ W W W S C f p +.p y 2 2 2 7 P.U.z.:X>X>X>X>X>X>X>X>X>X",
">X>X>X>X>X>X>X>X>X>X>X>X>X>X>X>X>X>X>X>X>X>X>X>X>X>X>X>X>X>X>X:X).b.A.S v A S V f p r +.+.i 6 4 v 4 ( &X/ 4.>X>X>X>X>X>X>X>X>X>X",
">X>X>X>X>X>X>X>X>X>X>X>X>X>X>X>X>X>X>X>X>X>X>X>X>X>X>X>X>X>X[.N.s.A.S n v n w i r r +.r a V B N v V {.A.A 7.>X>X>X>X>X>X>X>X>X>X",
">X>X>X>X>X>X>X>X>X>X>X>X>X>X>X>X>X>X>X>X>X>X>X>X>X>X>X>X:X/.F.S.| S [ A c w +.r r r i d A A B M N U.J.C C w.>X>X>X>X>X>X>X>X>X>X",
">X>X>X>X>X:X>X>X>X>X>X>X>X>X>X>X>X>X>X>X>X>X>X>X>X>X>Xt.N.K.( S S [ S d c w +.@.#.a m B A B A m | Y.W A R t.>X>X>X>X>X>X>X>X>X>X",
">X>X>X>X>X>X>X>X>X>X>X>X>X>X>X>X>X>X>X>X>X>X>X>X>X;X/.Z.S./ S W S Z i +.4 8 #.%.z A A M C C A S Y.| A ` Q.:X>X>X>X>X>X>X>X>X>X>X",
">X>X>X>X>X>X>X>X>X>X>X>X>X>X>X>X>X>X>X>X>X>X>X:Xe.N.b.( S [ ' Z l +.p +.7 m F D S S A V m V f k.P.A ` ~ ].>X>X>X>X>X>X>X>X>X>X>X",
">X>X>X>X>X>X>X>X>X>X>X>X>X>X>X>X>X>X>X>X>X>X;X8.d.F.n N ' S Z j r p p +.8 b A S S A C C d i &.~./ ` E /.>X>X>X>X>X>X>X>X>X>X>X>X",
">X>X>X>X>X>X>X>X>X>X>X>X>X>X>X>X>X>X>X>X>X].N.d.| A v m Z k +.r r p #.%.V v M Z Z C M V i k P.| S W I ;X;X>X>X>X>X>X>X>X>X>X>X>X",
">X>X>X>X>X>X>X>X>X>X>X>X>X>X>X>X>X>X>X>X/.V.S.S S B v m r r r +.+.$.x S V v N M A M f j i d.F.W / T 8.7.<.t.>X>X>X>X>X>X>X>X>X>X",
">X>X>X>X>X>X>X>X>X>X>X>X>X>X>X>X>X>Xr.N.s.S A A S d v 8 r +.+.#.%.D A D S 4 b N C h j r ! P.W [ W 1.<.&.f.7.>X>X>X>X>X>X>X>X>X>X",
">X>X>X>X>X>X>X>X>X>X>X>X>X>X>X>X:Xw.z./ Z D A V i i 7 m p #.$.F S S Z D S M v n l r i z K.[ W / ~ 4.&.%.%.;.t.>X>X>X>X>X>X>X>X>X",
">X>X>X>X>X>X>X>X>X>X>X>X>X>X>X;X6.) W w F d.y.k p r u n j $.Z A A V Z V S S 4 b t i d F.| ` | C :.g.f.f.f.p.|.>X;Xr.>X>X>X>X>X>X",
">X>X>X>X>X>X>X:X>X>X>X>X>X>Xt.c.) ` m y.u.a.p.u.i p y b V Z C V Z V V A Z x y 1 4 q D.D.S [ W I g.f.f.l.m.e.>Xe.<.=.e.>X>X>X>X>X",
">X>X>X>X>X>X>X>X>X>X>X>X>X0.z.s.S M b n d.p.u.u.u.l i n n V V V C A A D j r r 1 3 | F.Y S / K 2.f.f.C.C.q.;Xq.*.f.g.2.;X>X>X>X>X",
">X>X>X>X>X>X>X>X>X>X>X;X6.s.A.E B B 3 + b p.k.y.u.u.F n v m V m C A Z p r p w 3 / F.N A / C 0.2.g.j.C.q.t.3.g.-.T.T.;.].>X>X>X>X",
">X>X>X>X>X>X>X>X>X>X;XN.D.C A E B 8 6 % + m d.l.y.y.f.a.N n m C C k p r i m n ) F.W A W A 1.9.m.i.h.q.].3.g.-.g.T.j.N.'.>X>X>X>X",
">X>X>X>X>X>X>X>X>X|.W.F.( v A A d y 6 > $ 3 3 ! l.u.y.k.u.V M f j +.r i m N | P.E A C B K 7.h.W.e.t.>X5.f.f.T.T.R.B.e.>X>X>X>X>X",
">X>X>X>X>X>X>X>X;Xc.S./ ' v B d i y t > + 3 4 1 Z l.k.u.k.h.F j +.p h m C D.U.S B B A M 2.M.^.;X>X>X|.2.T.T.T.C.9.|.>X>X>X>X>X>X",
">X>X>X>X>X>X>X>XW./ S [ [ b V i i i t 2 + * m m 4 m d.k.h.h.l.u.#.V q S L.D.S ` C A n L m.B.|.>X>X'.5.h.l.l.m.q.>X>X>X>X>X>X>X>X",
">X>X>X>X>X>X>X).F.W S [ ' n w i e y 8 1 $ & m V C 4 1 V a.h.h.k.h.D A.L.A.' S A / N g f.B.t.>X:Xq.m.V.8.6.9.t.>X>X>X>X>X>X>X>X>X",
">X>X>X>X>X>X-Xn.} S ' S k u 8 p i w 4 > & & b V m w t 5 4 i.l.l.C.{.G.' ' / D S n w =.m.].>Xt.5.j.V.(.>X>X>X>X>X>X>X>X>X>X>X>X>X",
">X>X>X>X>X>X/.} ' W S k +.t n f w 7 4 1 % & > b 8 i #.p 5 4 d.Y.J.o.W W ( Q W b , &.h.r.:Xe.3.C.N.].>X>X>X>X>X>X>X>X>X>X>X>X>X>X",
">X>X>X>X>X;X4.F.U.P.D +.+.h v M V 7 4 > 1 & % 2 i r e y D F.U.o.' } | ! / E b 1 x f.e.;X3.j.C.W.;X>X>X>X>X>X>X>X>X>X>X>X>X>X>X>X",
">X>X>X>X:Xr.I C Y.}.E.f.$.f v m V w 4 4 c 1 + + t l a.J.J.o.' ' [ ) ! / S v > x f.4.w.3.j.2.).>X>X>X>X>X>X>X>X>X>X>X>X>X>X>X>X>X",
">X>X>X:Xr.8.L 4  X$X*X&XY.F.( ' Q S V m 7 f w E G.oXG.} E E W D D ( [ M 7 > z u.I 2.;.g.2.t.>X>X>X>X>X>X>X>X>X>X>X>X>X>X>X>X>X>X",
">X>X>X;X0.>.J , v B ] X.oX$X@X+X+X@X@XoXOXOXOX X} ` ` E E / ! Z ( W m 4 % k f.H P f.m.^.;X>X>X>X>X>X>X>X>X>X>X>X>X>X>X>X>X>X>X>X",
">X>X;Xr.6.U H , b V V C B B N N ` ` ` ` E E A B ` ` W ! y.a./ W A n 1 * W S./ &.j.d.(.>X>X>X>X>X>X>X>X>X>X>X>X>X>X>X>X>X>X>X>X>X",
">X:X].0.>.J G = 4 m S Z F s.( S C ` A A E W / / ( i.y.! W E A A / / M N F.b.F.d.<.`.>X>X>X>X>X>X>X>X>X>X>X>X>X>X>X>X>X>X>X>X>X>X",
">X;Xr.6.U H - # 1 n B M A | ! y.y.d.a.W S Q a.Q / S C A A M n ' S.S.S.} .XU.+X!.t.>X>X>X>X>X>X>X>X>X>X>X>X>X>X>X>X>X>X>X>X>X>X>X",
":X-X8.>.H ; @ X @ 7 7 m B B B N S [ | | [ [ ' E A E A C 7 , * | S.K.S.G. X#X@Xn.>X>X>X>X>X>X>X>X>X>X>X>X>X>X>X>X>X>X>X>X>X>X>X>X",
":Xw.,.L s # X   . , b 1 2 4 v n n N A E B B B B M 7 7 > % . % ..S.D.J..X#X$XS.) ;X>X>X>X>X>X>X>X>X>X>X>X>X>X>X>X>X>X>X>X>X>X>X>X",
";X0.U H ; @     . o 7 3 * * > 1 4 4 4 b 4 7 7 4 > * +   . @ # E  XoX@X XO.,XXX) ;X>X>X>X>X>X>X>X>X>X>X>X>X>X>X>X>X>X>X>X>X>X>X>X",
"-X8.U G ; @         % w 4 * * * * * * * 1 * % & O . @ # = = < N E X.oX$X#X%XJ.^ ;X>X>X>X>X>X>X>X>X>X>X>X>X>X>X>X>X>X>X>X>X>X>X>X",
"-X8.U G =             # q 4 c c * % $ + + & + . # - H J 0 5 d M X.<X1X1XO.` [ c.>X>X>X>X>X>X>X>X>X>X>X>X>X>X>X>X>X>X>X>X>X>X>X>X",
"-X8.U s # X             @ 3 3 * 1 * % $ + @ = 0 J U 6.:.z z 4 M O.=X,X%X .n o._.>X>X:X>X>X>X>X>X>X>X>X>X>X>X>X>X:X>X>X>X>X>X>X>X",
"-Xw.>.H ; X             . @ % 4 > > < = 9 s L >.6.w.4.P p.f % n O.,X,X<X} ] H.].>X>X:X:X>X>X>X>X>X>X>X>X>X>X>X>X>X>X>X>X>X>X>X>X",
":Xr.6.U G ; # @ X       . X @ # - ; G L U ,.7.e.e.2.&.f.i.L 9 n ] ,X%XX.4.`.].>X>X>X>X>X>X>X>X>X>X>X>X>X>X>X>X>X>X>X>X>X>X>X>X>X",
":X;Xw.6.U J G s ; ; ; ; : s H U U >.,.6.0.r.;Xe.<.*.f.i.0.;X>.n q N Q A _.>X>X>X>X>X>X>X>X>X>X>X>X>X>X>X>X>X>X>X>X>X>X>X>X>X>X>X",
">X:X;Xe.8.>.>.U U L >.>.>.>.6.6.8.w.r.|.:X;X7.h.*.&.y.6.:X>X'.T 4 b Q } [.>X>X>X>X>X>X>X>X>X>X>X>X>X>X>X>X>X>X>X>X>X>X>X>X>X>X>X",
">X>X:X:X-X0.0.8.8.8.0.w.w.w.r.-X;X:X:X>Xr.<.h.i.&.=.4.:X:X:X:Xx.` ] oX!.;X>X>X>X>X>X>X>X>X>X>X>X>X>X>X>X>X>X>X>X>X>X>X>X>X>X>X>X",
">X>X>X:X:X:X;X;X-X;X;X:X:X:X:X>X>X>X>X>X6.i.4.:.P 6.:X>X>X>X>X-Xc._ c.-X:X>X>X>X>X>X>X>X>X>X>X>X>X>X>X>X>X>X>X>X>X>X>X>X>X>X>X>X",
">X>X>X>X:X>X:X>X>X>X>X>X>X>X>X>X>X>X>X>X'.(.r.:.U ;X>X>X>X>X>X>X:X:X:X>X:X>X>X>X>X>X>X>X>X>X>X>X>X>X>X>X>X>X>X>X>X>X>X>X>X>X>X>X",
">X>X>X>X:X>X>X>X>X>X>X>X>X>X>X>X>X>X>X>X>X>X:Xr.;X>X>X>X:X>X>X>X>X>X>X>X>X>X>X>X>X>X>X>X>X>X>X>X>X>X>X>X>X>X:X>X>X>X>X:X>X>X>X>X",
">X>X>X>X>X>X>X>X>X>X>X>X>X>X>X>X>X>X>X>X>X>X>X>X>X>X>X>X>X>X>X>X>X>X>X>X>X>X>X>X>X>X>X>X>X>X>X>X>X>X>X>X>X>X>X>X>X>X>X>X>X>X>X>X",
">X>X>X>X>X>X>X>X>X>X>X>X>X>X>X>X>X>X>X>X>X>X>X>X>X>X>X>X>X>X:X:X>X>X>X>X>X>X>X>X>X>X>X>X>X>X>X>X>X>X>X>X>X>X>X>X>X>X>X>X>X>X>X>X",
">X>X>X>X>X>X>X>X>X>X>X>X>X>X>X>X>X>X>X>X>X>X>X>X>X>X>X>X>X>X:X:X>X>X>X>X>X>X>X>X:X>X>X>X>X>X>X>X>X>X>X>X>X>X>X>X>X>X>X>X>X>X>X>X",
">X>X>X>X>X>X>X>X>X>X>X>X>X>X>X:X>X>X>X>X>X>X>X>X>X>X>X>X>X>X>X>X>X>X>X>X>X>X>X>X>X>X>X>X>X>X>X>X>X>X>X>X>X>X>X>X>X>X>X>X>X>X>X>X",
">X>X>X>X>X>X>X>X>X>X>X>X>X>X:X:X>X>X>X>X>X>X>X>X>X>X>X>X>X>X>X>X>X>X>X>X>X>X>X>X>X>X>X>X>X>X>X>X>X>X>X>X>X>X>X>X>X>X>X>X>X>X>X>X"
};
