/* XPM */
static char *c7c00c48cbad4c52b4a66c957b35b7fbuAeq3UEz9xX23uoN[] = {
/* columns rows colors chars-per-pixel */
"64 64 169 2 ",
"   c #090A0C",
".  c #120F0E",
"X  c #1A1614",
"o  c #241F1A",
"O  c #2D251E",
"+  c #3B2316",
"@  c #3B2418",
"#  c #352B25",
"$  c #3B2E26",
"%  c #3E3027",
"&  c #4A2816",
"*  c #472F1B",
"=  c #4D2C1B",
"-  c #512C19",
";  c #47301C",
":  c #5E331B",
">  c #422F27",
",  c #423227",
"<  c #4B3426",
"1  c #433328",
"2  c #4A372A",
"3  c #4C392B",
"4  c #513525",
"5  c #543A26",
"6  c #593926",
"7  c #533C2C",
"8  c #5B3D2A",
"9  c #643C25",
"0  c #6C3E26",
"q  c #5C412C",
"w  c #5D4232",
"e  c #6F4027",
"r  c #66432B",
"t  c #6C4A2E",
"y  c #744326",
"u  c #7E4625",
"i  c #75452A",
"p  c #76492E",
"a  c #794A2D",
"s  c #634533",
"d  c #694631",
"f  c #664935",
"g  c #6D4B36",
"h  c #674E3C",
"j  c #6F4C38",
"k  c #724D33",
"l  c #714E39",
"z  c #755031",
"x  c #7D5432",
"c  c #7A533B",
"v  c #804725",
"b  c #824926",
"n  c #864C2A",
"m  c #894F2B",
"M  c #8D512C",
"N  c #92562D",
"B  c #96592E",
"V  c #995B2F",
"C  c #815432",
"Z  c #8E5431",
"A  c #855934",
"S  c #8B5D35",
"D  c #82563C",
"F  c #85593E",
"G  c #885A3E",
"H  c #935632",
"J  c #965934",
"K  c #9C5D33",
"L  c #935D3B",
"P  c #9C5D38",
"I  c #946236",
"U  c #9F6032",
"Y  c #976438",
"T  c #9C653A",
"R  c #9E6839",
"E  c #A36233",
"W  c #A86735",
"Q  c #AC6A36",
"!  c #A3633C",
"~  c #A8673C",
"^  c #A36A39",
"/  c #AB6C3B",
"(  c #B06C37",
")  c #B16F3A",
"_  c #AE723C",
"`  c #B1733C",
"'  c #BA763D",
"]  c #BE7A3F",
"[  c #C27C3E",
"{  c #C87F3F",
"}  c #8C5E42",
"|  c #946244",
" . c #9A6544",
".. c #9F6948",
"X. c #A76641",
"o. c #AD6B43",
"O. c #A46C49",
"+. c #AB6E4A",
"@. c #B16E46",
"#. c #AC704C",
"$. c #B57246",
"%. c #B97544",
"&. c #BD7843",
"*. c #B3734C",
"=. c #BA754C",
"-. c #B5794C",
";. c #BD794F",
":. c #AA7552",
">. c #B67650",
",. c #B57A54",
"<. c #BC7951",
"1. c #C47E41",
"2. c #C87F44",
"3. c #C57F4D",
"4. c #C87B4C",
"5. c #C47D53",
"6. c #C87F54",
"7. c #C7803F",
"8. c #C8803F",
"9. c #C78042",
"0. c #C98141",
"q. c #CC8341",
"w. c #CC8342",
"e. c #CE8442",
"r. c #C98144",
"t. c #C9814B",
"y. c #CA824D",
"u. c #CF8C4E",
"i. c #D18643",
"p. c #D0864C",
"a. c #D08D4F",
"s. c #C68055",
"d. c #C78155",
"f. c #C88156",
"g. c #C98156",
"h. c #CD8357",
"j. c #CB8455",
"k. c #CB8457",
"l. c #C68459",
"z. c #CD8558",
"x. c #CD8459",
"c. c #CE8558",
"v. c #C28A5C",
"b. c #D08554",
"n. c #D38C52",
"m. c #D88A52",
"M. c #D18659",
"N. c #D2865A",
"B. c #D58A5A",
"V. c #D98C5A",
"C. c #D29054",
"Z. c #D5935A",
"A. c #D8995F",
"S. c #D18E61",
"D. c #CD9467",
"F. c #D49365",
"G. c #D99666",
"H. c #DA9C63",
"J. c #D7986B",
"K. c #D99C6D",
"L. c #E09364",
"P. c #DDA272",
"I. c #E1A374",
"U. c #E3AB79",
"Y. c #E7B27E",
"T. c #E6B382",
"R. c #E9B583",
"E. c #EAB887",
"W. c #ECBA89",
/* pixels */
"0.0.0.0.0.0.0.0.0.0.0.0./ % % ` 0.0.0.0.0.0.0.0.0.0.0.0.0.0.0.0.0.0.0.0.0.0.0.9.0.0.0.0.0.0.0.0.0.0.0.9.0.0.0.8.0.0.0.0.0.0.0.0.",
"0.0.0.0.0.7.0.0.A _ e._ f # % _ w.0.0.0.0.0.0.0.0.0.0.0.0.0.0.0.0.8.0.0.0.0.0.8.0.0.0.0.0.0.0.0.0.0.0.0.0.0.0.9.0.0.0.0.0.0.9.0.",
"0.0.0.0.0.0.7.R 2 z ' I # 4 1 ` w.0.0.0.0.0.0.0.0.0.0.0.0.0.0.0.0.0.0.0.0.0.0.0.0.0.0.0.0.0.0.8.0.0.8.0.0.0.8.0.0.0.0.0.0.0.8.0.",
"0.0.0.0.0.0.' 2 $ $ S Y < y 2 ^ 0.0.0.0.0.0.0.0.0.0.0.0.0.8.9.0.0.0.0.0.0.0.0.0.0.8.9.0.0.0.0.0.0.0.0.0.0.0.0.0.0.0.0.0.0.0.0.0.",
"0.0.0.0.0.0.' 2 # # S Y < y , 5 ^ w.0.0.0.0.0.8.0.0.0.0.0.0.0.0.0.8.9.0.0.0.0.0.0.0.0.0.0.0.0.0.0.0.8.0.0.0.0.0.0.8.0.0.0.0.0.0.",
"0.0.0.0.0.0.' , # # A I ; u r % R i.0.0.0.0.0.2.0.0.0.8.0.0.0.0.0.0.0.0.0.0.0.0.0.0.0.0.0.0.0.0.0.0.9.0.0.0.0.0.0.9.0.0.0.0.0.0.",
"0.0.0.0.0.0.[ f w w T / r 0 e > S 1.0.0.0.0.0.0.0.0.0.9.0.0.0.0.0.0.0.0.0.0.0.0.0.0.0.8.0.0.9.8.0.0.0.0.0.0.0.0.0.0.0.0.0.0.0.8.",
"0.9.8.0.0.0.9.s.5.s.s.j.o.1 $ $ d / w.0.0.0.0.0.0.0.0.0.0.0.0.0.0.0.0.0.0.8.0.0.0.0.0.0.0.0.0.0.0.0.0.0.0.0.0.0.0.0.0.0.0.0.0.0.",
"0.0.0.0.0.r.s.j.z.z.l.z.-.0 $ 0 < S i.0.0.0.0.0.0.0.0.0.0.0.0.0.0.0.0.0.0.0.0.0.0.0.0.0.0.0.0.0.0.0.0.0.0.0.0.0.0.0.0.0.0.0.0.0.",
"0.0.0.0.r.y.j.g.#.| Y $.5.T 8 P Z x ! w.0.0.0.0.0.0.0.0.9.0.0.0.0.0.0.0.0.0.0.0.0.0.0.0.0.0.0.0.0.0.0.0.0.0.8.0.0.0.0.0.9.8.0.0.",
"0.0.0.0.y.j.6.=.z 4 r ..z.5.L <.p.k t e.0.0.0.0.0.0.0.0.8.0.0.0.9.0.0.0.0.0.0.8.0.0.9.8.0.0.0.0.9.8.0.0.0.0.0.9.0.0.0.0.0.0.0.0.",
"[ 1.[ 3.s.j.5.M 7 % F j.g.g.5.6.k.c g 0.0.0.0.0.0.0.0.0.0.0.0.0.8.0.0.0.0.0.0.9.0.0.0.0.0.0.0.0.0.0.0.0.0.0.0.0.0.0.0.0.0.0.0.0.",
"; ; * 5 } l.j.*... .>.h.g.f.z.x.j.>.D x 0.0.0.0.8.0.0.0.0.0.0.0.0.0.0.0.0.0.0.0.0.0.0.0.0.0.0.0.0.0.0.0.8.0.0.0.0.0.0.0.8.0.0.0.",
"X   . o j z.j.z.N.N.g.6.f.f.g.o.<.N.} 2 Y 7.0.0.0.0.0.0.0.0.0.0.0.0.0.0.8.0.0.0.0.0.0.0.0.0.0.0.0.0.0.0.0.0.0.0.0.0.0.0.0.0.0.0.",
"% X O $ f ,.>.>.*.5.j.6.6.6.<.H $.N.} # 3 7.0.0.9.0.0.0.0.8.0.0.0.0.0.0.0.0.0.0.0.0.0.0.0.0.0.8.0.0.0.0.0.0.0.0.0.0.9.8.0.0.0.0.",
"% # # % 1 3 2 3 2 ..h.6.j.5.H *.s.j.| # 2 ] 0.0.8.0.0.0.0.0.0.0.0.0.0.0.0.0.0.0.0.0.0.8.0.0.0.9.0.0.0.0.0.0.0.0.0.0.0.0.0.0.0.0.",
"S 4 O $ $ # # @ + 9 i n P P o.5.f.z.>.c % k 1.0.0.0.0.0.0.0.0.0.0.0.0.0.0.0.0.0.0.0.0.0.0.0.0.0.0.0.0.0.8.0.0.0.0.0.0.0.0.0.0.0.",
"0.x f q # $ % = - = & : b P f.f.f.f.x.>.f $ S ] w.0.0.0.0.0.0.0.0.0.0.0.0.0.0.0.0.0.0.0.0.0.0.0.8.0.0.0.0.0.0.0.0.0.0.0.0.0.0.0.",
"0.0.0.S 1 3 4 p a a a C J g.g.f.f.6.f.x.-.1 $ I &.] 0.0.0.0.0.0.0.0.0.0.0.0.0.0.0.0.0.0.0.0.0.0.8.9.0.0.0.0.0.0.0.0.0.8.0.0.0.0.",
"0.w.0.] _ ` ` ` ' ' -.,.l.U.z.g.f.x.f.x.>.1 $ 3 7 A e.0.0.0.0.0.0.0.0.0.0.0.0.0.0.0.0.0.7.0.0.0.0.0.0.0.0.0.0.0.0.0.0.9.0.0.0.0.",
"0.0.0.0.8.e.e.w.w.0.Z.L.U.R.z.g.g.6.6.>.l > $ $ # 3 x x x &.i.w.0.e.e.e.e.0.0.0.0.7.0.0.8.0.0.0.0.0.0.0.0.0.0.0.0.0.0.0.0.9.8.0.",
"0.0.0.0.w.0.0.0.0.7.A.R.W.R.z.g.g.x.<.} $ $ $ $ $ $ # # $ I ^ ! ^ R ^ ^ R 9.0.e.0.e.w.w.0.e.e.0.0.0.0.0.0.0.0.0.0.0.0.0.0.0.0.0.",
"0.0.0.0.0.0.0.0.0.7.J.E.W.T.l.l.f.f.} $ $ $ $ $ $ $ $ % > % > > % % % , % R 7.] ] ] ] [ &.] &.1.0.0.0.0.0.0.0.0.0.0.0.0.0.0.0.0.",
"8.0.0.0.0.0.0.0.9.9.H.E.W.T.z.s.z.} 2 # $ $ $ $ $ $ $ $ $ $ # $ $ $ $ % $ 5 q q q q q q q q q c w.w.0.0.0.0.9.8.0.0.8.0.0.0.0.0.",
"0.0.0.0.0.0.0.0.0.7.C.P.E.T.P.D.N.c 2 } c $ # $ $ $ $ $ > $ $ $ % $ $ $ $ # # # # # # # $ # # 2 A S 7.w.0.0.0.0.0.0.0.0.0.0.0.0.",
"0.0.0.0.0.7.0.0.0.0.7.A.E.E.T.:.+.c } 5.O.s 8 1 $ $ $ $ $ $ $ $ $ $ $ $ % $ $ % $ $ $ $ $ $ $ # # % R _ 7.0.0.0.0.0.0.0.0.0.0.0.",
"0.0.0.0.0.0.0.0.0.0.7.Z.E.E.T.h > } 5.O.7 >.5.s $ $ $ $ $ $ $ $ $ $ $ $ $ $ $ $ $ $ $ $ $ % > > % % 1 , I 0.0.0.9.0.0.0.0.0.0.0.",
"0.0.0.0.0.0.0.0.0.0.7.w.H.E.E.:. .>.z.O.3 5.6.s # $ $ $ $ $ $ $ $ % $ $ % $ $ $ $ $ $ $ # l O.O... ., # 3 Y 0.0.8.0.0.0.0.0.8.0.",
"0.0.0.0.0.0.0.0.0.0.0.7.a.E.R.B.x.6.x.O.3 <.6.} 3 $ $ $ $ $ $ $ $ $ $ $ # # % $ $ # $ l c +.N.x.z.5.} , # x e.0.0.0.0.0.0.0.0.9.",
"0.0.0.7.0.0.0.0.0.0.0.7.a.W.E.F.z.6.5. .s 5.6.<.h # $ $ $ $ $ $ $ $ $ $ % % % # $ 7 w ,.x.s.g.f.j.j.5.s # p ] 0.0.0.0.0.0.0.0.0.",
"0.0.0.0.0.0.0.0.0.0.0.7.C.W.W.R.F.x.| f >.6.6.<.l # $ $ $ $ $ $ $ $ $ % % # % # s <.<.6.f.f.6.f.f.g.g.Z 4 % z 0.0.0.0.0.0.0.8.0.",
"0.0.0.0.0.0.0.0.0.0.0.7.0.A.R.W.F.x.} 7 6.6.6.6.j # # $ $ $ $ $ # # # # # # j  .O.x.g.6.h.f.j.f.f.s.g.=.C 9 r x 0.0.0.0.0.0.0.0.",
"0.0.0.0.0.0.0.0.0.0.0.0.0.i.R.W.F.+.D G x.6.6.x. .h w # # # # 7 j j j g g j +.b.N.6.f.f.j.6.g.g.f.f.f.N.P b 0 9 / ( { w.0.2.2.w.",
"0.0.0.0.0.0.0.0.0.0.0.0.0.i.U.E.G.D c g.g.f.g.f.6.z.O.2 3 3 2 | j.s.j.s.5.5.g.g.f.f.f.f.f.f.6.g.f.f.6.x.P b m m b b ) [ [ [ [ [ ",
"0.0.7.0.0.0.0.0.0.0.0.0.0.0.u.Y.G.;.;.g.g.h.j.6.g.s.5.>.>.#.*.<.j.j.6.g.k.f.f.f.6.f.f.j.f.f.f.x.f.f.6.x.P P 4.@.b b m m M m m m ",
"0.0.9.0.0.0.0.0.0.0.0.0.0.0.7.-.5.b.N.g.6.g.g.g.j.S.P.I.I.I.I.P.P.P.K.6.6.f.f.f.j.f.f.f.x.6.f.f.x.f.6.g.J T x.5.o.X.n u v u n ~ ",
"7.0.0.0.0.0.0.0.0.0.0.0.0.0.[ m ! 5.g.g.g.g.g.g.6.J.W.W.W.W.W.W.W.W.R.F.F.z.6.f.f.f.x.f.g.6.x.f.g.g.f.f.X./ j.j.g.g.! J J H ! 4.",
"0.0.0.0.7.9.0.0.0.0.0.0.0.0.0.M v ! g.b.g.f.x.g.6.J.W.W.W.W.R.R.T.T.R.R.R.F.f.f.f.f.g.6.f.g.g.f.g.g.f.g.r.2.4.j.j.j.6.5.5.6.3.w.",
"0.0.0.0.0.0.0.0.0.0.0.0.0.0.9.M u n ~ h.f.f.f.f.6.K.W.W.W.W.A.a.n.u.a.n.R.R.D.s.s.f.6.j.f.f.f.f.s.f.6.6.y.7.w.0.4.r.r.w.t.w.w.0.",
"0.0.0.0.0.0.0.0.0.0.9.0.0.0.9.E n u P h.f.f.f.6.6.B.H.H.H.H.e.[ 7.7.[ 0.G.v.O.T @.g.6.x.f.f.f.6.f.6.g.g.y.{ 0.0.9.0.0.8.0.0.0.0.",
"0.0.0.0.0.0.0.0.0.0.0.0.0.9.0.$.H u P h.g.f.f.x.g.y.2.{ 7.8.0.0.0.0.0.0.0.N b u H g.g.g.f.f.x.k.j.6.6.6.0.8.0.0.0.0.0.0.0.0.0.0.",
"0.0.0.0.0.0.0.0.0.0.0.0.0.7.[ $.M u P 6.g.g.6.g.s.y.0.0.0.0.0.0.0.0.0.0.0.N v v J 6.g.g.f.f.g.6.6.6.j.y.0.0.0.0.0.0.0.0.0.0.0.0.",
"0.9.7.0.0.0.0.0.0.0.0.0.0.0.0.$.Z u m ! f.f.f.j.g.y.0.0.0.0.0.0.0.0.0.0.0.N b u J h.j.6.6.f.f.f.6.6.5.r.0.0.0.0.0.0.0.0.8.0.0.0.",
"0.0.0.0.0.0.0.7.0.0.0.0.0.0.9.$.M v u M 5.6.f.6.s.y.0.0.0.0.0.0.0.0.0.8.0.Q M u M @.g.g.x.f.f.f.g.s.j.r.0.0.0.0.0.0.0.0.0.0.0.0.",
"0.0.0.0.0.0.0.0.0.0.0.0.0.0.0.$.H u b M *.5.j.6.g.y.0.0.0.0.0.0.0.0.0.0.0.0.U u b m >.6.6.6.f.f.f.j.f.y.0.8.w.0.0.0.9.0.0.0.0.0.",
"0.0.0.0.0.0.0.0.0.9.0.0.0.0.9.$.Z v u N 1.j.j.6.5.y.0.0.0.0.0.0.0.0.8.9.0.e.U u b b m 5.g.z.g.g.f.f.6.j.t.0.0.0.0.0.8.0.0.0.0.0.",
"0.0.0.0.9.0.0.0.0.0.0.0.0.0.0.$.M b u N 2.g.5.j.s.y.0.7.0.0.0.0.0.0.0.0.0.0.` Z u b b J <.6.6.f.f.f.6.g.s.r.8.0.0.0.0.0.0.0.0.0.",
"0.0.0.0.7.0.0.0.0.0.0.0.0.0.0.! m u u N 1.y.x.f.j.y.8.0.0.0.0.0.0.0.0.0.0.0.1.~ M b u u X.5.k.6.x.f.f.s.j.s.0.8.0.0.0.0.0.0.0.0.",
"0.0.7.0.9.8.0.0.0.0.0.0.0.0.7.M v b b V 0.w.m.z.g.y.0.0.{ 0.0.0.0.0.0.9.0.9.0.1.! n b b u X.5.j.j.s.s.g.g.g.s.0.0.0.0.0.0.0.0.0.",
"0.0.0.0.0.0.0.0.0.0.0.0.0.0.7.M v u B [ 0.0.V.z.s.y.0.0.0.0.0.0.0.0.8.0.0.0.0.9.&.! b v v n W e.4.s.6.6.5.6.6.y.0.0.0.0.2.0.0.0.",
"0.0.0.0.0.0.0.0.0.0.0.0.0.9.%.M v u U w.0.0.V.N.j.s.t.0.0.0.0.0.0.0.0.0.0.0.0.0.0.&.W n v u M Q 0.t.2.r.b.b.6.y.0.0.0.0.0.9.0.0.",
"0.0.0.0.0.0.0.0.0.0.0.0.9.9.o.m b u K w.0.0.V.j.g.s.y.0.0.0.0.0.0.0.0.0.0.0.0.0.0.0.{ K n b u B 0.8.0.0.m.N.6.s.0.0.0.0.0.0.0.0.",
"0.0.0.0.0.0.0.0.0.0.0.0.8.9.o.m v u K w.0.0.V.z.g.5.y.0.0.0.0.0.0.0.0.0.0.0.0.0.0.0.0.[ N u u B 0.8.0.8.m.B.5.6.0.0.2.0.0.0.0.0.",
"0.0.0.0.0.0.7.0.0.0.0.0.0.[ M b b u V w.0.0.V.j.g.j.s.8.0.0.0.0.0.0.0.0.0.0.0.0.0.0.0.0.N u u B 0.0.0.0.m.N.j.3.0.8.8.0.0.0.0.0.",
"9.0.0.0.0.0.0.0.0.0.0.0.8.[ n u b u K 0.0.0.u.b.h.g.5.0.8.0.0.0.9.0.0.0.0.0.0.0.0.0.0.&.N u N ) 0.0.0.r.b.N.6.6.0.0.0.0.0.0.0.0.",
"8.0.0.0.0.0.0.0.0.0.0.0.0.' n b v v K w.0.0.9.m.N.6.g.0.0.0.0.0.8.0.0.0.0.0.0.0.0.1.1.X.m u E e.0.0.0.s.j.g.6.6.0.0.0.0.0.0.0.0.",
"0.0.0.0.0.0.0.0.0.9.0.0.9.o.b b b b U 8.0.0.0.m.N.j.y.0.0.0.0.0.0.0.0.0.8.0.9.0.1.o.o.m b b E 0.0.0.2.j.6.j.6.6.0.0.0.0.0.0.0.0.",
"0.0.8.0.0.0.0.0.0.0.0.0.1.o.n b b V [ 8.0.8.0.m.N.6.6.0.0.0.8.0.0.0.0.0.0.0.&.%./ M M b u P { 8.0.0.3.6.6.6.y.w.0.0.0.0.0.0.0.0.",
"0.0.0.0.0.0.0.0.0.8.^ T %.J n u u W w.2.0.0.8.b.h.5.s.8.0.0.0.0.0.0.0.0.0.0.T D H v v v K ' e.8.0.0.j.5.6.6.s.7.0.0.0.0.0.0.0.0.",
"0.0.0.0.0.0.0.0.0.w.x q L u y u m Q w.0.0.0.e.j.g.g.y.0.0.0.0.0.0.0.0.0.0.w.k 4 u y y M ' 8.0.2.2.0.6.6.5.j.3.0.0.0.0.0.0.9.0.0.",
"0.0.8.0.0.8.0.0.0.w.C % 8 u 3 y ( 2.0.0.2.r.V.g.g.6.6.0.0.0.0.0.0.0.0.0.0.w.z 6 y , 3 ` 0.0.0.2.4.6.g.s.j.3.0.0.0.0.0.0.0.0.0.0.",
"0.9.0.0.0.0.0.0.0.0.` Y R Q R Q 1.w.0.0.w.V.L.N.f.*.E 0.0.0.0.0.0.0.0.0.0.0._ ^ Q T T [ 0.0.0.%.! 6.x.x.j.y.0.0.0.0.0.0.0.0.0.0.",
"0.0.0.0.0.0.0.0.0.0.w.w.w.w.w.w.0.0.0.0.w.B.;.5.;.! W 0.0.0.0.0.0.0.0.0.0.0.8.e.w.w.i.0.0.0.r.) m 5.@.5.s.0.0.0.0.0.0.0.0.0.0.0.",
"0.0.0.0.0.0.0.0.0.0.0.0.0.0.0.0.0.0.0.r.2.5.H *.! E 0.0.0.8.8.0.0.0.0.0.0.0.0.0.0.0.{ 0.0.0.w.) Z 5.m *.t.8.0.0.0.0.0.8.0.9.0.0."
};
