/* XPM */
static char *f8cd2ab35d084fc4e5d612dded5c9f89eTPWmIHsf0yaoTYy[] = {
/* columns rows colors chars-per-pixel */
"64 64 125 2 ",
"   c #000000",
".  c #080700",
"X  c #0B0900",
"o  c #110F01",
"O  c #151101",
"+  c #1A1601",
"@  c #221D01",
"#  c #272002",
"$  c #2B2402",
"%  c #332B02",
"&  c #382F02",
"*  c #3D3302",
"=  c #413703",
"-  c #493D03",
";  c #4E4103",
":  c #524503",
">  c #564903",
",  c #5B4C04",
"<  c #5F5004",
"1  c #645404",
"2  c #685704",
"3  c #6A5904",
"4  c #715F04",
"5  c #736105",
"6  c #7A6605",
"7  c #7C6905",
"8  c #DC0714",
"9  c #DC0A14",
"0  c #DC1215",
"q  c #DD1C14",
"w  c #D92316",
"e  c #D82917",
"r  c #D82B18",
"t  c #D73419",
"y  c #D53E1A",
"u  c #E02713",
"i  c #E12B12",
"p  c #E23412",
"a  c #E43B11",
"s  c #836E05",
"d  c #867105",
"f  c #8B7506",
"g  c #8F7806",
"h  c #947C06",
"j  c #D5431A",
"k  c #D44B1B",
"l  c #D3531C",
"z  c #D25B1D",
"x  c #E54411",
"c  c #E64D11",
"v  c #E75310",
"b  c #E85B10",
"n  c #CF6E1F",
"m  c #D0651E",
"M  c #D06A1F",
"N  c #CF701F",
"B  c #EA660F",
"V  c #ED7B0E",
"C  c #E96210",
"Z  c #CE7520",
"A  c #CE7B21",
"S  c #9C8306",
"D  c #A18706",
"F  c #A58B07",
"G  c #A98E07",
"H  c #AD9107",
"J  c #B29607",
"K  c #B69907",
"L  c #BA9C07",
"P  c #BD9F08",
"I  c #BFA008",
"U  c #EE820E",
"Y  c #F08F0D",
"T  c #F1940D",
"R  c #F29B0D",
"E  c #C4A408",
"W  c #C7A808",
"Q  c #CDAC08",
"!  c #D0AF08",
"~  c #D4B208",
"^  c #DAB709",
"/  c #DDBA09",
"(  c #F3A30C",
")  c #F4AB0C",
"_  c #E2BE09",
"`  c #F5B40C",
"'  c #F7BD0B",
"]  c #CD8021",
"[  c #CD8121",
"{  c #CD8221",
"}  c #CC8622",
"|  c #CC8722",
" . c #CC8822",
".. c #CC8922",
"X. c #CC8A22",
"o. c #E4C009",
"O. c #E7C209",
"+. c #EAC409",
"@. c #EBC609",
"#. c #EDC709",
"$. c #EFC90A",
"%. c #F7C10B",
"&. c #F8C40B",
"*. c #F8C60B",
"=. c #F1CB0A",
"-. c #F3CC0A",
";. c #F5CE0A",
":. c #F9C90A",
">. c #F8C80B",
",. c #F9CB0A",
"<. c #FACF0A",
"1. c #F7D00A",
"2. c #F8D10A",
"3. c #FAD00A",
"4. c #FAD10A",
"5. c #FBD20A",
"6. c #FAD30A",
"7. c #FBD30A",
"8. c #FAD40A",
"9. c #FAD50A",
"0. c #FCD40A",
"q. c #FDD40A",
"w. c #FDD50A",
"e. c #FED50A",
"r. c #FFD80A",
/* pixels */
" . . . . . . . . . . . . . . . . . . . . . . . . . .N M z l k j j k l z M Z {  .|  . . .X. .X. . . . . . . . . . . . . . . . . .",
" . . . . . . . . . . . . . . . . . . . . . .A z j r q q 9 9 9 9 9 9 9 9 0 q r j z Z  . . . .X.X. . . . . . . . . . . . . . . . .",
" . . . . . . . . . . . . . . . .|  . .{ m t q 9 8 8 8 9 9 9 9 9 9 9 9 9 9 9 9 8 9 q t m N X.X.X. . . . . . . . . . . . . . . . .",
" . . . . . . . . . . . . . . . . .A l w 9 8 9 9 9 9 9 9 9 9 9 9 9 9 9 9 9 9 9 9 9 9 9 9 e l N X.X. . . . . . . . . . . . . . . .",
" . . . . . . . . . . . . . . .{ l w 9 9 9 9 9 9 9 9 9 9 9 9 9 9 9 9 9 9 9 9 9 9 9 9 9 9 9 9 q l A X. .|  . . . . . . . . . . . .",
" . . . . . . . . . . .X. . .M r 9 9 9 9 9 9 9 9 9 9 9 9 9 9 8 9 8 9 9 9 9 9 9 9 9 9 9 9 9 9 9 9 e N  . . . . . . . . . . . . . .",
" . . . . . . . . . . .X.{ k q 8 9 9 9 9 9 9 9 9 9 8 9 9 q u p p p p u q 9 9 9 8 9 9 9 9 9 9 9 9 9 0 k {  . .|  . . . . . . . . .",
" . . . . . . . . . . .A t 9 9 9 9 9 9 9 9 9 8 9 w v V R ` ' *.:.:.:.%.` R V v u 9 9 9 9 9 9 9 9 9 8 9 t A  . . . . . . . . . . .",
" . . . . . .X. . .X.Z e 8 9 9 9 9 9 9 9 8 q c Y ' <.8.6.6.6.6.6.5.5.6.8.6.6.<.' T v q 8 8 9 9 9 9 9 9 9 e N  . . . . . . . . . .",
" . . . . . . .X. .N w 8 9 9 9 9 9 9 8 q b ( <.6.6.6.8.6.6.<.6.6.5.5.6.8.6.6.6.6.6.<.) b q 9 9 9 9 9 9 9 9 w M  . . . . . . . . .",
" . . . . . .X.X.Z w 9 9 9 9 9 9 8 9 x ( 6.8.6.6.6.6.6.<.6.6.<.6.<.6.6.6.<.6.<.6.6.<.e.6.) c 9 8 9 9 9 9 9 9 q Z  . .X. . . . . .",
" . . . . . . .A e 9 9 9 9 9 9 9 q V :.6.5.5.6.6.6.<.6.6.<.6.6.6.6.6.6.<.6.6.6.6.6.6.6.6.e.:.V q 9 9 9 9 9 9 9 e Z X. . . . . . .",
" . . . . .X.{ t 9 9 9 9 9 9 8 i R 6.6.6.<.6.<.6.6.6.6.6.<.6.6.6.6.6.<.6.6.6.<.6.6.<.6.6.6.6.6.( t 8 9 9 9 9 9 9 t A X. . . . . .",
" . . . .X. .k 9 9 9 9 9 9 9 p ` 6.6.6.6.6.6.6.6.6.<.6.<.6.6.6.<.6.<.6.6.6.<.6.6.6.6.<.6.6.<.6.6.` a 8 9 9 9 9 9 9 k  . . . . . .",
" . . . . .M q 9 9 9 9 9 9 p ` 8.<.6.<.6.6.6.<.6.<.6.6.6.<.6.6.6.6.6.6.6.6.6.6.6.6.6.6.6.6.6.6.6.8.` a 9 9 9 9 9 9 0 M X. . . . .",
" . . . .A r 8 9 9 9 9 9 i ` 8.6.6.6.6.6.6.<.6.6.6.6.6.<.6.6.6.6.6.<.6.<.6.<.6.<.<.6.<.6.6.<.6.<.6.6.` p 9 9 9 9 9 9 e A  . . . .",
" . . . .l 9 9 9 9 9 9 q R e.6.5.6.5.6.6.6.6.6.6.6.e.6.e.6.6.6.6.5.6.e.5.6.6.6.6.5.6.6.6.6.6.e.6.e.6.8.( u 8 9 9 9 9 9 k  .X.X.X.",
" . . .A w 9 9 9 9 9 9 V 6.6.<.J , f #.E f -.h K -.h > S +.7 1 1 4 _ P , 7 +._ 6 ^ 6.+.s ! +.s , J 6.6.6.U 9 9 9 9 9 9 q N  .X.X.",
" . .X.l 9 9 9 9 9 8 x *.6.5.~ # > @ h h * #.- s H @ , @ F h % # f E $ > % 4 ~ O s e.K X J s $ > @ ~ 6.6.:.c 8 9 9 9 9 9 k X.X. .",
" .X.A w 9 9 9 9 9 q ( 6.6.e.K $ _ h h h * -.- s 6 : 6.6 F e.3 1 e.L $ _ f - Q o * -.3   J : 7 -.2 E 5.6.e.( q 8 9 9 9 9 q A  . .",
" . .m 9 9 9 9 9 8 b <.6.6.e.K % _ 6.6.h = #.- f S # F O.8.e.3 1 e.K $ +.f - Q + O G % X J 5 & L #.6.6.6.6.<.B 8 9 9 9 9 9 z X.X.",
" .| t 9 9 9 9 9 q ) 6.6.6.5.K $ _ 5.e.h * #.- s -.5 @ ; / e.3 , e.K # _ f - Q $ * # & @ J _ , @ 2 #.5.6.6.6.` q 9 9 9 9 9 t  . .",
"X.Z q 9 9 9 9 9 c <.6.6.6.5.K $ _ 5.5.h * #.- s 6.1.~ $ h r.4 , 6.K $ +.f - Q $ 7 X 4 % J 5.<.L @ L e.6.6.<.<.v 8 9 9 9 9 q Z  .",
"X.z 9 9 9 9 9 9 Y 8.<.6.5.e.K $ _ S S h * #.- f S h 6.- s r.3 , 5.K $ O.f - Q $ J - H % G s J #.$ H e.6.6.6.8.T 9 9 9 9 9 9 z  .",
"X.j 9 9 9 9 9 u ' 6.6.6.<.5.~ @ 1 $ f L @ 1 @ H h @ 3 @ H e.3 > e.~ @ , % 5 ~ @ W _ / $ H 3 % 1 @ ! 6.6.6.6.6.' r 9 9 9 9 9 y | ",
" .r 8 9 9 9 9 v <.6.6.6.6.6.6.G : 7 #.-.h ; h -.#.s ; f -.5.F S 6.5.J > 4 _ _ 6 ^ e.#.6 ! _ 3 : F 6.6.<.<.6.6.6.v 9 9 9 9 9 w { ",
"Z q 9 9 9 9 8 V 6.6.<.6.6.6.6.e.6.5.6.6.e.6.e.5.5.5.6.6.5.6.8.5.6.5.5.6.e.5.6.6.5.6.6.6.6.e.5.6.5.6.6.6.6.6.6.6.U 9 9 9 9 9 q N ",
"M 0 9 9 9 9 9 R 8.<.6.6.6.6.e.e.5.e.e.5.5.e.e.5.e.5.6.e.e.e.5.5.5.5.e.e.e.5.e.5.e.5.5.e.5.5.5.e.5.5.6.6.<.6.6.6.( 0 9 9 9 9 0 m ",
"z 9 9 9 9 9 q ` 6.6.6.6.5.+.D 5 5 4 5 5 4 5 5 5 5 5 5 5 4 5 5 5 5 5 5 5 4 5 5 5 5 5 4 5 5 5 5 5 5 D _ e.6.6.<.6.` q 9 9 9 9 9 z ",
"l 9 9 9 9 9 u ' 6.6.5.5.^ -                                                                         = ^ 6.6.6.6.*.i 9 9 9 9 9 k ",
"k 9 9 9 9 9 t *.6.6.6.6.4                                                                             2 6.6.6.6.:.a 8 9 9 9 9 j ",
"j 9 9 9 9 8 p :.6.6.6.+.%                                                                             $ +.5.6.6.:.a 8 9 9 9 9 y ",
"j 9 9 9 9 8 p :.6.6.6.+.%                                                                             $ _ 5.5.6.:.a 8 9 9 9 9 y ",
"k 9 9 9 9 9 p *.6.<.6.6.3                                                                             1 <.6.6.6.:.a 8 9 9 9 9 j ",
"k 9 9 9 9 9 i ' 6.6.6.6./ =                                                                         * ^ 5.6.6.6.*.u 9 9 9 9 9 k ",
"z 9 9 9 9 9 q ` 6.6.6.6.e.O.h 3 3 2 3 2 2 2 2 2 2 2 2 2 2 2 3 3 2 2 2 2 2 3 2 2 2 2 2 2 2 3 2 2 3 h _ 6.6.6.6.6.` u 9 9 9 9 9 l ",
"M 0 9 9 9 9 0 R 6.6.6.<.<.e.e.e.e.5.5.5.5.e.5.5.e.6.5.5.6.6.6.5.5.5.5.6.e.5.5.e.8.e.6.6.5.e.e.e.e.e.5.6.6.6.6.6.( 0 9 9 9 9 0 m ",
"A q 9 9 9 9 9 V 8.6.6.6.6.6.6.<.6.6.5.e.5.6.6.e.e.e.5.6.8.6.5.6.5.6.5.6.e.6.6.6.<.e.<.e.6.6.6.5.6.6.6.<.6.<.6.8.U 9 9 9 9 9 q Z ",
"{ e 9 9 9 9 9 v <.6.6.<.6.6.<.6.6.E 1 1 G 6.-.S , h -.W d -.S F e._ 7 / e.H h -.F D _ 5 1 1 K 5.6.6.<.6.6.6.6.6.b 8 9 9 9 9 w A ",
"| j 8 9 9 9 9 w ` 6.6.6.<.6.6.6.5.h + 1 @ P J @ 1 @ G G % +.> 4 r.J . H e.5 + / 2 < Q + 1 6 E 6.6.6.6.6.6.<.6.' i 8 9 9 9 9 y  .",
" .z 9 9 9 9 9 9 T <.6.6.6.6.<.6.e.h = #.= h s - -.: 7 G % +., 4 r.f   6 r.6   S 2 1 Q $ ~ e.e.6.6.6.6.6.6.6.8.T 0 9 9 9 9 8 l  .",
" .N q 9 9 9 9 9 v <.<.6.6.<.6.6.e.h = #.- f s ; -.> 7 G & +., 5 6.> % : -.6   : 1 1 Q @ H ~ -.6.<.6.<.6.6.6.8.b 8 9 9 9 9 q A  .",
" . .t 9 9 9 9 9 q ) 6.6.6.6.6.6.e.h = #.- f s ; <.> 7 G % +., 5 O.* s & _ 6 % & & 2 Q + @ * ! 5.6.6.6.<.6.6.` q 9 9 9 9 8 t | | ",
" .X.m 9 9 9 9 9 9 b 6.6.6.<.<.6.e.h = -.- f d ; -.> 6 G % +., 5 W @ 7 @ E 6 : ,   2 Q # K ^ -.6.<.6.6.6.<.6.C 9 9 9 9 9 9 z  .| ",
" .X.A w 9 9 9 9 9 q ( e.6.6.6.6.5.h - -.- f d - <.: 7 G % +.> 6 S o & o h 6 > G   2 Q $ ~ e.8.6.6.<.6.6.5.) q 9 9 9 9 9 q A  . .",
" .X.X.k 9 9 9 9 9 9 c :.6.6.<.6.e.h + 2 @ P H @ 1 @ F E @ 1 @ S 2 > #., , 4 > _ # 1 Q + , 4 P e.6.6.6.6.6.v 9 9 9 9 9 9 k  . . .",
" . . .A w 9 9 9 9 9 9 V 6.<.6.<.5.P , 1 D -.-.h : f -.-.D : d #.f G e.J f D h <.h S / 2 > > K 5.6.6.<.6.U 9 9 9 9 9 9 q Z  . . .",
" . . . .l 9 9 9 9 9 9 q ( 8.6.6.6.6.6.5.5.6.6.6.6.e.6.6.e.-.5.5.6.6.6.6.<.6.6.6.e.6.6.6.e.6.6.6.6.8.8.( w 9 9 9 9 9 9 k X. . . .",
" . . . .A r 9 9 9 9 9 9 p ` 6.6.<.6.6.6.6.6.<.6.6.6.6.6.<.6.6.6.6.<.6.<.6.<.6.<.<.6.<.6.6.<.6.6.6.6.` p 9 9 9 9 9 8 e A  . . . .",
" . . . . .M 0 9 9 9 9 9 9 a ` 8.6.6.6.<.6.<.6.6.6.<.6.<.6.6.6.<.6.6.6.6.6.6.6.6.6.6.6.6.6.6.6.6.6.' x 9 9 9 9 9 9 0 m  . . . . .",
" . . . . . .k 9 9 9 9 9 9 9 a ` 8.8.5.5.6.6.6.6.<.6.6.6.<.6.<.6.6.<.6.6.6.<.6.6.6.6.<.6.6.<.6.8.` x 8 9 9 9 9 9 9 k |  . . . . .",
" . . . . . .| t 9 9 9 9 9 9 9 p ( 8.5.5.6.<.6.<.6.6.6.<.6.6.6.6.6.6.<.6.6.6.<.6.6.<.6.6.6.6.5.( p 8 9 9 9 9 9 8 t A | |  . . . .",
" . . . . . . .Z e 8 9 9 9 9 9 9 q U :.5.<.6.6.6.6.6.<.6.6.6.<.6.6.6.6.<.6.6.6.6.6.6.6.6.6.-.U w 9 9 9 9 9 9 9 e Z  . . . . . . .",
" . . . . . . . .n w 8 9 9 9 9 9 9 9 c ) 6.6.6.6.6.<.6.6.6.<.6.6.<.6.6.6.<.6.<.6.6.<.6.<.) v 0 9 9 9 9 9 9 9 q N X. . . . . . . .",
" . . . . . . . . .n w 8 9 9 9 9 9 9 8 q C ) <.6.6.6.6.8.6.6.6.6.6.6.6.<.8.8.6.6.6.<.) B q 9 9 9 9 9 9 9 8 w M  . .X. . . . . . .",
" . . . . . . . .|  .n e 9 9 9 9 9 9 9 9 9 q b T ' 6.6.8.6.6.6.<.6.6.6.6.8.8.6.%.T b u 9 9 9 9 9 9 9 9 9 w M  . . . . . . . . . .",
" . . . . . . . . . . .N t 9 9 9 9 9 9 9 9 9 9 0 i v V ( ` *.:.<.:.:.%.` ( U b i 0 8 8 9 9 9 9 9 9 9 9 t Z  . . . . . . . . . . .",
" . . . . . . . . . . . .| k 0 9 9 9 9 9 9 9 9 9 9 9 9 0 u i p a a p u u 0 9 9 9 9 9 9 9 9 9 9 9 9 9 k A X. . . . . . . . . . . .",
" . . . . . . . . . . . .X.X.M e 9 9 9 9 9 9 9 9 9 9 9 9 8 8 9 9 9 9 8 9 9 9 9 9 9 9 9 9 9 9 9 9 e m  . . .X. . . . . . . . . . .",
" . . . . . . . . . . . .X.X.X.N l q 9 9 9 9 9 9 9 9 9 9 9 9 9 9 9 9 9 9 9 9 9 9 9 9 9 9 9 9 q k A X. . . . . . . . . . . . . . .",
" . . . . . . . . . . . .X.X. .X. .A k w 9 9 9 9 9 9 9 9 9 9 9 9 9 9 9 9 9 9 9 9 9 9 9 8 q k Z X.X. . . . . . . . . . . . . . . .",
" . . . . . . . . . . . . . . . . . . .A z t 0 9 9 9 9 9 9 9 9 9 9 9 9 9 9 9 8 9 9 0 t z A  .X. . . . . . . . . . . . . . . . . .",
" . . . . . . . . . . . . . . . . . . . . .| Z z j w 0 0 9 9 9 8 9 9 9 9 0 0 w y z Z  .X.X.X. . . . . . . . . . . . . . . . . . .",
" . . . . . . . . . . . . . . . . . . . . . . .| | { Z m l k j j j j k l m Z {  . . . . . . . . . . . . . . . . . . . . . . . . ."
};
