/* XPM */
static char *_a7479c3f1e947fcb2ae3363f28bd4f5A0yXd0Ix8RASTBQd[] = {
/* columns rows colors chars-per-pixel */
"64 64 99 2 ",
"   c #4F2C16",
".  c #532E16",
"X  c #553117",
"o  c #5D3517",
"O  c #563018",
"+  c #5C3419",
"@  c #603717",
"#  c #623A17",
"$  c #61371A",
"%  c #653A1A",
"&  c #6C3D1D",
"*  c #703F1E",
"=  c #643C22",
"-  c #6A3F23",
";  c #6D4119",
":  c #73411E",
">  c #774819",
",  c #7C4D1A",
"<  c #7F501A",
"1  c #5E4636",
"2  c #6D4124",
"3  c #62432F",
"4  c #714020",
"5  c #734120",
"6  c #734220",
"7  c #754221",
"8  c #764321",
"9  c #774421",
"0  c #784320",
"q  c #784421",
"w  c #794421",
"e  c #7B4521",
"r  c #614430",
"t  c #624430",
"y  c #634430",
"u  c #654530",
"i  c #804F1B",
"p  c #82511B",
"a  c #82521A",
"s  c #85531B",
"d  c #86541B",
"f  c #87541B",
"g  c #87561B",
"h  c #89561B",
"j  c #89571B",
"k  c #8A561B",
"l  c #8A571C",
"z  c #8B571C",
"x  c #8B591B",
"c  c #8C591B",
"v  c #8D5A1B",
"b  c #8F5B1B",
"n  c #925D1C",
"m  c #945E1C",
"M  c #95601C",
"N  c #97611C",
"B  c #96601D",
"V  c #98621C",
"C  c #99621D",
"Z  c #99631D",
"A  c #9B641D",
"S  c #9F681E",
"D  c #A0671D",
"F  c #A1681D",
"G  c #A56B1D",
"H  c #A46B1E",
"J  c #A76C1E",
"K  c #AA6F1E",
"L  c #AB6F1E",
"P  c #AC701F",
"I  c #AD711F",
"U  c #AE721F",
"Y  c #AE731F",
"T  c #B0741F",
"R  c #B2751F",
"E  c #B3761F",
"W  c #B4771F",
"Q  c #B37620",
"!  c #B47720",
"~  c #B67820",
"^  c #BC7C20",
"/  c #BE7E20",
"(  c #C07F21",
")  c #C17F21",
"_  c #C18021",
"`  c #C38121",
"'  c #C48221",
"]  c #C58321",
"[  c #C68421",
"{  c #C78421",
"}  c #C78521",
"|  c #C78422",
" . c #C88521",
".. c #C98522",
"X. c #CA8622",
"o. c #CB8722",
"O. c #CB8822",
"+. c #CC8822",
"@. c #CD8922",
/* pixels */
"+.+.+.+.+.X.J V V V M M M M V J X.o.+.+.+.+.+.+.X.> o @ o @ @ @ @ o @ b X.o.+.+.+.+.+.+.+.X.b > ; > > ; > > > W O.O.+.+.+.+.+.+.",
"+.+.+.+.+.X.m k k k x k x x k m  .o.+.+.+.+.+.+.] > @ @ $ $ @ o @ $ o k ' o.+.+.+.+.+.+.X.X.x ; ; ; ; ; ; ; ; R O.O.+.+.+.+.+.+.",
"+.+.+.+.+.' > : : : : : > : % > ] o.+.+.+.+.+.+.] ; $ % % $ % o % $ O s X.+.+.+.+.+.+.+.+.X., % % % ; ; & % o I O.O.O.+.+.+.+.+.",
"+.+.+.+.+.W # % & & & & & & o # ) +.+.+.+.+.+.+.X.; % & & $ & & & $ . i X.+.+.+.+.+.+.+.+.[ > % & & & & & % X I O.O.+.+.+.+.+.+.",
"+.+.+.+.+.' # : : 7 7 0 : 7 $ &  .o.o.+.+.+.o.o.] ; & 0 7 : 7 : e : X s [ +.+.+.+.o.+.+.X.X., & 9 : : 7 7 : + Q X.+.+.+.+.+.+.+.",
"+.+.+.X.+.[ ; : e 0 e 0 : > % ;  .X.o.+.+.+.+.o.} ; & e e e e : e : X x X.X.+.+.O.X.+.+.+.[ a : e 9 e e 9 : o Q X.+.+.O.+.+.+.O.",
"+.X.X.X.X.` % : 7 7 7 : 7 0 o ; ) X.X.X.o.X.X.' ` ; & : 9 e 7 : 0 : O n ' X.X.[ X.X.[ X.X.' f : 7 7 9 7 e : o I }  .[ X.[ [ X.[ ",
"/ I K K K J # & & & * & - ; o % H K K L L K L L J % % ; & & & & : & X , K L L K L K K K K K : & & & & & & & + B K P K P I P I I ",
"D , > > , : o $ $ $ $ $ + $ + + : > > > > > > > > + + $ $ + $ $ # + + & > > > > > > > > 7 > # o $ $ $ $ $ $ + : > > > > > > > , ",
"b @ % $ # $ $ $ $ $ $ $ $ $ $ $ % $ # # % # $ % $ $ $ $ $ $ $ $ $ $ $ # $ % @ % # % $ # % % % % $ $ $ $ $ $ % $ % # % % % @ % # ",
"k $ : * * * : & : - * * & * * - & & & & & * * * 5 : * * 5 * 5 : & * 5 5 : : * : * * * * : & : & * * : 7 * 7 * 7 & * * 7 * * & @ ",
"k % e : 7 0 7 9 * * * : * 7 0 * 7 9 7 9 & 0 : 0 7 7 0 0 9 7 0 0 e e 7 e e e : 0 e 0 e e e e e e 7 7 e 0 e : e e : , e 0 e 0 * @ ",
"d % 0 7 7 : 9 & & % & & * 7 : : : : : 7 : : 9 : e e 7 : 9 * * & : : 7 : : e 0 e : 0 9 7 : e 0 7 : 7 : : * * : * 7 7 7 : * e * @ ",
"k % e : 7 7 7 & & = + & 0 * * 0 : 7 7 & 9 : 7 7 7 : : 7 7 5 - - : : : : 7 7 e : 7 0 : 7 : 7 * * * * * - * & : * & : : 7 : e * @ ",
"k % e 7 0 e e 7 * 1 1 * e 0 e 0 e 7 9 e 0 0 e 7 0 e e 7 7 * t t 7 9 7 7 : 7 9 e : 0 7 * * : * * * * t t & & & & & & 7 7 7 0 * % ",
"s % e e e e 0 0 7 t t 5 7 e 0 e e 7 e 7 e e e 7 e e e : 0 * 3 t 7 7 : e e 7 : : 7 : : 9 : 7 : 7 7 7 t t & - & & & : 0 : 7 0 * @ ",
"k % e e 7 e e : 0 - = 0 0 0 7 : 9 : 9 : 7 7 : > e 7 7 9 9 7 2 - : e 7 e : 7 9 : e e e 9 0 e e 0 e 7 2 = * e * * e * - e e e - - ",
"d % 7 e e e e 7 0 * - 7 0 0 9 7 9 7 7 7 9 : 7 7 7 * 9 & 0 7 & & e e : : e : e e 7 e 7 e e 0 e 0 7 0 - & * e i e e e e e e e * $ ",
"k % : e e : : e 0 0 0 * 7 0 7 9 : 7 9 7 : 7 7 * 7 9 * * 7 7 7 e : e e 9 e e e 9 e e e e 7 e 0 0 * 7 & : e e i * e e e i e e * $ ",
"d $ & & & & : : * * * * & & & & & & & * : - 7 & * * * * & : : & : : 7 e : 7 7 7 7 9 7 7 9 e 0 * * * : * * * * i e e e * e e * $ ",
"f + + + o + + o + + $ $ $ $ $ # o $ $ % % % % % % % % % % % $ & & & & & ; 2 & & & & & & 2 & * * * * & - * * * * e * * * * * * $ ",
"B ; % ; ; & X + O + O O + + + # & % & & & & # & & $ + $ $ + $ + o + + % % % % % % % % % & % % $ & $ & $ % % & % * % * % - & $ $ ",
"! V V V V V o % $ $ $ % $ $ . : f f f h i i i , i $ O + + + + O + O . % % % % # # o + % o o + X O O O O O O O O + O X X O O O $ ",
"O.~ ! ^ / R % & & & & & & 2 O d H H H H V A A V V & + $ $ $ $ + o + . , < < , a , , , , , > # . O O O O O O . % & % & % @ $ $ * ",
"O.[ X.[ [ ' # : : : : : : : + V ! ' ` ` ` R ` ` W a % : : 7 & & : % O A Q ~ ! W ! ! P P P K b o & $ & & & % O h m V V A m b b n ",
"O.O.+.+.+.` ; : : : e 7 : e + F o.o.+.X.+.+.+.+.O.n & e e e 7 : 0 - o R +.+.+.+.+.+.X.X.X.' H % 0 * * * * - o H W W W R I Y I I ",
"+.+.+.+.+.' ; : : : e : : : O D +.+.+.+.+.+.+.+.[ b % 7 : e 9 : e - o ! +.+.+.+.+.+.+.+.O.X.I & 0 7 7 : 7 * o ! +.X.X.` ` ` ) ) ",
"+.+.+.+.O.` # : 5 5 e : : 5 O D O.+.+.+.+.+.+.+.X.x % e 7 e 7 & 0 & o Q +.+.+.+.+.+.+.+.+.X.I % 0 : 7 7 7 5 o ! +.+.+.+.+.+.+.+.",
"+.+.+.+.+.` ; : & 5 e * 7 7 O D X.+.+.+.+.+.+.+.[ x % 7 9 e 5 : 0 & o Q +.+.+.+.+.+.+.+.+.O.P % e * 7 7 0 * o ! O.+.+.+.+.+.+.@.",
"+.+.+.+.+.W % : 7 * 0 : 7 * . S X.+.+.+.+.+.+.+.X.x % e : 9 7 5 e & $ / +.O.+.+.+.+.+.+.+.o.P % 0 5 7 e 0 * o ! +.+.+.+.+.+.+.@.",
"+.+.O.+.+.' % : : & e : 9 : O F X.+.+.+.+.+.+.+.[ x % 7 7 e : : 0 & # R +.+.+.+.+.+.+.+.+.o.P & e & 7 9 : : # W  .+.+.+.O.@.+.+.",
"+.+.+.+.+.[ ; : : 5 0 7 : * O H O.+.+.+.+.+.+.+.X.b % 7 7 e : : 7 & % ` +.+.+.+.+.+.+.+.+.+.P & e : 7 : * * o W +.+.+.+.+.+.+.+.",
"+.+.@.@.+.X.& : 5 7 e 7 9 7 X K X.+.+.+.+.+.@.@.X.m % 0 * e e * 7 & % ) +.+.+.+.+.+.+.+.+.+.! % e 5 7 7 7 : o Q X.O.+.+.+.+.+.+.",
"' ' [ W ` W # : 5 * 7 5 7 & X K ' X.+.X.}  . .@.| m % 0 0 e * * e % # / +.+.+.+.@.+.@.@.+.+.~ % e 7 e : 9 5 + Q +.+.+.+.+.+.+.+.",
"H H H H J F % & & & : & & & X S W W W W W ` W ] ^ z $ * * e * * 7 & % ) @.+.+.+.+.+.+.+.@.+.~ % e e 9 9 7 5 + ! +.+.+.+.+.+.+.+.",
"d s s d d d o $ $ $ % $ $ $ . a A A A A V F D G D , o & - * % - * $ # K W W W W W W ~ R / ~ K # 5 & & : : & + K / / / / / / / +.",
"# o % ; % & X + O + + O + + . % & ; ; ; - & % & ; o O o + + + + $ . O , < , , a a a a k k k a o + % $ $ $ $ . h V V A A A S S W ",
"X   O o $ $ % o o o + + + + + + O o + O o o X @ o o + + o o + + + . o $ # % # % % % # ; ; ; ; O + + + + + + + : i a i i a , , R ",
"+ . $ 5 7 : : : * * : - * & * * * & & & * & - & & & = - & & & - & & & & & & : & & & & & & & * & = & $ & = $ $ * ; : & & ; # # H ",
"o X % e e 7 e e e e 0 7 0 0 0 0 : 9 7 e 0 * * * * 0 * * * 0 * * 7 : 7 9 : 9 : : : * * - * & 2 & * & * * & & * * & & & & & O . A ",
"o . % e 7 e e 7 9 9 9 9 : : * : : e * 0 * & & & - * * : e e 0 7 0 0 e e 0 e 0 e 7 9 9 5 : 7 : & - * 5 & : ; 5 : - * : 0 : + . A ",
"o . & e 7 7 : : 5 2 - & 7 : 7 * : * 7 * & & % & * - : : e * * * 0 e e 7 e e e 0 e e e e e 7 9 : & * 2 2 7 7 5 9 0 : 0 e 0 % + A ",
"o . % 7 : 0 e 7 9 t t e 9 e & 0 7 7 : 7 7 * * * * e e e : 0 u & e e e 7 e : : e e e 9 : : e e : & * t t 5 7 7 : 0 0 7 : 0 % . A ",
"o . % e e e : 9 9 1 1 : : 7 e 0 e 7 > 0 0 0 0 e 0 e & e e * u & 9 : 7 9 0 : e : : : e e 7 0 7 : * - 1 1 5 9 9 7 0 0 e 7 0 $ . F ",
"o . % e : : e : 9 1 1 : e 7 e : 0 : 0 7 0 7 0 7 e e * & e * - * : e 0 0 0 0 e 7 7 : : e : 9 e 7 : e t t 5 e 7 e 7 5 0 7 0 $ O A ",
"o . & 7 e 0 e e 9 t 1 : e e : e e 7 e 0 0 0 0 5 * e e e e * * * : 7 * 9 7 0 7 0 e e 9 9 : e : e i * u u 9 e e e e e e e 0 $ O S ",
"o . & e 7 e e e e 7 7 e e e e e e 0 e 7 7 0 0 7 * * * * * * * * : : : 7 : * 0 7 : 9 e 7 7 e e e e e 2 2 e 7 e e e e e e e $ O V ",
"o . % e : e 7 : 9 5 5 e 7 : 7 7 : : 0 * 5 * * & * * * * * * * * * * * & * & * * : : : : : : : 7 7 7 * * 5 : : 5 : : & : 5 + . A ",
"o . $ * * * * & & & & & & & & & ; & & 2 & & & & # % % $ $ % = % % % $ # % % % % % # & # % % % $ = = $ $ $ $ $ $ $ $ $ $ $ . . B ",
"o . o & % & % $ $ $ $ $ $ $ $ % % % % % % % % & # $ + $ + + $ $ + o $ & % % % % % & % % & & & + + + O + + + + % & % & * & % % J ",
"# O + o @ o O X . . O . . . + % % # % % % ; ; ; & # O + + + + + + X # : > > > > : > : < , , , % $ $ $ $ $ $ O e i f v v n b n Y ",
", , > > > > X X O O + O + O + , < < a a , d x d d > O $ o $ $ $ $ X & b b b n M n n n V S M V & % % = $ = % O m H K P L K Y R W ",
"I K K K I K # & & & & & & $ ; R ~ ~ ~ ~ ~ ~ ! / ~ A o 2 & * * * * $ > W W ( W ` W W ` ( ` / / , : & * * * * o H / ` [ ` ' ' ' [ ",
"X.X.[ X.[ ` % : & 5 e 7 0 & > X.@.@.+.+.+.+.+.+.O.I # 7 7 e 0 0 * $ d X.@.@.+.@.+.+.+.+.+.+.' i 5 e e e i * $ ! +.+.+.+.+.+.+.+.",
"X.+.+.+.X.[ % : 7 7 e 7 : % > X.+.+.+.+.+.+.+.O.O.I # 9 9 e e 0 0 $ k X.@.@.@.@.@.@.+.@.+.+.X.p e e e e e * $ ! +.+.+.+.+.+.+.+.",
"+.+.+.+.+.' ; : : 9 e 0 0 $ , ` +.+.+.+.+.+.+.+.O.I % 7 : 7 : e 0 $ z [ +.+.+.+.+.@.@.@.+.X.X.p * i * * * * $ ~ +.+.+.+.+.+.+.+.",
"+.+.+.+.+.) ; : : 7 e : e % , X.+.+.+.+.+.+.+.+.O.I # 5 9 w 9 w 0 $ k X.+.O.+.X.+.+.+.+.+.+.' a : : : 7 : : o W +.+.+.+.+.+.+.+.",
"+.+.+.+.+.` & : * 9 e 7 : % , X.+.+.+.+.+.+.+.+.X.I $ 9 9 w w w 0 $ b X.O.+.+.+.+.+.+.+.+.+.X.i : e e : e 7 o W +.+.+.+.+.+.+.+.",
"+.+.+.+.+./ % : 7 e e 7 e % , O.+.+.+.+.+.+.+.+.O.Q + e 9 w w w 0 $ m X.+.O.+.X.+.+.+.+.+.+.X.a e e e 9 e 5 o W +.+.+.+.+.+.+.+.",
"+.+.+.+.+./ # : : : 7 : 7 # , X.+.+.+.+.+.+.+.+.X.Q + 5 7 9 7 ; 7 o m X.+.+.+.+.+.+.+.+.O.+.[ a : 7 7 7 7 & X W +.+.+.+.+.+.+.+.",
"+.+.+.+.+.' # & & & & & & $ i X.+.+.+.+.+.+.+.+.O.Q X & ; & & ; & + B X.+.+.+.+.+.+.+.+.+.O.X., % & & & & % X I X.+.+.+.+.+.+.+.",
"+.+.+.+.+.W % # % % % % $ o s X.+.+.+.+.+.+.+.+.X.~ X % % o % % % + V [ +.+.+.+.+.+.+.+.+.O.X.d % % $ % % o o I X.+.+.+.+.+.+.+.",
"+.+.+.+.+.) % $ $ @ @ $ $ $ n X.+.O.+.+.+.+.O.+.O.~ ; # ; ; % # % % A X.+.+.+.+.+.+.+.+.+.+.X.n # # % # # # % W +.+.+.+.+.+.+.+.",
"+.+.+.+.+.' ; o @ o @ o o # B ' +.+.+.+.+.+.O.O.O.W ; # o ; ; ; ; # J X.+.+.+.+.+.+.+.+.+.+.X.B # # # $ # # ; R X.+.+.+.+.+.+.+."
};
