/* XPM */
static char *_a284bf7c5d344e39fffc5f5d2b14a85BtcdMJPHrOEvLFvk[] = {
/* columns rows colors chars-per-pixel */
"64 64 180 2 ",
"   c #783C2D",
".  c #4C433B",
"X  c #504138",
"o  c #70463A",
"O  c #494C48",
"+  c #544B43",
"@  c #584940",
"#  c #4E514D",
"$  c #55524C",
"%  c #5E544F",
"&  c #535551",
"*  c #5B5652",
"=  c #535955",
"-  c #5A5A55",
";  c #575D5A",
":  c #5B5E5A",
">  c #634D45",
",  c #694F46",
"<  c #6A534B",
"1  c #73574D",
"2  c #675751",
"3  c #665A54",
"4  c #645F5C",
"5  c #6D5C54",
"6  c #735950",
"7  c #5D615E",
"8  c #65655F",
"9  c #68625F",
"0  c #73665E",
"q  c #5F6360",
"w  c #636662",
"e  c #646966",
"r  c #6A6A65",
"t  c #646C6A",
"y  c #6A6E6A",
"u  c #696561",
"i  c #726C66",
"p  c #7C6B64",
"a  c #67716F",
"s  c #6D716D",
"d  c #73736D",
"f  c #7B726D",
"g  c #6D7472",
"h  c #737672",
"j  c #7A7571",
"k  c #757A75",
"l  c #7B7B75",
"z  c #757C7A",
"x  c #7B7E7A",
"c  c #805E53",
"v  c #926A5E",
"b  c #827067",
"n  c #83726A",
"m  c #8B776F",
"M  c #90766E",
"N  c #92786F",
"B  c #807F7D",
"V  c #77807F",
"C  c #7D817D",
"Z  c #83827D",
"A  c #928077",
"S  c #7C8482",
"D  c #7F8887",
"F  c #828582",
"G  c #898681",
"H  c #848985",
"J  c #8A8A85",
"K  c #858C8A",
"L  c #8B8D89",
"P  c #8D928F",
"I  c #94928B",
"U  c #8C9493",
"Y  c #929694",
"T  c #9A9693",
"R  c #929996",
"E  c #9B9A96",
"W  c #959C9A",
"Q  c #9D9D9A",
"!  c #A7928C",
"~  c #AB9A93",
"^  c #A39C9A",
"/  c #A59A95",
"(  c #99A19F",
")  c #A3A19D",
"_  c #AAA39F",
"`  c #9CA4A4",
"'  c #9FA8A7",
"]  c #A4A5A3",
"[  c #A9A6A2",
"{  c #A3A8A7",
"}  c #ACAAA5",
"|  c #A5ACAB",
" . c #AAADAC",
".. c #B5A9A5",
"X. c #B1AFAC",
"o. c #A9B0AE",
"O. c #B3B1AD",
"+. c #BFB0AD",
"@. c #ACB3B2",
"#. c #B3B4B3",
"$. c #BAB5B2",
"%. c #BAB9B6",
"&. c #B4BABA",
"*. c #BEBDBA",
"=. c #C3B0AA",
"-. c #C1B8B6",
";. c #C2BEBC",
":. c #C4C1BF",
">. c #BCC2C3",
",. c #C4C5C3",
"<. c #C9C6C3",
"1. c #C7C8C7",
"2. c #CBC9C6",
"3. c #C2C7C8",
"4. c #C5CACA",
"5. c #CACCCB",
"6. c #D0CFCE",
"7. c #D3C4C1",
"8. c #D3D2CF",
"9. c #CED2D2",
"0. c #D2D4D4",
"q. c #D9D8D7",
"w. c #D3D7D8",
"e. c #D5D9DA",
"r. c #DBDCDC",
"t. c #D8D6D4",
"y. c #E0DFDE",
"u. c #E1E0DF",
"i. c #DEDFE0",
"p. c #DEE1E1",
"a. c #E3E4E4",
"s. c #EAE7E6",
"d. c #E9E8E7",
"f. c #E5E7E8",
"g. c #E6E9E9",
"h. c #EEEEEE",
"j. c #EDEDED",
"k. c #F0EFEF",
"l. c #EFF0EF",
"z. c #F0F0EF",
"x. c #EEEFF0",
"c. c #EFF1F1",
"v. c gray94",
"b. c #F1F1F1",
"n. c #F1F0F0",
"m. c gray95",
"M. c #F3F3F3",
"N. c #F1F2F2",
"B. c #F4F3F3",
"V. c #F4F4F4",
"C. c gray96",
"Z. c #F6F6F6",
"A. c gray97",
"S. c #F7F6F6",
"D. c #F5F5F5",
"F. c #F4F4F4",
"G. c #F8F7F7",
"H. c #F8F7F7",
"J. c #F8F8F7",
"K. c #F7F7F8",
"L. c #F7F7F8",
"P. c #F8F7F8",
"I. c #F7F8F8",
"U. c #F8F8F8",
"Y. c #F9F9F9",
"T. c #F8F8F9",
"R. c #FAF9F9",
"E. c gray98",
"W. c #FBFBFB",
"Q. c #FBFAFB",
"!. c #F9F9FA",
"~. c #FCFBFB",
"^. c gray99",
"/. c #FDFDFD",
"(. c #FDFCFC",
"). c #FEFEFE",
"_. c white",
"`. c #FFFEFE",
"'. c #FDFDFE",
"]. c #FCFCFC",
/* pixels */
"_.V.v._.v.g.u : S K a.U._.j._.U.j._.V.j._.v.v._.j.V._.j.U._.j._._.g._.H.j.V.8 % z F g._.j.V._.g.~._.g._._.g._.V.k._.v.v._.j.V._.",
"V.V.U.V.V._.^ g S } _.v.V.U.V.V.U.V.H.U.V.U.U.V.U.U.V.U.U.V.U.V.V.U.V.V.V._.Q h F X._.v.U.J.V.U.H.V.U.V.V.U.V.U.U.V.U.V.V.U.U.V.",
"k.U._.j._.f.K l + k x._.j._.B.V._.v.V._.v.U._.j._.L.k._.V.v._.M.B._.z.B.~.i.U k X l f.U.(.J.v._.V.v._.v.V._.v.U._.j.U._.j._.U.j.",
"_.v.j._.e.V e *.#.& a e._.j._.U.g._.U.j._.v.v._.j.V._.j.U._.g.^._.g._._.9.F r ,.-.& V r.V.V._.j.U._.j._.U.j._.V.j._.V.v._.j.V._.",
"j.U.(.<.n f 0._._.6.r g 3._.V.v._.v.P.U.v.U._.v.U.U.v._.V.M.^.V.v._.V.5.D f q._._.q.r e 3.U.V.U.V.V._.v.V._.V.U._.v.U.U.v.U.U.v.",
"V.U.3.Z A d.^.U.v._.j.F s *.L.!.U.v.V._.v.U.U.v.U.U.v.U.V.V.W.M.U.U.>.C J d._.V.j._.j.x y &.v._.V.V.U.V.V.^.v.U.U.B.U.~.v._.U.v.",
"V.&.k } V.U._.j.P._.v.U.) r ~ s.v._.V.j._.v.j._.v.V._.j.U._.j._.v.@.l ) v._.v.v._.j.V._.E y | a._._.g._.U.j._.V.j._.v.v._.j.V._.",
"W Z 2.U.U.U.j._.U.j._.V._.2.o N a.V.U._.j._._.k._.J.j._.V.v._.r.W F ;._._.j.P._.j._.U.j._.,.d Y q.L._.v.V._.j.U._.j.U._.g._._.e.",
"I s._.B.V.U.U.V.V.U.U.V.V._.s.G C ,.v.~.B.L.U.V.L.U.V.V.U.V.4.H I a._.B.U.V.U.U.V.U.U.V.V._.s.F x 3.J.U.V.V.V.P.V.U.L.V.~.L.>.L ",
"_.U.j._.V.v._.v.V._.j.U._.g._._.[ x  .a._.v.v._.v.V._.J.f.o.x O._.B.~.J.j._.V.v._.v.v._.v.v._.v.} k { j._.j._.P.j._.v.U.j.` d } ",
"j.V._.j._.U.j._.U.j._.V.v._.j.M._.:.x W 0._._.g._.U.V.9.D x 0._.v._.j.V._.j.U._.j._._.g._.U.j._._.;.l R r._.x.V._.j._.0.D l <.U.",
"U.L.v._.V.V.U.V.V.U.V.U.U.v.U.L.v._.y.J H 4.V._.U.V.#.t F a._.V.U.V.U.J.V.U.V.V.U.V.V.~.V.V.U.V.V._.y.Z S 4.W.U.U.U.&.t x y._.V.",
"_.V.v._.v.V._.v.V._.v.U._.j._.U.v.U._.v.] z { x.a.P q W U._.j.U.U.v._.V.v._.V.V._.B.V._.v.V._.j.J.J.V.U.) y { f.a.Y & Q ~.U.v._.",
"j.U._.j._._.g._.V.j._.V.j._.v.v._.j.V._.P.*.y V D 7 O._.V.g._.v.v._.v.V._.j.U._.g._.U.j._.U.j._.V.z._.v._.,.q C S $ %._.s._.U.j.",
"_.V.v._.V.V._.v.U._.v.U._.v.U.U.v._.V.v.P._. .a & _ _.j.J._.v.W.U.v._.U.v._.V.v._.B.V._.v.U._.v.U._.v.U.L._.o.t # _ _.v._.V.V._.",
"U.V.V.U.V.V.U.V.V.U.V.V.U.v._.U.V.U.P.B.~.j.z 6 o F V.M.U.U.V.V.U.V.U.V.v.~.V.V.U.V.V.U.V.V.U.v.U.U.V.U.U.s.S w * F v.V.U.V.V.U.",
"j.U._.g._.~.j._.U.j._.V.v._.v.v._.j.U._.v.j.<   c Z a._.V.j._.v.v._.v.V._.j.U._.g._.U.j._.U.j._.v.v._.v.V.V.4 * z F v._.g._.U.s.",
"_.V.v._.v.V._.j.V._.j.U._.j._.U.j._.V.v._._.! f b .._.s.U._.j._._.j._.U.j._.V.v._.v.V._.j.V._.j._.U.j._.V._.] y V X._.j._.v.V._.",
"V.U.U.V.U.U.V.U.U.V.L.J.V.V.U.H.L.V.U.V._.p.U D X l f._.V.V.U.H.V.V.L.V.H.V.V.U.V.U.V.V.U.U.V.U.L.V.V.V._.p.U d . h s._.V.V.U.L.",
"j.U._.j.~.U.j._.U.j._.v.v._.v.V._.j.V._.9.D s ,.$.# g p._.j._.v.v._.v.V._.j.U._.j._._.j._.V.v._.V.v._.H.0.S w <.%.O g q.V._.L.j.",
"_.V.v._.v.v._.j.V._.j._._.j._.W.j._.(.3.D d q._._.0.r t 3._.j.U._.g._.U.j._.V.v._.v.v._.j.U._.j.U._.l.4.S h u._._.r.r g 5.V.J._.",
"v.U.U.v.U.U.v._.U.V.U.V.M.U.V.V.(.V.>.V Z j._.z.V._.d.F i $.U.U.v._.V.V.U.V.U.U.v.U.U.v.U.J.v.U.U.V.>.x G B._.V.V._.j.F t #.V.V.",
"V.U.U.v._.U.v.U.U.v._.V.M._.v.U.M.@.x _ V._.V.v._.V.V._.^ i @.g.U.~.v.H._.j.V._.v._.U.v._.V.c._.j. .k ) U._.z.U.(.j._.W.E e  .f.",
"s.U.v._.v.v._.v.V._.s.U._.g._.p.Y C ,.U._.v.v._.j.V._.j._.2.d R p.v._.U.j._.V.j._.v.v._.j.V._.w.W x *._.~.g._.V.j._.c.v._.*.d W ",
"S 3.L.V.U.U.z._.V.v._.v.V.^.4.H I u._.U.v.U._.j._.U.v._.V._.g.J C 2.v.W._.l.U._.j._.U.j._.V.>.F L u._.j.V._.v.U._.j.(.U.j._.a.F ",
"[ s o.a._.V.V.U.U.V.H._.a.] V O.U.U.V.U.V.V.L.V.V.U.V.U.H.v._.U.[ 1 ! f._.v.J.V.V.U.V._.g.{ k } J._.V.V.V.U.V.U.U.V.U.U.V.J.(.H.",
"_.2.C ` 0.H._.j.V._.V.9.k w 6._.j._.J.j._.B.v._.l.V._.j.U._.g._._.+.0 Y 0._.V.j._.v.^.w.S d 5.U.~.~.j._.U.j._.V.j._.v.v._.j.B._.",
"g._.d.Z K 5.v._.U.v.&.7 h d._.v._.j.U._.j.U._.j._.U.j._.V.k._.v.c._.r.Z H 3.U._.v.W.&.q C y.U._.V.v._.v.V._.j.U._.j._.U.j._.J.j.",
"J.V._.V.) h ] f.g.U - E L.^.V.V.V.U.U.V.U.U.V.U.V.V.U.V.U.U.V.U.L.v._.V.) S { f.s.U - Q V._.V.V.H.V.V.U.U.V.U.U.V.U.V.H.H.V.V.U.",
"_.V.z._._.%.w B S : #._.^.j._.U.j._.V.v._.V.v._.v.V._.j.U._.v.U.U.j._.U.^.*.w S D 7 #._.v.V._.j.U.(.j._.U.j._.V.v._.V.v._.v.V._.",
"j.U._.g.J._.{ t # Q _.x.x._.v.V._.j.V._.g.~._.g._.U.j._.V.j._.v.v._.v.V._._. .t ; [ _.g._.P.j._.v.z._.j.V._.j.U._.g.U._.g._.U.j.",
"(.V.M.W.V.j.S : - x j.U.U.v.U.U.v._.V.v._.V.B._.V.V._.v.V._.v.U.U.v.U.V.V.v.S w * C v._.v.V._.v.U._.v.U.U.v.(.V.B._.V.B._.V.V._.",
"_.V.B.~.L.d.: $ g C d.U.U.v._.U.v.~.U.v._.V.v._.v.V._.v.U.U.V.U.U.B.~.V.V.j.u 2 z F j._.v.V._.v.V.U.v._.U.V._.V.V._.V.V._.B.V._.",
"g.U._.g.P._.E s k [ _.v.v._.j.V._.j.U._.g.U._.j._.U.j._.V.j._.v.v._.j.V._._.^ z H #._.d._.L.j._.V.v._.j.v._.j.V._.g.U._.g._.U.g.",
"_.V.v._.U.p.K d . h p._.~.j.U.U.j._.V.v._.V.v._.v.V._.j.U._.v.U.U.v._.V.L.s.U x @ h f._.j.V._.j.U._.j._.U.v._.U.v._.B.V._.v.H._.",
"U.H.B._.w.D 8 :.$.# z e._.V.J.J.V.U.U.V.U.V.V.U.V.U.U.V.U.U.V.U.U.V.V._.w.K y ,.#.$ z r._.V.U.V.V.U.V.V.U.V.U.V.V.U.V.V.U.V.V.U.",
"s.U._.4.C d 0._._.0.e s 3._.v.v._.j.U._.j.U._.j._.U.j._.V.c._.v.v._.V.3.V d y._.U.q.e e 5.U.v._.V.v._.v.V._.j.U._.j.U._.j._.U.j.",
"_.L.&.k F s._.j.v._.a.x t @._.(.g._.V.j._.V.v._.v.V._.j.U._.j.U._.j.>.k G V._.j._._.g.Z w &._.v.U._.j._.U.j._.V.j._.V.v._.j.V._.",
"l.@.h ^ U._.v.U.P.v._.H.T s o.j._.V.U.U.V.U.U.V.U.U.V.U.L.V.U.U.j.@.k [ _.U.B.U.V.V._.U.Q w  .j.U.V.U.V.V.U.V.U.U.V.U.U.V.V.V.U.",
"W l ,.W._.U.j._.P.v.~.B._.,.k W a.V.H._.v.U.U.j._.U.j._.V.v._.e.W Z :._._.j.U.U.j.^.V.v._.,.y P r.L._.v.V._.v.U._.x.U.^.j._.^.e.",
"T u.W._.v.V._.j.V._.j.U.U.U.g.L V 5.V.M._.M.c._.c.V._.g._.~.>.H I r._.V.j._.V.v._.v.v._.g._.j.Z C :.j._.U.g._.V.j._.M.v._.j.>.U ",
"M.W.U.v.U.U.j._.U.v._.V.V.U.U._. .p [ s.L.J.U.z.^.L.j._.f.` d } L._.c.V._.v.U.U.v.U.U.v._.V.H._.[ d | d.~._.v.L.U.l.V._.a.' k ) ",
"M.V.W.v.U.U.v.W.V.V._.V.V.U.v.V._.<.f v 7._.U.v.L.L.^.9.z y <._.V.U.V.J.U.V.U.U.V.U.U.V.U.U.v.~._.:.f U q._.v.L.U.v._.0.S h 2._.",
"_.M.l._.v.v._.j.V._.j.U._.j._.U.d._.u.p n :.V._.M.L.&.e C s.L.U._.g._.L.j._.V.j._.v.v._.v.V._.g.H._.q.Z C 4._.L.B._.&.t F q._._.",
"j.U._.j._._.j._.U.v._.V.v._.v.V._.j._._.Q l { a.g.U - Q H.U._.v.v._.v.V._.j.U._.j.~.U.k._.V.v._.V.j._.v.Q k ] j.j.U : Q j._.V.j.",
"U.V.U.V.U.V.V.V.U.V.V.U.V.U.U.V.V.L.B.U._.%.5 M S 7 *._.J.V.V.V.V.U.V.V.U.U.U.V.U.V.U.V.U.U.U.V.V.J.V.J._.%.t F S ; %._.J.V.U.V.",
"_.V.j._.v.V._.j.V._.j.U._.j._.U.j._.V.v._._.[ i % ) _.g.V._.j._._.j._.U.j._.V.v._.v.V._.v.U._.j.U._.j._.V._.@.e $ ] _.j._.v.V._.",
"j.U._.j._.U.j._.U.j._.V.v._.v.v._.j.V._.j.v.x 2 , B g._.V.j._.M.v._.j.V._.j.U._.g._.~.j._.V.j._.v.v._.j.V.P.V 4 * C V._.g._.U.j.",
"U.V.V._.V.V.U.V.U.U.V.U.U.V.U.U.v.W.V.V._.g.3 > g K k.V.V.U.V.U.U.v.U.U.V.U.V.V.~.V.V.U.V.V.U.V.U.U.v.U.U.f.9 < t F g.U.~.V.V.(.",
"_.V.v._.V.V._.v.V._.v.U._.j.~.U.c.^.U.v.U._./ z K X._.j.V._.v.U.U.k._.V.v._.V.v._.V.V._.v.V._.j.U._.j._.V._.^ d F  ._.l._.v.V._.",
"j.U._.g._.U.j._.U.j._.v.v._.v.V._.j.J._.V.a.U x $ l p._.v.l._.v.v._.j.V._.j._._.g._._.g._.U.j._.V.v._.j.W.j.U C > f j._.g._.U.g.",
"_.V.v._.V.v._.v.V._.v.U.U.j.^.U.c.^.V.V.r.D r 2.#.= z 0._.(.v.U.U.v._.U.j._.V.v._.B.V._.v.V._.v.U.U.l._.r.V s ,...- z 0._.v.V._.",
"U.U.v.~.V.V.U.V.J.U.V.L.U.V.U.U.v.W.U.4.z l r._._.0.r g 3.~.V.U.U.V.U.U.V.U.V.V.U.V.V.U.V.V.U.V.L.U.H.5.x h q._._.q.r g 5.U.H.U.",
"j.U._.j.^._.j._.L.j._.V.v._.v.v._.j.>.x Z z._.g.P._.a.Z t &._.V.v._.v.V._.j.U._.j.~.~.j._.U.v._.U.v.3.V G M.U.V.U.V.k.F r =.U.v.",
"_.B.j._.v.v._.v.V._.j.U._.j._._.d.@.h ) _.J.v._.v.v._.v.^ s  .v._.g._.V.j._.V.v._.v.B._.k.V._.v.j.@.s } _.v._.V.v._.U.V.[ o ~ c.",
"r._.U.V.L.J.V.U.U.V.L.V.V.L.U.r.W l ,._.H.V.U.V.H.H.B.U._.*.j T p._.U.V.U.V.U.U.V.U.U.V.H.U.U.e.W x 2._.J.V.V.J.P.V.V.V._.;.d ` ",
"x ,._.v.U.U.j._.U.c._.v.H.^.>.H I y._._.j.U.^.j._.U.j._.v.^.d.m b 5.j.U.^.j.L.^.j.(.U.j._.M.>.P I a._.v.V._.v.U._.j.U._.g._.s.Y ",
"} y ] v.P.v._.x.V._.g._.j.` l X.v._.B.j._.v.v._.j.V._.j.U._.v._._ h @.d.V._.V.c._.v.v._.i.' x [ (._.g._.U.j._.V.j._.M.B._.j.U._.",
"_.<.y U r._.v.U.V.v._.9.z d ,._.~.v.U.U.v.U.(.V.U.U.v._.L.V.U.V._.5.l R e.J.L.L.k.U._.9.D s ,._.V.v.U.V.V._.V.U.U.v.U.U.M.U.V.v.",
"j._.s.x x 4.c._._.V.&.7 h a._.v._.v.U.U.v.U.U.v.U.U.v._.V.v._.v.v._.y.G F 3.U._.V._.&.t x y._.H.V.V._.V.V.U.v.U._.v.U.U.v.(.U.v.",
"_.v.V._.) s { a.s.U & E (.v.U.(.j._.V.j._.V.v._.v.V._.j.U._.j._._.g._.U.E x ` a.c.U ; W j._._.j.~._.s._.U.j._.V.j._.V.v._.j.V._.",
"j.U.U.v._.*.q S S ; *._.B.(.v.V._.v.U._.v.U.U.j._.U.j._.U.v._.v.v._.j.U._.O.7 C x : %.^._.V.j._.V.v._.v.V._.v.U._.j._.U.j._.U.j.",
"V.U.U.V.M._.o.y : ) _.B.V.U.V.J.~.V.V.U.V.V.U.V.U.V.V.U.V.V.U.V.H.U.V.V.V._. .w < / _.v.L.V.V.U.V.V.U.V.V.U.V.U.U.V.U.U.V.U.U.V.",
"_.V.j._.x.j.K g : C g.U._.g._.W.g._.U.j._.V.v._.v.V._.j.L._.j._._.s._.U.j.U.D u , l v._.j.U._.j.U._.j._.U.j._.V.j._.v.v._.j.V._."
};
