/* XPM */
static char *d6402a9dc08d4935d09f2dd5d17afed5Rc1BmoSsD18k4kJ5[] = {
/* columns rows colors chars-per-pixel */
"64 64 87 1 ",
"  c #010101",
". c #0A0703",
"X c #0D0904",
"o c #140D06",
"O c #1D1309",
"+ c #22160A",
"@ c #25190B",
"# c #2C1D0C",
"$ c #35220F",
"% c #38240F",
"& c #372410",
"* c #3A2610",
"= c #3E2811",
"- c #442C13",
"; c #492F14",
": c #4D3215",
"> c #523516",
", c #573817",
"< c #563818",
"1 c #5B3B19",
"2 c #613E1A",
"3 c #65411B",
"4 c #6B451D",
"5 c #6F481E",
"6 c #744A1F",
"7 c #784D1F",
"8 c #764D20",
"9 c #794E20",
"0 c #7D5121",
"q c #845523",
"w c #885724",
"e c #8C5A25",
"r c #925E26",
"t c #966027",
"y c #996227",
"u c #976128",
"i c #9C6428",
"p c #9D6429",
"a c #A16729",
"s c #A26729",
"d c #A3692A",
"f c #A3692B",
"g c #A56A2B",
"h c #A66A2A",
"j c #A86B2B",
"k c #A86C2B",
"l c #A96C2B",
"z c #AA6D2B",
"x c #AB6D2B",
"c c #AA6D2C",
"v c #AE6F2C",
"b c #AE702C",
"n c #AF702C",
"m c #AE702D",
"M c #B0702D",
"N c #B1712D",
"B c #B3732E",
"V c #B4732D",
"C c #B6742E",
"Z c #B8762F",
"A c #BA772F",
"S c #BB782F",
"D c #BA7730",
"F c #BB7830",
"G c #BE7930",
"H c #BF7A30",
"J c #BF7A31",
"K c #C07B30",
"L c #C27C31",
"P c #C37C31",
"I c #C37D31",
"U c #C47D31",
"Y c #C47D32",
"T c #C87F32",
"R c #C88032",
"E c #C98032",
"W c #CA8133",
"Q c #CB8133",
"! c #CB8233",
"~ c #CC8233",
"^ c #CD8333",
"/ c #CE8334",
"( c #CE8434",
") c #CF8434",
"_ c #D08434",
"` c #D08534",
"' c #D28634",
/* pixels */
"~~~~~~~~~~~~~~~~~~~~~~~~~~~~~~~YV~~~~~~~~~~~~~~~As~~~~~~~~~~~~~~",
"~~~~~~~~~~WW~~~~~~~~~~~~~~~~~~`iy`~~~~~~~~~~~YA`zr)~~~~~~~~~~~~~",
"~~~~~~~~~~nn)zA~~~~~~~~~~~~WC~~ez`~~~~~~~~~~~Cq)if`~~~~~~~~~~~~~",
"~~~~~~~~~`gy)wV)~~~~~~~~~~~L7Y~qA~~~~~~~~~~~~L6YeM~~~~~~~~~~~~~~",
"~~~~~~~~~`Ve)wSW~~~~~~~~~~~)7nTqY~~~~W~~~~~/~)0xqA_~/~/~____`~`~",
")))/~~~~~WH9YqK)/_`/__`/))~)i457~W~WWWYYKSVVVC7+$izVMVxgsyrewq0j",
"yrisjggjzxg:%=rturrwwq9741>:-. #,,>;;---=*%*$-@ .+$$$%**%%%--,,r",
"01;-;;:::;-@  %--;::,,1224665+O#wrreerysxVCASA7$66AAAASKSKYWT~`/",
")~WYYYTTYYYq,>rWWWW~~~~`_```y7A7n___~`~`~`~~~`CeH6W)~)~/`~~~~~~~",
"W~~~~~~~~~W7Az5~~~~~~~~~~~~~wz_ry~~~~~~~~~~~~~~WW0A~~~~~~~~~~~~~",
"~~~~~~~~~~A4TY4V~~~~~~~~~~~~!!/gw~~~~~~~~~~~~~~~Wqn~~~~~~~~~~~~~",
"~~~~~~~~~~Ag~WjV~~~~~~~~~~~~W/~A7W~~~~~~~~~~~~~~~zC)~~~~~~~~~~~~",
"~~~~~~~~~~~~~~)~~~~~~~~~~~~~~~~WgY~~~~~~~~~~~~~~~~~~~~~~~~~~~~~~",
"~~~~~~~~~~~~~~~~~~~~~~~~~~~~~~~~~~~~~~~~~~~~~~~~W~~~~~~~~~~~~~~~",
"~~~~~~~~~~~~~~~~~~~~~~~~~~~~~~~~~~~~~~~~~~~~~~~~~~~~~~~~~~~~~~~~",
"~~~~~~~~~~~~~~~~~~~~~~~~~~~~~~~~~~~~~~~~~~~~~~~~~~~~~~~~~~~~~~~~",
"~~~~~~~~~~~~~~~~~~~~~~~~/T///!~~~~~~~~~~~~~~~~~~~~~~~~~W~WWW)~~~",
"~~~~~~~~~~~~~~~~/YY~~~~~_T/T/!~~~~~~~Y~~~~~~~~TA~~~~~~~)LV)~W~~~",
"~~~~~~~~~~~~~~~WYAx~~~~~/KDYK//~~~W~WfY~~~W~~~Ud)~~~~~WWnn)~~~~~",
"~~~~~~~WW~~~~~~TyVx/~~~~/KiHx_W~~~)WWiW)~``~)Ciy~~~~~)CiqC)~)~~W",
"!!/!~~WgVW~~W//`iekYYYWYYKwwVYTTWKVr>:wqqwwwq1+:00q0077:O4ewrww0",
"`!))~`Vwj~WTYCsr3O,0099989;+49887589:<rgggzxNz0wCSCnVCSt4tCnzVCL",
"fgVVzgq+,80070wrr7wSYYYYKYrryYLLLYY~sVA`)~~)~WzzS)~)))WLik))W))^",
"rrrwryw,qSSLY~__VgSS)~WW//fHs!~~~~/YiYW~W~~~~~YUWW~~RW~~LCWW)W)W",
"`/~)`_xHiH~~~~~~nc`/~~~~~~LWHW~~/W~WCWW)~~~~~~~~~~~~~~~~W)~~~~~~",
"/~~~~~Y~CC~~~~~~LY~W~~~~~~~~~~~~~~~~W/~W~~~~~~~~~~~~~~~~)W~~~~~~",
"~~~~~~~~~~~~~~~~~~~~~~~~~~~~~~~~~~~~~~~~~~~~~~~~~~~~~~~~WW~~~~~~",
"~~~~~~~~)~~~~~~~~~~~~~~~~~~~~~~~~~~~~~~~~~~~~~~~~~~~~~~~W)~~~~~~",
"~~~~~~~~VL~~~~~~~~~~~~~~~~~~~~~~~~~~~~~~~~~~~~~~~~~~~~~~~~)W~~~~",
"~~~~~~~WeL~~~~~~~~~~~~~/~~~~~~~~~~~W~~~~~~~~~~~~~~~~~~~~~~WW~~WW",
"~~~~~~WAr!!~~~~~~~~~~~VL~~~~~~~~~~)CV)~~~~~~~~~~~~~~~~~~~~W))Wzn",
"~~~~~~zre!/W~~~~~~~~~WrL~~~~~~~~~~`ig)~~~~~~~~~~~`~~~W)~`~)W))ki",
"TW~~``t0w_`~~W)/`~_~`Lw~~)))`)``)WWrx`))~~WW~~TMVjY`WYAjfgzVVq-5",
"212377- %3444346wszz5:7VCziewwrigt=#egr73112455%oo:42,:,,,1,-# -",
"Vxiree>#>wwwettw5211o #:123552313=oO-,,40rffiyr,$:1qgMSY~WWWcy2i",
")~`/`AqAwW))`)//_WWn50qKYW)/`/)`z7ggwW~~``~`_~WwKWir`/`~~~~~`WwL",
"~~~~~rg~wK/~~~~~~~~zAWqY~~~~~~~~WW`WwY/W~~~~W)Ct~~S0T~~~~~~~/~Y~",
"~~~~~CW~wx)~~~~~~~~~~~wA~~~~~~~~W~~~wV~~~~~~~~YY~~~AT~~~~~~~W~~~",
"~~~~~~~)VC~~~~~~~~~~~~fV~~~~~~~~~~~~zC)~~~~~~~~~~~~~~~~~~~~~~~~~",
"~~~~~~~WW~~~~~~~~~~~~~WW~~~~~~~~~~~~W~~~~~~~~~~~~~~~~~~~~~~~~~~~",
"~~~~~~~~!/!!!/~~~~~~~~~~~~~~~~~~~~~~~~~~~~~~~W/~~~~~/!/!~~~~~~~~",
"~~~~~~~~!!!//T~~~~~~~~~~~~~~~~~~~~~~~~~~~~~~/WW~~~~~T/LL~~~~WWW~",
"~~W~~~~~!!!//!!~~~~~~~~~~~~~~~~~~~~~~~WW~~~~/WW)~~W~//xH_/``CVV~",
"`Wg~/_~~)//JT//W~~~~VW~~~~~YWY~~~~~~)YW)~))`)SV`)///Yx8iAxfy9;9z",
"r3wCxggxxyiy!TYKWWVCs//~~))gMV_~WTLLrqSCgityr>1iyw0091#3weyi928w",
"1*60etyw0-#5wwwwww;&6wq00wq-*qrw7706$*49wygi8744rxHKYDuf/_`_!/T!",
"xcV/~``//KwBHLYYHHf4wjxACCzwwwgMSLLVzzcW~))LF))H!/!//!KV/!!T!///",
"!HV~~~~~!`Y!/!/!!!)FV`~//~~``/_~)W~WWLA)W~~~~~~~!!!!!!_!!!/!!/T!",
"!!!!~~~~~~~~~~~~~~~~~~~~~~~~~~~~~~~~~~~~~~~~~~~~!!!/~~~~~~~~~~~~",
")!!/~~~~~~~~~~~~~~~~~~~~~~~~~~~~~~~~~~~~~~~~~~~~!//T~~~~~~~~~~~~",
"!/T/~~~~~~~~~YT/~~~~~~~~~~~~~~~TWW~~~~~~~~~~~~~~~/KY~~~~~~~~~~~~",
"!!/!~~~~~~~~~wA~~~~~~~~~~~~~~~~yz)~~~~~~~~~~~~~~~/0V~~~~~~~~~~~~",
"/W~~~~~~WTY~K9Y~~~~~~~~~~~~~~~~qz)~~~~~~~~~~~~~~~T5A~~~~~~~~~~~~",
"~~~~~~~~~sw_V9~~~~~~~~~~~~~~~~T7A~~~~~~~~~~~~~~~~Y5L~~~~~~~~~~~~",
"~~~~~~~~`i6_iw/~~~~~~~~~~~~~~_W5K~~~~~~~~~~~/WW~~A7W~~~~~~~~~~~~",
"~~~~~~~~)z5Wei_~~~~~~_WW____Sqq1W__`/`/`)/`)_Y65sr5/`____~~~~~~~",
"~~)~~WWLKz#$$sSSSSYTYLVsrq64-  +2560qrrisyyryr7%oXO477wiVKTW~WT/",
"ggr61>--=%o  #$#$$%%%%$%%-;11o o:1,,;=%%------;-X o%2>-%$*-:<,:3",
":-:37wyszV:+#0giggiergVKTW~`V:67r``~~UYYKYTW~WTS>3q7~~WKVieeeeer",
"UTW)``)))Y4Af7__~___``~~~~~~i7`n7_~~~)~~~~~~~~WT5LK5Y~~~~`__`___",
"~~~~~~~~~C5WY4V~~~~~~~~~~~~`wr`K6T~~~~~~~~~~~~~~6VW6V//~~~~~~~~~",
"~~~~~~~~)g6~_y0)~~~~~~~~~~~~eC~~6A~~~~~~~~~~~~~`wz/yV_W~~~~~~~~~",
"~~~~~~~~)rw)~YgW~~~~~~~~~~~~~~~~yV~~~~~~~~~~~~~~YYWYY~~~~~~~~~~~",
"~~~~~~~~~sz~~~~~~~~~~~~~~~~~~~~~TU~~~~~~~~~~~~~~~~~~~~~~~~~~~~~~"
};
