/* XPM */
static char *_518c4a37a6f4e1fc88fbda12e69fb3eJtbhavUcatB5JWhR[] = {
/* columns rows colors chars-per-pixel */
"64 64 186 2 ",
"   c #1F2432",
".  c #24262D",
"X  c #26282F",
"o  c #2B2A2E",
"O  c #312E2F",
"+  c #232732",
"@  c #262A32",
"#  c #2A2E35",
"$  c #252D39",
"%  c #2A2F38",
"&  c #2D3037",
"*  c #2E323A",
"=  c #323236",
"-  c #3A3535",
";  c #31343C",
":  c #3A373B",
">  c #34383D",
",  c #3B3B3C",
"<  c #403732",
"1  c #463B35",
"2  c #4A3D35",
"3  c #423D3B",
"4  c #4A3E38",
"5  c #3D403F",
"6  c #42413F",
"7  c #4B413D",
"8  c #584637",
"9  c #53443C",
"0  c #524B3F",
"q  c #5B493C",
"w  c #644E3D",
"e  c #67503F",
"r  c #6A513E",
"t  c #72553D",
"y  c #77593F",
"u  c #7D5A3E",
"i  c #313640",
"p  c #353B43",
"a  c #3A3D45",
"s  c #363E48",
"d  c #3A3F48",
"f  c #423F40",
"g  c #3E4143",
"h  c #37404A",
"j  c #3C424B",
"k  c #444342",
"l  c #4A4642",
"z  c #474947",
"x  c #4D4A45",
"c  c #42454A",
"v  c #474A49",
"b  c #4C4B4A",
"n  c #514541",
"m  c #534D45",
"M  c #594B42",
"N  c #514E49",
"B  c #545046",
"V  c #5D5245",
"C  c #55524A",
"Z  c #5B554A",
"A  c #5E594C",
"S  c #454A50",
"D  c #4B4D51",
"F  c #545554",
"G  c #5A5754",
"H  c #5E5A52",
"J  c #604F43",
"K  c #665444",
"L  c #6C5442",
"P  c #66584A",
"I  c #635C4D",
"U  c #6A5D4B",
"Y  c #725B45",
"T  c #755A44",
"R  c #7C5C42",
"E  c #635C52",
"W  c #605E5D",
"Q  c #66614E",
"!  c #6D634E",
"~  c #766047",
"^  c #71604A",
"/  c #7B6349",
"(  c #666153",
")  c #6B6453",
"_  c #6D6955",
"`  c #6D665B",
"'  c #706653",
"]  c #736B55",
"[  c #7A6D56",
"{  c #756C5A",
"}  c #796E5B",
"|  c #767057",
" . c #7B7257",
".. c #74725D",
"X. c #7B725B",
"o. c #6A6866",
"O. c #726A61",
"+. c #776F68",
"@. c #7B7461",
"#. c #7F7864",
"$. c #76736D",
"%. c #7D7873",
"&. c #85603F",
"*. c #8A613F",
"=. c #92653F",
"-. c #856144",
";. c #8A6342",
":. c #8A6A47",
">. c #846749",
",. c #8D6C4A",
"<. c #936743",
"1. c #956944",
"2. c #9B6C43",
"3. c #936E48",
"4. c #97724E",
"5. c #9C7249",
"6. c #876C51",
"7. c #837657",
"8. c #82755C",
"9. c #83795C",
"0. c #8A7A5D",
"q. c #917F5F",
"w. c #A16E43",
"e. c #A47144",
"r. c #AC7544",
"t. c #AE7847",
"y. c #A4764B",
"u. c #A87749",
"i. c #B27743",
"p. c #B47944",
"a. c #B97B43",
"s. c #BC7C44",
"d. c #B57D49",
"f. c #827764",
"g. c #827962",
"h. c #8B7D63",
"j. c #877E6A",
"k. c #947D62",
"l. c #C17E43",
"z. c #C27F43",
"x. c #CA803F",
"c. c #8D815E",
"v. c #90845F",
"b. c #BE8047",
"n. c #BA8959",
"m. c #878367",
"M. c #8D8262",
"N. c #938563",
"B. c #978865",
"V. c #968965",
"C. c #9C8C65",
"Z. c #9A9067",
"A. c #9E916A",
"S. c #86837C",
"D. c #A08C66",
"F. c #A08E6A",
"G. c #B98F68",
"H. c #A59467",
"J. c #A4946B",
"K. c #A7986B",
"L. c #AB9A6E",
"P. c #B9986C",
"I. c #A89A71",
"U. c #A2987B",
"Y. c #B29E70",
"T. c #B39F78",
"R. c #ACA173",
"E. c #ADA678",
"W. c #B4A472",
"Q. c #BCAC75",
"!. c #C68142",
"~. c #C68143",
"^. c #C98141",
"/. c #C98242",
"(. c #CB8242",
"). c #CC8341",
"_. c #8F8B81",
"`. c #95958C",
"'. c #9FA198",
"]. c #A2A59F",
"[. c #D3BB85",
"{. c #DCCD8F",
"}. c #D6CA91",
"|. c #DACC92",
" X c #DDD295",
".X c #DFD698",
/* pixels */
"^.^.^.^.^.^.^.^.^.^.^.^.^.^.^.^.).!.x.^.^.^.^.^.^.^.^.^.x.x.x.).!.).x.x.).x.!.).x.).!.s.i.w.*.y q w i.x.^.^.^.^.^.^.^.^.^.^.^.^.",
"^.^.^.^.^.^.^.^.^.^.^.^.^.^.^.^.!.).).!.^.^.^.x.^.^.^.^.x.x.x.x.).).x.x.!.a.r.2.&.t q 7 - O @ X . + u ).^.^.^.^.^.^.^.^.^.^.^.^.",
"^.^.^.^.^.^.^.^.^.^.^.^.^.^.^.^.!.x.).).^.!.^.x.).x.).).x.x.a.i.2.*.t 8 7 - O X . . . X X @ X @ @ @ e ).^.^.^.^.^.^.^.^.^.^.^.^.",
"^.^.^.^.^.^.^.^.^.^.^.^.^.^.^.^.x.!.).x.).).^.b.p.e.=.u w 2 < O . . . . . . . . X X X o @ @ @ X @ + m !.^.^.^.^.^.^.^.^.^.^.^.^.",
"^.^.^.^.^.^.^.^.^.^.^.x.^.^.).).!.b.i.w.*.t 8 7 - o . . . . . . . . . . . . . o @ X @ @ # X @ # @ + 7 z.x.x.^.^.^.^.^.^.^.^.^.^.",
"^.^.^.^.^.^.^.^.^.^.).z.a.e.;.t 8 1 O o . . . . . . . . . . . . . . o X . . . . X o @ @ # # X X @ @ 3 a.^.x.^.^.^.^.^.^.^.^.^.^.",
"^.^.^.^.^.^.^.^.^.!.;.9 : & + . .   . . . . X . . . . . . . . o . X X . X X o o X o X @ # X @ @ @ @ - r.^.^.^.^.^.^.^.^.^.^.^.^.",
"^.^.^.^.^.^.^.^.).s.k   + + + @ X X . . X . . . . . . o . . . o X X X X X . X X & 5 5 # # # $ # # @ & e.^.^.^.^.^.^.^.^.^.^.^.^.",
"^.^.^.^.^.^.^.^.).z.4 $ $ @ $ @ @ X X X + X @ X @ X X X . . X X X . - - O Q ] e 7.K.Q = @ # # # @ & @ 1.).^.^.^.^.^.^.^.^.^.^.^.",
"^.^.^.^.^.^.^.^.^.z.l + $ # % % @ $ $ X X @ X X X @ o O 5 5 I ~ 0 Q ! V.A H.Z. .6 K.5 & # @ # @ @ @ @ ;.).^.^.^.^.^.^.^.^.^.^.^.",
"^.^.^.^.^.^.^.^.^.!.M $ % % % $ # # # # * @ > & 5 Q K ! 7.0 H.v.Z.K.>  .c.H.Q.| 5 R.5 @ # $ # X & @ + T ^.^.^.^.^.^.^.^.^.^.^.^.",
"^.^.^.^.^.^.^.^.^.^.M % % % % % $ # 5 m.V.A c._ 6 W.] ] W.] Z.c.0 K.Q  .Q v. . .5 Q 5 @ # # # $ & @ + K ^.^.^.^.^.^.^.^.^.^.^.^.",
"^.^.^.^.^.^.^.^./.^.K $ % % % i $ # 5 I.Z.| Z.E.0 | W._  .c.v.! . 6 Q x & - & # o X @ # # $ # # # # @ q !.^.^.^.^.^.^.^.^.^.^.^.",
"^.^.^.^.^.^.^.^./.^.Y $ % i i % * * * R.Q Q  .v.| | Q 6 C , > & # # # @ # # @ $ # # # # # X # # # @ @ 7 z.^.^.^.^.^.^.^.^.^.^.^.",
"^.^.^.^.^.^.^.^.^./.Y $ $ i * i * $ 5 ..g g 5 5 = & # # @ # $ # & # X # # # # # # # # # # # # # & @ @ , a.^.^.^.^.^.^.^.^.^.^.^.",
"^.^.^.^.^.^.^.^.^.(.T $ i i * $ * * $ $ * * & & & # # # & # # # # & & # # # # # # # # # # & # # @ & @ - i.).^.^.^.^.^.^.^.^.^.^.",
"^.^.^.^.^.^.^.^.).).=.% i i % % i % % % * % * % % % & % % & # & # % # & % # # # % % % # % % # # & # # = e.z.).x.x.z.).).x.).x.z.",
"^.^.^.^.^.^.^.^.z.).=.% % i i i i i * % * % * % * $ % & % & * # & & & % & # & % # O # # # % O & # # # O 2.z.).).x.).z.x.z.).).).",
"^.^.^.^.^.^.^.^.z.).<.% i i i % ; % * i i * * % * * * * & * * , , : % % & % % % & O % % # % # % # # # # ;.).x.z.z.x.z.).z.x.x.x.",
"^.^.^.^.^.^.^.^.z.z.1.% % i i i ; i i % % * * * * * * * * > x B B x 6 & * & = % % % & % # # % % # # # + u ).).).).).).).).).).z.",
"^.^.^.^.^.^.^.^.).).e.% % i i i i * * * * * % i % * * * > B A ] _ Q x , * ; = % = % % % % % % % O % # @ r z.x.).x.).x.).).).).x.",
"^.^.^.^.^.^.^.^.z.).w.= % i * i i i i * * * * % & * * * z A  .N.V. .B 5 ; I , % ; % % O O & % O O # # + w z.z.).z.).z.).x.z.).z.",
"^.^.^.^.^.^.^.^.).).e.; i i i i i i i * * * * * * > C * x Q  .Z.Z.9.B 6 N E l m , & * % # # O % % % # # 2 z.l.).).).x.z.z.x.).x.",
"^.^.^.^.^.^.^.^.z.z.r.; $ % ; i i * * i $ * * * * g _ B z C | 9.9.) C | _ I Z m & & & % * % % # % # # o 1 a.l.^.z.x.x.).).).).z.",
"^.^.^.^.^.^.^.^.^.).p., % i i i i * * * % & * , I C { 9...] C A A m ] #.Z I I , = % O % * O = % % # O # < i.).).).).).x.z.z.).).",
"^.^.^.^.^.^.^.^.^.^.p.: % i % i > > i * * & ; % N ) _ _ { A.X.C Q Z I B ) ] I > % = % * % % % % O % % @ O i.).).z.x.).z.).x.z.x.",
"^.^.^.^.^.^.^.^.^.l.s.f % * ; ; i * * ; % ; = % > A X.X.H ( h.[ b N ( Q ] { A , % % * % * % = O % % % % % 1.).).).).).x.x.).).).",
"^.^.^.^.^.^.^.^.).l.l.3 % ; ; ; > > * * ; & * ; * B _ g.) x C [ A g.( k ' { I , = % = * = % * % % % O % # *.).z.x.z.x.).z.).z.x.",
"^.^.^.^.^.^.^.^.).l.z.n % ; * i * * i * * * ; % * b ) X.( , k f.f.@.E m } O.Z ; m n % % % % * = = % % O O R z.z.x.).x.).).x.z.).",
"^.^.^.^.^.^.^.^.).).z.4 @ * * * * > * * * * ; a , 5 H } { A N f a : E } f.' f E F.8.i ; = ; = % % O % * % L z.z.x.).z.).x.).x.).",
"^.^.^.^.^.^.^.^.z.).z.q $ ; ; ; i i * i * ; ; C _ a x ) X.X.} E E { h.j.` l l T.[.P * * ; ; ; * * % % * % J z.).z.).x.z.x.).z.).",
"^.^.^.^.^.^.^.^.x.).).w + % % ; * * * * * i > E f.b , x E { m.f.h.h.k.} f ; N [.J.a = ; ; % ; * = * * ; - J z.z.x.).).).z.z.x.).",
").).).x.).x.).).^.^.^.w @ * * > ; ; ; ; ; ; ; E U.@.I a = A X.X.8.h.f.q.] l k.F.6 * ; ; * * * ; ; ; ; ; > k s.z.).z.).).z.).z.x.",
"z.x.z.z.).x.z.x.^.^.).L + % * * ; ; * * % ; ; b j.U.g.N N h.h.9.F.F.h.h.q.0.D.b * = ; * ; * ; & ; * * ; * f p.).z.).x.x.x.).).).",
"x.).).).z.x.).z.^.^.^.L @ % * * ; * ; * * * * - H { h.h.) { Z ! C.C.) f I P.q.; * ; * ; * ; ; ; * ; ; ; * > r.).x.z.x.z.).x.z.x.",
"z.).x.z.).).).x.^.^.).T + * * * * * = * * * * * p Z x I M & 0 U U U / n k { U = & ; * = ; & & * ; * * ; * > w.^.).).).).z.z.).).",
"x.).z.x.).z.x.z.^.^.).u + & * * * ; ; % % * * * % = * , A * 5 U U ^ P - * * * * ; & * * & ; * & & ; * ; & * 1.).).x.).x.x.z.x.x.",
"x.).).).x.z.).).^.^.).-.+ & ; = * = * * * O * & & & * * = O & = x l % & * & ; & & * * * & & * ; * = ; * * & ;.).z.z.).z.).).).).",
").x.z.x.).).).).l.).).;.+ & & * % ; % = & & & # & % % O & & & & % % & & & & % & & & & & * ; & & ; ; * * * * R ^.x.x.).).).x.z.x.",
").z.).).z.l.).z.).l.).1.+ @ % & % O % * * & & & & & % % & & & & O % & & & & & % & & * * * & * * ; & = * * & L ^.).).x.z.).z.).).",
"z.x.x.).z.).z.x.^.^.).2.+ @ & & % * & # & % % & # & # & & @ & & % # # # # # # & # % % & & & * * ; ; ; * % % K l.).z.).).z.).z.x.",
").).z.).x.).).).^.^.^.w.@ # @ & O * & & * # & & & @ & & # $ # & # 6 , C m 6 k I A ! x & * * & * % = % * % % M l.).x.x.z.x.).).x.",
"z.z.x.).).x.z.x.^.^.x.e.# + # & % % O % % O # % & 5 5 0 5 0 A B B c.Z M.V.D.L.J.K.v.Z % * * * * % = % = ; % 2 l.).).z.).x.z.).z.",
"x.).x.).).z.).).^.^.x.r.O # @ & % % % % % & % # $ C  . .Z.v.Z.A.H.H.b ! ' _ I x l , ; = * * * * * ; * ; % # 3 p.z.x.x.).).).).x.",
"x.x.).x.z.).).z.!.).).t.; @ # & & & & & % # = % # 0 9.Q | Q B B 3 > # = : N m l P , * * * * * * % ; ; # % O : i.).z.x.z.).).z.x.",
").z.).z.x.x.).x.).x.!.i.= X X X O @ & & # # # # # # 5 @ 5 | 5  .A X. .0.N.N.D.v.Y.k * * * * * * * * = ; * * ; e.x.).).).z.x.).).",
").z.).).x.z.).z.).!.x.a.- . # # # # & @ & & # # # # 5 Q Z.c.A K.C.Z.V.9.I N A b l ; * ; * * * * * * * * % % = w.).).x.).x.x.z.x.",
").x.x.z.).).).x.!.).x.s.- . X # # @ & @ @ @ # # # @ X Q 9.Q 5 z k : = ; & & * * * * * * * * * * * * * * % % O w.).z.z.).).z.).).",
").).).z.z.).).).).x.).z.2 . @ o @ 5 . @ # @ # # # # # # 5 5 @ # # # * * * # ; % > * * * % ; * * ; * * * * * % ~ x.).^.^.^.^.^.^.",
"z.x.).x.x.).x.z.).z.z.z.2 O @ # @ @ @ @ # @ # # # # & & $ & $ & $ # # % = % * ; * * > * ; * ; * * * ; * * * % t ).).^.^.^.^.^.^.",
").x.).z.z.).z.x.).).).z.2 . X @ @ @ 5 @ @ # # @ @ & # & & & * 5 _ X.V.E.( * > ; * ; * * ; * ; ; * * ; ; * * % e !.x.^.^.^.^.^.^.",
").z.).x.x.).).x.x.z.).x.4 . o @ @ @ . @ # @ @ & & & & & * * $ C  X X{.|.X.* ; ; * > > * ; ; ; ; * ; ; * * * & M !.!.^.^.^.^.^.^.",
"z.).).).x.z.).).).).).z.L . o . @ @ @ # # @ # # @ $ & & & & * C }. X}..Xm.* ; ; > > * i ; ; i ; > > ; ; * * * 0 ~.^.^.^.^.^.^.^.",
").).z.x.).).z.x.).).).z.J . X X @ @ @ @ @ # # @ & $ & & * * * 5 m.@.( C d > ; p > i i i p p p p > > ; ; * > * 6 a.^.^.^.^.^.^.^.",
").x.x.).x.).x.).).).z.z.L . X @ . @ # @ $ @ & $ & $ & $ * * > * * ; i i p p p p p p p a p p a p p > p ; p * > g p.^.^.^.^.^.^.^.",
").).z.).z.).z.).x.).z.z.L . . @ . 5 @ @ @ # @ $ & & 5 # > * > > > p p p p p a p p p d a d s s s h p p p p p i g r.).^.^.^.^.^.^.",
").z.).z.).).).).).x.).z.*.. . o # # # # @ # & & * * * > ; * ; p p p > h > g p h d d d d d j d d d d s a p p p d u.^.^.^.^.^.^.^.",
").x.).x.x.z.x.z.).z.).).*.. . o X X X # # # & $ * * > * p > p ; > h h p h h a j d d j c j j j j c j f c S D F +.n.x.^.^.^.^.^.^.",
"x.z.x.).z.).).x.).).x.).*.. . + X @ @ # @ & & $ i * * i p h p p p h h h s j j j d c S D D D F F G W o.o.%.S.`.].P.x.^.^.^.^.^.^.",
"x.).).z.x.).).z.x.z.z.).<.. o + # X # # & & * 5 * h p i p p p h h h g c c S b C F G G E E ` ` O.O.$.$.%.S._.`.'.G.x.^.^.^.^.^.^.",
"z.x.z.).x.x.z.x.x.).).).=.+ . @ X # # & & & * > h h 5 h g c z z l 7 9 M M V Z E E E E E E E ( ) W ` ` ` { } 8.k.~.).^.^.^.^.^.^.",
").).x.).).).).).z.).).).w.+ . + @ # * * > g g 6 g j v x b b x b b 0 m M V V P K U Y Y / >.,.3.5.e.u.r.i.d.s.z.z.~.^.^.^.^.^.^.^.",
").z.z.).x.z.x.).).).z.z.e.; : f z x N b C A Z I Q ! ! / / >.:.3.2.5.r.r.p.s.p.z.~.~././.^.).).^.).).).^.^.^.^.^.^.^.^.^.^.^.^.^.",
").x.x.).).).z.).z.x.z.z.z.>.6.3.4.5.y.u.u.b.b.b.z.b.x.x.^.^.).^.).x.~.).).).l.l.^.^.^.^.^.^.^.^.^.^.^.^.^.^.^.^.^.^.^.^.^.^.^.^."
};
