/* XPM */
static char *_c32d0b3df924ebcb8b81c9e2f327db3Ueftbt4gynmZgSzQ[] = {
/* columns rows colors chars-per-pixel */
"64 64 209 2 ",
"   c #010101",
".  c #06080A",
"X  c #0F1217",
"o  c #2E1920",
"O  c #3B1F25",
"+  c #1B212A",
"@  c #3C272A",
"#  c #2C2C37",
"$  c #272C39",
"%  c #401E23",
"&  c #432928",
"*  c #55282B",
"=  c #563629",
"-  c #5A392A",
";  c #462E30",
":  c #522F30",
">  c #473537",
",  c #543B39",
"<  c #653F2A",
"1  c #66412C",
"2  c #6D452E",
"3  c #6D443C",
"4  c #7E4F30",
"5  c #6E523D",
"6  c #7E5031",
"7  c #76523B",
"8  c #2B3543",
"9  c #2E3847",
"0  c #2E3A4A",
"q  c #323D4D",
"w  c #343F50",
"e  c #683B40",
"r  c #3D434C",
"t  c #364153",
"y  c #394455",
"u  c #3A465A",
"i  c #3C495E",
"p  c #3F4D62",
"a  c #48464C",
"s  c #564548",
"d  c #5E524C",
"f  c #434C55",
"g  c #4C4955",
"h  c #434D5D",
"j  c #4C545D",
"k  c #5A585C",
"l  c #654A4B",
"z  c #744748",
"x  c #795847",
"c  c #6D4C50",
"v  c #6A5757",
"b  c #645954",
"n  c #645C5C",
"m  c #775B55",
"M  c #7F624D",
"N  c #6C615C",
"B  c #786355",
"V  c #424F63",
"C  c #435166",
"Z  c #4C5462",
"A  c #45556C",
"S  c #4A556A",
"D  c #49596E",
"F  c #525967",
"G  c #455972",
"H  c #4B5C74",
"J  c #4E5F78",
"K  c #515C74",
"L  c #6B5D62",
"P  c #5C626C",
"I  c #4F617A",
"U  c #5B6473",
"Y  c #51647D",
"T  c #646567",
"R  c #6B6464",
"E  c #6C6C6C",
"W  c #756A66",
"Q  c #75726E",
"!  c #666C76",
"~  c #747475",
"^  c #787776",
"/  c #76797B",
"(  c #7B7B7C",
")  c #973F3B",
"_  c #825232",
"`  c #8B5834",
"'  c #A1433E",
"]  c #93623D",
"[  c #A06639",
"{  c #A26A3B",
"}  c #AF703C",
"|  c #B4743D",
" . c #BA773E",
".. c #BC793E",
"X. c #C17C3F",
"o. c #843F41",
"O. c #864144",
"+. c #8F5B49",
"@. c #A54C44",
"#. c #A7594E",
"$. c #B05A4F",
"%. c #88664B",
"&. c #996D48",
"*. c #8B6C53",
"=. c #856959",
"-. c #996B57",
";. c #9C7959",
":. c #A16D40",
">. c #AA7549",
",. c #B67945",
"<. c #B87A45",
"1. c #B47B49",
"2. c #BB7F4A",
"3. c #BB6B56",
"4. c #A67B56",
"5. c #857668",
"6. c #8B796C",
"7. c #977A65",
"8. c #887972",
"9. c #A57A6A",
"0. c #C47F41",
"q. c #C5715A",
"w. c #C87A65",
"e. c #BF8048",
"r. c #AF825B",
"t. c #83817E",
"y. c #99857A",
"u. c #A98464",
"i. c #A68C7B",
"p. c #B18B7A",
"a. c #C68042",
"s. c #C98141",
"d. c #C28249",
"f. c #C88B6E",
"g. c #CD8B75",
"h. c #D79679",
"j. c #E39B77",
"k. c #E9A47E",
"l. c #546781",
"z. c #566984",
"x. c #586C87",
"c. c #596E8A",
"v. c #5C718E",
"b. c #4C7392",
"n. c #5E7492",
"m. c #6D7784",
"M. c #617695",
"N. c #627897",
"B. c #647B9B",
"V. c #687FA0",
"C. c #5B8089",
"Z. c #788892",
"A. c #6A82A4",
"S. c #6D86A9",
"D. c #6F88AB",
"F. c #708AAE",
"G. c #748EB3",
"H. c #7791B7",
"J. c #7994BA",
"K. c #67A4AD",
"L. c #7E9AC2",
"P. c #848484",
"I. c #85878A",
"U. c #8C8C8C",
"Y. c #938A8C",
"T. c #939393",
"R. c #94979A",
"E. c #9B9B9B",
"W. c #AD988A",
"Q. c #AB9891",
"!. c #B8A296",
"~. c #BFB39E",
"^. c #A3A3A3",
"/. c #ABABAB",
"(. c #B7BBAB",
"). c #B3B3B3",
"_. c #BBBBBB",
"`. c #D79D84",
"'. c #CCAB97",
"]. c #D7AB96",
"[. c #E9A682",
"{. c #E4A789",
"}. c #F2B18C",
"|. c #E9B49B",
" X c #EDBA9C",
".X c #F2B997",
"XX c #D5BCA9",
"oX c #D5BFB1",
"OX c #EAB9A2",
"+X c #D8C4AE",
"@X c #E4C4AD",
"#X c #F5C3A4",
"$X c #F4C5AA",
"%X c #FACAAB",
"&X c #F3CEB5",
"*X c #FBCFB2",
"=X c #FAD2B6",
"-X c #F6D4BD",
";X c #FCD5BB",
":X c #FFD9BD",
">X c #819EC7",
",X c #8AA8D4",
"<X c #8BAAD6",
"1X c #93CAD9",
"2X c #D2CFC9",
"3X c #E8D5CE",
"4X c #FFDBC2",
"5X c #FCE5D5",
"6X c #CFDCE5",
/* pixels */
"s.s.s.s.s.s.s.s.s.s.0.s.s.s.s.s.s.s.s.s.s.s.s.s.s.s.s.s.s.s.s.s.s.s.s.s.s.s.s.s.s.s.s.s.s.s.s.s.s.s.s.s.s.s.s.s.s.s.s.s.s.s.s.s.",
"s.s.s.s.s.s.s.s.s.s.s.s.s.s.s.s.s.s.s.s.s.X.s.s.s.s.s.s.s.0.s.s.s.s.s.X.s.s.s.s.s.s.s.s.s.s.s.s.s.s.s.s.s.s.s.s.s.s.s.s.s.s.s.s.",
"s.s.s.s.s.s.s.s.s.s.s.s.s.s.s.s.s.s.s.s.s.s.s.s.s.1.*.*.%.*.*.%.&.%.%.%.%.%.<.s.s.s.s.s.s.s.s.s.s.s.s.s.s.s.s.s.s.s.s.s.s.s.s.s.",
"s.s.s.s.s.s.s.s.s.s.s.s.s.s.s.s.s.s.s.s.s.s.s.<.>.%.i y p V V A V p p u w p =.,.<.s.s.s.s.s.s.s.s.s.s.s.s.s.s.s.s.s.s.s.s.s.s.s.",
"s.s.s.s.s.s.s.s.s.s.s.s.s.s.s.s.s.s.s.s.s.s.d.B V y q t p A H Y l.v.n.x.G C V h m X.s.s.s.s.s.s.s.s.s.s.s.s.s.s.s.s.s.s.s.s.s.a.",
"s.s.s.s.s.s.s.s.s.s.s.s.s.s.s.s.s.s.s.s.s.0.N h u y h Y N.V.S.G.L.,XL.B.M.c.z.G j b X.s.s.s.s.s.s.s.s.s.s.s.s.s.s.s.s.s.s.s.s.s.",
"s.s.s.s.s.s.s.s.s.s.s.s.s.s.s.s.s.s.s.s.<.x V G Y l.n.B.S.H.L.>X>X,XH.M.M.v.B.B.l.S B <.s.s.s.s.s.s.s.s.s.s.s.s.s.s.s.s.s.s.s.s.",
"s.s.s.s.s.s.s.s.s.s.s.s.s.s.s.s.s.s.s.,.M u H c.v.M.B.B.B.F.J.H.G.G.A.v.n.c.B.D.A.v.G =.<.s.s.s.s.s.s.s.s.s.s.s.s.s.s.s.s.s.s.s.",
"s.s.s.s.s.s.s.s.s.s.s.s.0.s.s.s.s.s.s.%.t A A.n.z.Y z.x.I v.B.B.B.v.v.B.F.c.Y A.H.H.l.D B d.s.s.s.s.s.s.s.s.s.s.s.s.s.s.s.s.s.s.",
"s.s.s.s.s.s.s.s.s.s.s.s.s.s.s.s.s.s.s.M p S.D.c.l.v.v.I l.z.l.H Y Y v.H.<XF.z.c.F.>XN.H A m s.s.s.s.s.s.s.s.s.s.s.s.s.s.s.X.s.s.",
"s.s.s.s.s.s.0.s.s.s.s.s.s.s.s.s.s.s.M F z.J.N.l.v.N.H C v.l.p y y V x.G.,X<XA.I M.L.F.z.A n 0.s.s.s.s.s.s.s.s.s.s.s.s.s.s.s.s.s.",
"s.s.s.s.s.s.s.s.s.s.s.s.s.s.s.s.s.s.n I V.F.c.c.B.x.C H v.G 0 $ 8 y I B.>X,XH.l.z.D.L.n.A n s.s.s.s.s.s.s.s.s.s.s.s.s.s.s.s.s.s.",
"s.s.s.s.s.s.s.s.s.s.s.s.s.s.s.s.s.a.R n.D.N.Y A.B.A h x.I u $ $ 8 t i I S.,X>XM.z.M.>XM.H n s.s.s.s.s.s.s.s.s.s.s.s.s.s.s.s.s.s.",
"s.s.s.s.s.s.s.s.s.s.s.s.s.s.s.s.s.s.E z.v.Y v.v.Y C A A 8 $ X . $ $ 8 i I B.G.A.c.l.G.M.Y R 0.s.s.s.s.s.s.s.s.s.s.s.s.s.s.s.s.s.",
"s.s.s.s.s.s.s.s.s.s.s.s.s.s.s.s.s.a.N I z.z.v.I i C p 0 X           + t i z.B.S.N.Y c.x.J R 0.s.a.s.s.s.s.s.s.s.s.s.s.s.s.s.s.s.",
"s.s.s.s.s.s.s.s.s.s.s.s.s.s.s.s.s.X.N G z.v.H C C p t X               X y A I l.z.l.D Y G b 0.s.s.s.s.s.s.s.s.s.s.s.s.s.s.s.s.s.",
"s.s.s.s.s.s.0.s.s.s.s.s.s.s.s.s.s.0.n A l.z.A p i ! !.i.i.i.i.i.i.i.i.i.W.K p G I I C I p d a.s.s.s.s.s.s.s.s.s.s.s.s.s.s.s.s.s.",
"s.s.s.s.s.s.s.s.s.s.s.s.s.s.s.s.s.s.b A H J p w g p.%X:X%X*X:X:X:X:X=X%X;Xy.8.P A I I G u d a.s.s.s.s.s.s.s.s.s.s.s.s.s.s.s.s.s.",
"s.s.s.s.s.s.s.s.s.s.s.s.s.s.s.s.s.s.b p G p t a =.h.h.OX[..X:X;X;X;X#X[. Xh.j.y.j C Y D u d s.s.s.s.s.s.s.s.s.s.s.s.s.s.s.s.s.s.",
"s.s.s.s.s.s.s.s.s.s.s.s.s.s.s.s.s.0.N C i u p 9.h.3.@.@.h. X:X;X;X;X Xg.@.@.3.h.u.i I C u d X.s.s.s.s.s.s.s.s.s.s.s.s.s.s.s.s.X.",
"s.s.s.s.s.s.s.s.s.s.s.s.s.s.s.s.s.s.,.m u u G p.~.C.@ ; K.(..X=X;X.X(.K.& % n.~.p.D V t M ,.X.s.s.s.s.s.s.s.s.s.s.s.s.s.s.s.s.s.",
"s.s.s.s.s.s.s.s.0.s.s.s.s.s.s.s.s.0.s.%.u p J p.+XZ.o G 1X3XOX;X;X#X2X1XG # Z.+XW.Y i 0 %.s.s.s.s.s.s.s.s.s.s.a.s.s.s.s.s.s.s.s.",
"s.s.s.s.s.s.s.s.s.s.s.s.s.s.s.s.s.s.0.>.k V J 9.|.Q.$ b.6X5X;X;X;X;X5X6Xb.# E.|.9.l.w s &.s.s.s.s.s.s.s.s.s.s.s.s.s.s.s.s.s.s.s.",
"s.s.s.s.s.s.s.s.s.s.s.s.s.s.s.s.s.s.0.0.>.V A c p.W.h S 2X5X=X;X;X:X5X2XZ h Q.w.c A 8 :.s.s.s.s.s.s.s.s.s.s.s.s.s.s.s.s.s.s.s.s.",
"s.s.s.s.s.s.s.s.s.s.s.s.s.s.s.s.s.s.s.s.>.Z V H y.|.OX@X-X4X=X;X;X;X:X-X@X@X{.8.h y $ :.s.s.s.s.s.s.s.s.s.s.s.s.s.s.s.s.s.s.s.s.",
"s.s.s.s.s.s.s.s.s.s.s.s.s.s.s.s.s.s.s.s.4.Y i C L w.{..X*X;X;X;X;X;X;X%X.X{.w.v u t $ :.s.s.s.s.s.s.s.s.s.s.s.s.s.s.s.s.s.s.s.s.",
"s.s.s.s.s.s.s.s.s.s.s.s.s.s.s.s.s.s.s.s.e.6.k h c @.3.w.{.|.OX4X:X%X X{.w.3.@.s y a 5 | s.s.s.s.s.s.s.s.s.s.s.s.s.s.s.s.s.s.s.s.",
"s.s.s.s.s.s.s.s.s.s.s.s.s.s.s.s.s.s.s.s.d.u.Q F g e z e $.q.w.`.g.w.q.#.< e e s j N ;.e.s.s.s.s.s.s.s.s.s.s.s.s.s.s.s.s.s.s.s.s.",
"s.s.s.s.s.s.s.s.s.s.s.s.s.s.s.s.s.s.s.d.r.U.P.m.D w p h e o.o.o.o.o.o.e q q q Z R E ^ 4.e.s.s.s.s.s.a.s.s.s.s.s.s.s.s.s.s.s.s.s.",
"s.s.s.s.s.s.s.s.s.s.s.s.s.s.s.s.s.s.X.4.( P.^./.I.w u V V K S S C C S S w w y m.T.t.^ ^ ;.s.s.s.s.s.s.s.s.s.s.s.s.s.s.s.s.s.s.s.",
"s.s.s.s.s.s.s.s.s.0.s.s.s.s.s.s.s.s.s.;.^ U.^.).I.w V l.B.F.G.D.F.V.N.I u q ! ^./.E.Z./ 4.s.s.s.s.s.s.s.a.s.s.s.s.s.s.s.s.s.s.s.",
"s.0.s.s.s.s.s.s.s.s.s.s.s.s.s.s.s.s.4.5.P.R././.E.K w H l.z.z.I K z.K S w P Y./.).^.T.( 5.4.s.s.s.s.s.s.s.s.s.s.s.s.s.s.s.s.s.s.",
"s.s.s.s.s.s.s.s.s.s.s.s.s.s.s.s.s.s.5./ U.^.^.T.P.P t i V i u q q w h V ! T.T.T.^./.^.U./ 6.s.s.s.s.s.s.s.s.s.s.s.s.s.s.s.s.s.s.",
"s.s.s.s.s.s.s.s.s.s.s.s.s.s.s.s.X.e.5.P.E./.U.E g u G p A A V t w w w F /./.Y.t.U.^.).E.P.6.<.s.s.s.s.s.s.s.s.s.s.s.s.s.s.s.s.s.",
"s.s.s.s.s.s.s.s.s.s.s.s.s.s.s.s.e.5.t.U.^._.^ Z y C v.Y B.B.c.G l.l.I x.)._.R.~ ~ U.).).T.~ 5.d.s.s.s.s.s.s.s.s.s.s.s.s.s.s.s.s.",
"s.s.s.s.s.s.s.s.s.s.s.s.s.s.s.s.e.t.I.E.).).Q f q G A.z.H.F.v.H K J m.R.).).^.t.( U./._.^.P.^ e.s.s.s.s.s.s.s.s.s.s.s.s.s.s.s.s.",
"s.s.s.s.s.s.s.s.s.s.s.s.s.s.s.e.;.P.T./.)./.R r 0 H D.v.L.S.Y A C U I.E.E.E.E.P.~ P./._./.U.8.0.s.s.s.s.s.s.s.s.s.s.s.s.s.s.s.s.",
"s.s.s.s.s.s.s.s.s.s.s.s.s.s.s.>.~ I.E./.).E.T r 9 I F.n.H.n.V V U t.U.U.I.I.I.^ E ( E.).).R.P.r.d.s.s.s.s.s.s.s.s.s.s.s.s.s.s.s.",
"s.s.s.s.s.s.s.s.s.s.s.s.s.s.s.;.E t.R.^.^.U.T r q l.F.x.n.A q S ^.^.Y.m.^ ^ ^ ^ Q ~ R././.E.I.t.r.s.s.s.s.s.s.s.s.s.s.s.s.s.s.s.",
"s.s.s.a.s.s.s.s.s.s.s.s.s.s.;.Q E t.T.E.E.I.Q f t l.N.Y i 9 j T.^.^.^.E.E.E.^.T.P.^ U.^./.E.P.( 1.s.s.s.s.s.s.s.s.s.s.s.s.s.s.s.",
"s.s.s.s.s.s.s.s.X.s.s.s.s.s.7.~ ( P.I.P.P.8.a # w H z.D 8 $ Z R.E.E.^.E.^.^./.U.( E ( P.I.I.8.( y.r.s.s.s.s.s.s.s.s.s.s.s.s.s.s.",
"s.s.s.s.s.s.s.s.s.s.s.s.s.s.7 m XX2XoXXX'.9.& # q V V w 8 F U.U.^.R.T.R.T./.).U.k , 9.'.XXoX2XoXW x s.s.s.s.s.s.s.s.s.s.s.s.s.s.",
"s.s.s.s.s.s.s.s.s.s.s.s.s.s.2 m :X5X4X|.`.`.> # 9 q y F T R.^.U./.T.T.^.U.^.).T.k ; h.`.OX4X5X4Xv < s.s.s.s.s.s.s.s.s.s.s.s.a.s.",
"s.s.s.s.s.s.s.s.s.s.s.s.s.s.< l OX=X:Xg.$.].; $ y f j ~ ^.).^.U./.T.E./.U.^.).E.k ; ].$.g.:X*XOXl 1 s.s.s.s.s.s.s.s.s.s.s.s.s.s.",
"s.s.s.s.s.s.s.s.s.s.s.s.s.s.2 * #.$X;Xg.' ) % h Z.E.P.^ /.).^.U.).T.R./.T.E./.E.n O ) ' g.:X#X#.* 2 s.s.s.s.s.s.s.s.s.s.s.s.s.s.",
"s.s.s.s.s.s.s.s.s.s.s.s.s.s. ._ : g.$X.Xw.) O k R.^.U.( /./.E.T._.E.R./.E.R./.E.k O ) w. X$Xg.: _  .s.s.s.s.s.s.s.s.s.s.s.s.s.s.",
"s.s.s.s.s.s.a.s.s.s.s.s.s.s.s. ._ 3 m m l * o L E.^.U.t././.T.U.oXE.R.E.E.T.^.E.n o * z m m 3 _ | s.s.s.a.s.s.s.s.s.s.s.s.s.s.s.",
"s.s.s.s.s.s.s.s.s.s.s.s.s.s.s.X.<.< - - - - > E E.E.P.P././.T.U._.^.U.R.E.U.^.T.T > = - - - 1 ..s.s.s.s.s.s.s.s.s.s.s.s.s.s.s.s.",
"s.s.s.s.s.s.s.s.s.s.s.s.s.s.s.s.s.s.s.s.s.0.5.Z.T.E.P.U./.^.T.P._.^.T.U.E.P.R.U.^ W 0.s.s.s.s.s.s.s.s.s.s.s.s.s.s.s.s.s.s.s.s.s.",
"s.s.s.s.s.s.s.s.s.s.s.s.s.s.s.s.s.s.s.s.s.d.5.( Y.T.t.Y./.^.T.P._./.T.P.^.P.T.I.Q W e.s.s.s.s.s.s.s.s.s.s.s.s.s.s.s.s.s.s.s.s.s.",
"s.s.s.s.s.s.s.s.s.s.s.s.s.s.s.s.s.s.s.s.s.s.2.5.P.T.U.E././.T.P.)./.T.P.^.P.U.( 5.e.a.s.s.s.s.s.s.s.s.s.s.s.s.s.s.s.s.s.s.s.s.s.",
"s.s.s.s.s.s.0.s.s.s.s.s.s.s.s.s.s.s.s.s.s.s.s.7.( t.^ U.T.U.( ~ E.E.P.^ T.P.P.~ *.s.s.s.s.s.s.s.s.s.s.s.s.s.s.s.s.s.s.s.s.s.s.s.",
"s.s.s.s.s.s.s.s.s.s.s.0.s.s.s.s.s.s.s.s.s.s.s.7./ ~ R ~ ( / T k ( P.~ T ( ( ( ! *.s.s.s.s.s.s.s.s.s.s.s.s.s.s.s.s.s.s.s.s.s.s.s.",
"s.s.s.s.s.s.s.s.s.s.s.s.s.s.s.s.s.s.s.0.s.0.{ ;.y.t.7.t.5.R v m 6.W n m 6.y.y.6.*.{ s.s.s.s.s.s.s.s.s.s.s.s.s.s.s.s.s.s.s.s.s.s.",
"s.s.s.s.s.s.s.s.s.s.s.s.s.s.s.s.s.s.s.s.s.X.& %.j.k.[.j.$.* < 0.0.- * $.j.[.k.h.%.& X.s.s.s.s.s.s.s.s.s.s.s.s.s.s.s.s.s.s.s.s.s.",
"s.a.s.s.s.s.s.s.s.s.s.s.s.s.s.s.s.s.s.s.s...@ -.}.%X$Xk.f.< - 0.0.- 2 f.k.%X%X}.4.@ X.s.s.s.s.s.s.s.s.s.s.s.s.s.s.s.s.s.s.s.s.s.",
"s.s.s.s.s.s.s.s.s.s.s.s.s.s.s.s.s.s.s.s.| 2 +.`.*X;X=X#Xk.x - 0.0.- x [. X*X:X*X`.+.< } a.s.s.s.s.s.s.s.s.s.s.s.s.s.s.s.s.s.s.s.",
"s.s.s.s.s.s.s.s.s.s.s.s.s.s.s.s.s.s.s.s.[ @ g.%X;X;X;X=X}.O.- s.X.- x }.:X:X;X;X&Xg.@ [ s.s.s.s.s.s.s.s.s.s.s.s.s.s.s.s.s.s.s.s.",
"s.s.s.s.s.s.s.s.s.s.s.s.s.s.s.s.s.s.s.s.[ @ ].:X;X*X=X4Xh.x 2 s.0.4 O.h.;X;X*X;X:X].@ [ s.s.s.s.s.s.s.s.s.s.s.s.s.s.s.s.s.s.s.s.",
"s.s.s.s.s.s.s.s.s.s.s.s.s.s.s.s.s.s.s.s.[ & f. X&X X{.3Xd _ X.s.0.X._ d 3X{.|.&X Xf.& { s.s.s.s.s.s.s.s.s.s.s.s.s.s.s.s.s.s.s.s.",
"s.s.s.s.s.s.s.s.s.s.s.s.s.s.s.s.s.s.s.s.0.{ , , s , , s ] X.X.s.s.s.X.] s , , s , - { ..s.s.s.s.s.s.s.s.s.s.s.s.s.s.s.s.s.s.s.s.",
"s.s.s.s.s.s.s.s.s.s.0.s.s.s.s.s.s.s.s.s.s.s.` _ 4 4 4 4 X.s.X.s.s.s.0.<._ 6 4 4 4 ` a.s.s.s.s.s.s.s.s.s.s.s.s.s.s.s.s.s.X.s.s.s.",
"s.s.0.s.s.s.s.s.s.s.s.s.s.s.s.s.s.s.s.s.s.s.s.s.s.s.a.s.s.s.s.s.s.s.s.s.s.s.0.s.s.s.s.s.s.s.s.s.s.s.s.s.s.s.s.s.s.s.s.s.s.s.s.s.",
"s.s.s.s.s.s.s.s.s.s.s.s.s.s.s.s.s.s.s.s.s.s.s.s.s.s.s.s.s.s.s.s.s.s.s.s.s.s.s.s.s.s.s.s.s.s.s.s.s.s.s.s.s.s.s.s.s.s.s.s.s.s.s.s."
};
