/* XPM */
static char *eabbfd2098f2469ec53d48748e5317fdn8snoRbcyppa7nZl[] = {
/* columns rows colors chars-per-pixel */
"64 64 233 2 ",
"   c #010101",
".  c #0A0808",
"X  c #120D0A",
"o  c #0B0D17",
"O  c #151318",
"+  c #19191C",
"@  c #25160B",
"#  c #391B0F",
"$  c #261C19",
"%  c #39260E",
"&  c #3B281D",
"*  c #3E311E",
"=  c #161923",
"-  c #141926",
";  c #1A1B25",
":  c #141A2D",
">  c #1B1E2B",
",  c #201E25",
"<  c #201C32",
"1  c #1F212E",
"2  c #1E2233",
"3  c #17273C",
"4  c #282527",
"5  c #382927",
"6  c #212434",
"7  c #22263A",
"8  c #25293C",
"9  c #2D2C38",
"0  c #322C36",
"q  c #373436",
"w  c #451D13",
"e  c #462911",
"r  c #462619",
"t  c #53271A",
"y  c #593B16",
"u  c #472A25",
"i  c #483526",
"p  c #4D362D",
"a  c #74362A",
"s  c #65441A",
"d  c #78501E",
"f  c #574236",
"g  c #6F4A2F",
"h  c #7A5529",
"j  c #0C2647",
"k  c #132C42",
"l  c #272B43",
"z  c #252A44",
"x  c #262C4B",
"c  c #292E4D",
"v  c #2F3342",
"b  c #2A304F",
"n  c #2B3255",
"m  c #29355A",
"M  c #3A3150",
"N  c #1D3764",
"B  c #263A66",
"V  c #3B3A68",
"C  c #483857",
"Z  c #633D4F",
"A  c #413D66",
"S  c #1D4067",
"D  c #384A6C",
"F  c #384578",
"G  c #524B4A",
"H  c #664C4C",
"J  c #515271",
"K  c #6B566B",
"L  c #6F6D6F",
"P  c #96361F",
"I  c #8B3C2D",
"U  c #923A25",
"Y  c #943D29",
"T  c #9A432A",
"R  c #8A5D29",
"E  c #914E31",
"W  c #964936",
"Q  c #A14D2A",
"!  c #A6562A",
"~  c #A44C34",
"^  c #A64F38",
"/  c #AA5435",
"(  c #AD543B",
")  c #B45A3D",
"_  c #8C602B",
"`  c #946328",
"'  c #9C692C",
"]  c #8A633C",
"[  c #9B6C36",
"{  c #A66B2E",
"}  c #B4682D",
"|  c #AC742D",
" . c #B8772E",
".. c #A97333",
"X. c #BC7D32",
"o. c #B97836",
"O. c #C1792F",
"+. c #C47D32",
"@. c #C3773B",
"#. c #815246",
"$. c #9B5947",
"%. c #A75B45",
"&. c #B45C42",
"*. c #BA5E43",
"=. c #98684F",
"-. c #BB6446",
";. c #BE6549",
":. c #B16C4B",
">. c #AD744B",
",. c #B86A52",
"<. c #815A63",
"1. c #9B6E64",
"2. c #88776B",
"3. c #97756C",
"4. c #B37666",
"5. c #C56848",
"6. c #C36A4D",
"7. c #C97748",
"8. c #C86E51",
"9. c #CC7353",
"0. c #CA7859",
"q. c #D17757",
"w. c #D17855",
"e. c #D47B5A",
"r. c #D97E5D",
"t. c #CA7E65",
"y. c #C48333",
"u. c #CA8633",
"i. c #CC8833",
"p. c #C6873B",
"a. c #D18B33",
"s. c #D0A63B",
"d. c #E4B93F",
"f. c #AD8547",
"g. c #B68646",
"h. c #A98856",
"j. c #BC9351",
"k. c #968A6B",
"l. c #918A73",
"z. c #A29D61",
"x. c #AE936B",
"c. c #AAA76D",
"v. c #D3834B",
"b. c #D48456",
"n. c #DB815E",
"m. c #E1815C",
"M. c #C8AB49",
"N. c #D5B447",
"B. c #E4BC44",
"V. c #DD8361",
"C. c #D98968",
"Z. c #DB946C",
"A. c #CE8E74",
"S. c #E28663",
"D. c #E38865",
"F. c #E48B68",
"G. c #E2986F",
"H. c #C4B866",
"J. c #E8A478",
"K. c #E9C546",
"L. c #F8D942",
"P. c #E3CA52",
"I. c #FEE541",
"U. c #334C87",
"Y. c #27538F",
"T. c #3A5787",
"R. c #2C589A",
"E. c #355895",
"W. c #36689A",
"Q. c #2B5CA6",
"!. c #355FA1",
"~. c #2D63AB",
"^. c #3866A4",
"/. c #2966B3",
"(. c #2D6BB6",
"). c #2E6EB8",
"_. c #326EB4",
"`. c #3875B5",
"'. c #3374BA",
"]. c #3779BD",
"[. c #3A7CBD",
"{. c #465A89",
"}. c #596688",
"|. c #4B6B93",
" X c #587899",
".X c #696585",
"XX c #717789",
"oX c #4574A9",
"OX c #377DC1",
"+X c #846E80",
"@X c #3E81BF",
"#X c #798787",
"$X c #738B90",
"%X c #63939E",
"&X c #5685A7",
"*X c #4786BB",
"=X c #578BBA",
"-X c #7191B1",
";X c #3D83C2",
":X c #4186C2",
">X c #458BC4",
",X c #478BC5",
"<X c #7A9EC4",
"1X c #9B8A85",
"2X c #8E9394",
"3X c #A38F88",
"4X c #BB9689",
"5X c #AB9591",
"6X c #B69B91",
"7X c #94AF89",
"8X c #8D9BAE",
"9X c #ACAAA7",
"0X c #A2A0A9",
"qX c #B1AFAC",
"wX c #BAB7B4",
"eX c #C89C8B",
"rX c #CB9E8E",
"tX c #C7A396",
"yX c #C8B3A9",
"uX c #96ACC8",
"iX c #9CB2CF",
"pX c #ADBACE",
"aX c #BBC5D4",
"sX c #C8C5C4",
"dX c #D5CECA",
"fX c #DBD7D4",
"gX c #E1DDDB",
"hX c #E4E0DE",
"jX c #DBDDE4",
"kX c #EAE6E3",
"lX c #F3EEEB",
"zX c #F9F4EF",
"xX c #FCF7F4",
/* pixels */
"i.i.i.i.i.i.i.i.i.i.i.i.i.i.i.i.i.i.i.i.i.i.i.i.i.i.i.u.i.i.i.i.i.i.i.i.i.i.u.i.i.i.i.i.i.i.i.i.i.i.i.i.i.i.i.i.i.i.i.i.i.i.i.i.",
"i.i.i.i.i.i.i.i.i.i.i.i.i.i.i.i.i.i.i.i.i.i.i.i.i.i.i.i.i.i.i.i.i.i.u.u.i.i.i.i.i.i.i.i.i.i.i.i.i.i.i.i.i.i.i.i.i.i.i.i.i.i.i.i.",
"i.i.i.i.i.i.i.i.i.i.i.i.i.i.i.i.i.i.i.i.i.i.i.i.i.i.i.i.i.i.i.i.a.y.y.y.i.i.i.i.i.i.i.i.i.i.i.i.i.i.i.i.i.i.i.i.u.i.i.i.i.i.i.i.",
"i.i.i.i.i.i.i.i.i.i.i.i.i.i.i.i.i.i.i.i.i.i.i.i.i.i.i.i.i.i.i.p.[ L |.k.f.u.i.i.i.i.i.i.i.u.i.i.i.i.i.i.i.i.i.i.i.i.i.i.u.i.i.i.",
"i.i.i.i.i.i.i.i.i.i.i.i.i.i.i.i.i.i.i.i.i.i.i.i.i.i.a.a.o.X.=.J W.@X*Xc.W.L f.g.i.u.i.i.i.i.i.i.u.i.i.i.i.i.i.i.i.u.i.i.i.i.i.i.",
"i.i.i.i.i.i.i.i.i.i.i.i.i.i.i.u.i.i.i.i.i.i.i.i.i.u.R h D T.oX:X%X7XH.I.M.7X#X X>.i.i.i.i.i.i.i.i.i.i.i.i.i.i.i.i.i.i.i.i.i.i.i.",
"i.i.i.i.i.i.i.i.i.i.i.i.i.i.i.i.i.i.i.i.i.i.i.i.| s z z S ).,X,X$XM.L.I.I.M.k.@XL i.i.i.i.i.i.i.i.i.i.i.i.i.i.i.i.i.i.i.i.i.i.i.",
"i.i.i.i.i.i.i.i.i.i.i.i.i.i.i.i.i.i.i.i.i.i.u.` q l m m m Y.OX,X;Xc.d.M.B.M.@X|...i.i.i.i.i.i.i.i.i.i.i.i.i.i.u.i.i.i.i.i.i.i.i.",
"i.u.i.i.i.i.i.i.u.i.i.i.i.i.i.i.i.i.i.i.i.X.g ; - 8 x n n m ~.;X>X7Xl.|.l.l.W.H a.a.a.a.i.i.i.i.u.a.a.u.i.i.i.i.i.i.i.i.i.u.i.i.",
"i.i.i.i.i.i.i.i.i.i.i.i.i.i.i.i.i.i.i.a.| 5 x x < ; ; 6 2 > : k 3 k 3 = 3 3 o @ % d | y.i.i.i.i.i.u.u.u.i.i.i.i.i.i.i.i.i.i.i.i.",
"i.i.i.i.i.i.i.i.i.i.i.i.i.i.i.i.i.i.i.i. .g f z n > X + G u u u e t e i w e e y y y s | i.i.i.i.i.i.u.a.i.i.i.i.i.i.i.i.i.i.i.i.",
"i.i.i.i.i.i.i.i.i.i.i.i.i.i.u.i.i.i.i.i.i.i.X.f > 9 L 3.,.0.3XC a -.-./ u g  .i.a.a.a.a.i.i.i.i.i.i.i.i.i.i.i.i.i.i.i.i.i.i.i.i.",
"i.i.i.i.i.i.i.u.i.i.i.u.i.i.i.i.i.i.i.i.i.i.a.R t 3.A.C.r.C.4.g %.n.Z.Z.=.=.0.o.y.a.i.i.i.i.i.i.i.i.i.u.i.i.i.i.i.i.i.i.i.i.i.i.",
"i.i.i.i.i.i.i.i.i.i.i.i.i.i.i.i.i.i.i.i.i.i.i.o.E %.F.J.Z.C.8.( C.C.Z.J.G.) J.J.v.y.i.i.i.i.i.i.i.i.i.i.i.i.i.i.i.i.i.i.i.i.i.i.",
"i.i.i.i.i.i.i.i.i.i.i.i.i.i.i.i.i.i.i.i.u.i.a. .` ;.0.6.%.( *.9.6.-.;.6.0.) -.G.,.E >.i.i.i.i.i.i.i.i.i.i.u.i.i.i.i.i.i.i.u.i.i.",
"i.i.i.i.i.i.i.i.i.i.i.i.i.i.i.i.i.i.i.i.i.i.h.#.$.,.4.4.A.9.6.6.-.9.0.6.D.V.;.,.0.L  Xx.i.i.i.i.i.i.i.i.i.i.i.i.i.i.i.i.i.i.i.i.",
"i.i.i.i.i.i.i.i.i.i.i.i.i.i.i.i.i.i.i.i.y.k.*XK 1.1XtXtXS.S.q.q.e.r.r.e.D.D.F.rX4X X;X=Xk.p.i.i.i.i.i.i.i.i.u.i.i.i.i.i.i.i.i.i.",
"i.i.i.i.i.i.i.i.i.i.i.i.i.i.i.i.i.i.i.f.$X@X@XK ^ +X6XtXA.r.F.F.r.0.0.e.0.F.rXyX6X XOX,X>X#Xg.i.i.i.i.i.i.i.i.i.i.i.i.i.i.i.i.i.",
"u.i.i.i.u.i.i.i.i.i.i.i.i.i.u.i.i.i.X.oX>X>X@XJ P 1.3X6XtX4XtXtXtXrXtX4XrXtXtXtX6XXX~.;X,X:X Xv.i.i.i.i.i.i.i.i.i.i.i.i.i.i.i.i.",
"i.i.i.i.i.i.i.i.i.i.i.i.i.i.i.i.i.f. X@X>X*X@XJ I $.3.1X5X5X5X6X5XtX5X1X6XtX6X6X1.Y J ;X,X,X,XL u.i.i.i.i.i.i.i.i.i.i.i.i.u.i.i.",
"i.i.i.i.i.i.i.i.i.i.i.i.u.u.u.f.k.^.Y.[.>X>X>X@X{.I Y =.=.1.1X1X1X1X1.3.1X1X3.$.Y Y }.:X,XOXOXoXj.p.i.i.i.i.i.i.i.i.i.i.i.i.i.i.",
"i.u.i.i.i.i.i.i.i.i.i.u.i.X.k.%X%X%XoXD ^.@X>X>X;XoX$.&.Y W Y W W W Y #.W W %.~ *.K oX,XOXV `.:X&Xl.g.i.i.i.i.i.i.i.i.i.i.i.i.i.",
"i.i.i.i.i.i.i.i.i.i.s.p.f.L &X7XP.K.#X*X{.E.@X>X,X,X}.&.6.q.;.~ U U U U Y &.e.9.5..XOX,X_.C _.=Xz.P.c.f.i.i.i.i.i.u.i.i.i.i.i.i.",
"i.i.i.i.i.i.i.i.u.u.y.f.J &XH.I.I.I.j.>X*X@X(.'.:X,X@XK 6.r.S.e.&.Y U ~ 8.S.D.r.*..XOX,XE.U.`.oXl.c.B.$X2.y.i.i.i.i.i.i.i.i.i.i.",
"i.i.i.i.i.i.i.i.i.i.p.b.5X+XN.L.L.H.%X>X:X>X:X'.[.>X>X@X.Xt.C.r.e.*.Y *.r.r.D.r.6..XOXOXA /.,X,X>X*X X X3.o.u.u.i.i.i.i.i.i.i.i.",
"i.i.i.i.i.i.i.i.i.v.S.D.r.2X X#X2X*X>X[.,X,X>X>X[.].:X,X@X-XwXeXt.e.6.5.q.q.C.eXyX8XOXOXV ~.:X,X,XOXOX+Xe.e.@.u.i.i.i.i.i.i.i.i.",
"i.i.i.i.i.i.i.i.7.S.D.D.r.t. XOX;X,X>X(.,X,X,X*X;X;X].[.;XoXsXlXdXyXrX4.A.yXsXlXiX;X,X(.Q.OXOX:XOXOXXX0.9.r.r.7.X.i.i.i.i.i.i.i.",
"i.i.i.i.i.i.i.@.S.D.D.m.e.F.+XOXOX'.:X(.,X:X%X2.k.c.l.oX;X;X8XlXxXxXgXfXfXxXxXxXiXOXOX/.OX:XOX_.(.|.t.D.D.r.S.S.v.X.y.i.i.i.i.i.",
"i.i.i.i.i.i. .) q.w.e.r.S.n.XXOX`.(.oXE.,X,X#XN.K.K.B.h.`.;X-XdXkXfXfXfXfXlXgXsX8XOXOX/.:X,XOXQ.A <.9.e.V.F.D.D.S.b.v.i.i.i.i.i.",
"i.u.i.i.i.+.T &.e.r.r.n.r.5..X/.F E._.A >XOXL s.K.P.N.f.`.;X=X8X9X9XwXqXwXqX9X0X-XOX/.(.:X:X!.{.W 8.r.r.V.D.D.D.D.C.v.u.i.i.i.i.",
"i.i.i.i.i.! ~ ( n.D.D.V.r.n.1.oXY.V V V ).E.J k.B.K.M.XX[.'.[. XqXdXgXsXgXyX9X-X'.'./.'.;X@XA Z 9.D.D.D.D.D.D.D.D.e.-.a.i.i.i.i.",
"i.i.i.i.i.! ) 8.9.S.9.V.D.D.D.+X~.Q.C V U.F ].=X2Xc. XOX'.'.'.<XkXxXlXdXzXxXgXuX'.(.OX).E./.{.,.r.D.D.D.D.D.D.V.e.&.! i.i.i.i.i.",
"i.i.i.i.i.+.~ &.8.V.n.e.e.S.D.n.1.|.Z C C F OX].{.Q.(.OX,X@X).*XaXlXsX9XfXxXjX,X]./.@X@XD V A 8.F.D.D.D.D.D.S.8.&.Q O.i.i.i.i.i.",
"i.i.i.i.i.i.} ( ( -.6.e.r.q.V.D.S.0.:.H H V U.V V ^.:X,X,X@X'.'.uXxXkXsXlXxXsX).].'.;X@X~.C #.q.D.D.D.D.S.S.q.~ Y } i.i.i.i.i.i.",
"i.i.i.i.i.i.i.! U T ~ &.q.r.w.e.V.S.8.y.{ C V Q./.'.'.'.].,XOX'.<XjXxXlXxXkXuXOX].@X].E.F Z 9.D.F.r.r.F.r.5.T Q +.i.i.i.i.i.i.i.",
"i.i.i.i.i.i.i.i.} ! Y T ~ &.r.r.q.0.n.w./ Z V R.(.'.:X:X:X,X[.].OXuXlXfXlXpXOXOX].>X;X_.F =.e.D.r.q.9.6./ } } u.a.i.i.i.i.i.i.i.",
"i.i.i.i.i.i.i.i.a.i.y. .! T Q ) 8.0.9.n.%.+ 0 V V U.E.E.(.[.'.).`.iXfXsXfXsXOX'.'.'.Y.3 4 q 5 E 6.8./  .+.i.i.i.i.i.i.i.i.i.i.i.",
"i.i.i.i.i.i.i.i.i.i.i.i.i.O. .Q ~ T %.$.i q 4 l F U.U.^.[.OX]./.`.,XpXqXsX,X[.).;XS . . 4 q 9 $ w ~ +.i.i.i.i.i.i.i.i.i.i.i.i.i.",
"i.i.i.i.i.i.i.i.i.i.i.i.i.i.i.i.y.d y .   0 G 0 ; < 7 F U.(.OX).[.'..XL .X(.;XQ.3         + 4 O   y a.i.i.i.i.i.i.i.i.i.i.i.i.i.",
"i.i.i.i.i.i.i.i.i.i.i.i.i.i.i.i.i.y.%   . 5 p +     G q O c B Q.OX).v 5 5 /.oXN             .   . d a.i.i.i.i.i.i.i.i.i.i.i.i.i.",
"i.i.i.i.i.i.i.i.i.i.i.i.i.i.i.i.i.! t @ E e.,.g @   . 0     . : j L M.K.N.2.3 5 r .             % a.i.i.i.i.i.i.u.i.i.i.i.i.i.i.",
"i.i.i.i.i.i.i.i.i.i.i.i.i.i.i.i.i.! / -.6.e.r.%.@                 e s.K.K.h   & -.E t r X w r # d i.i.i.i.i.i.i.i.i.i.i.i.i.i.i.",
"i.i.i.i.i.i.i.i.i.i.i.i.i.i.i.i.i.X.) n.e.0.E .           o o = = o @ u & . 1 = a T ( *.a ) *.Q a.i.i.i.i.i.i.i.i.i.i.i.i.i.i.i.",
"i.i.i.i.i.i.i.i.i.i.i.i.i.i.i.i.i.T T ~ ) / @           = l b n n n z 3 2 x z 1 v a U U ! T ~ } i.i.u.i.i.i.i.i.i.i.i.i.i.i.i.i.",
"i.i.i.i.i.i.i.i.i.i.i.i.i.i.i.i.i.X.! ! +.R           . b n n z c n n b 8 n 8 2 n M M 5 ..+.+.i.i.i.i.i.i.i.i.i.i.i.i.i.u.i.i.i.",
"i.i.i.i.i.i.i.i.i.i.i.i.i.i.i.i.i.i.i.i.| @         = > n n n l 2 3 3 1 2 8 2 x n n n > | a.i.i.i.i.i.i.i.i.i.i.i.i.i.i.i.i.i.i.",
"i.i.i.i.i.i.i.i.i.i.i.i.i.i.i.i.i.i.i.i.`     4 + + b n n n b 3 1 i s 4 1 = 1 n n n n 6 ..i.i.i.i.i.i.i.i.i.i.u.i.i.i.i.i.i.i.i.",
"i.i.i.i.i.i.i.i.i.i.i.i.i.i.i.i.i.i.i.i.' X X 0 + 3 n n n z ; + 4 ' u.' 4 + - z n n n z | u.i.i.i.i.i.u.i.i.i.i.i.i.i.i.i.i.i.i.",
"i.i.i.i.i.i.i.i.i.i.i.i.i.i.i.i.i.i.i.i.i.h o O 3 n n z 7 1 > i { u.i.u.h ; 6 6 z n n 9 | i.i.i.i.i.i.i.i.i.i.i.i.i.i.i.i.i.i.i.",
"i.i.i.i.i.i.i.i.i.i.i.i.i.i.i.i.i.i.i.i.a._ + 3 b n n b 6 > i u.a.i.i.i.X.4 ; z n n n ] i.i.i.i.i.i.i.i.i.i.i.i.i.i.i.i.i.i.i.i.",
"i.i.i.i.i.i.i.i.i.i.i.i.i.i.i.i.i.i.i.i.a._ - 8 n n n b 1 + s a.u.i.i.i.X.& ; 8 n n x ..a.i.i.i.i.i.i.i.i.i.i.i.i.i.i.i.i.i.i.i.",
"i.i.i.i.i.i.i.i.i.i.u.i.i.i.i.i.u.i.i.u.a._ > l n n n 2 4 h y.i.i.i.u.i.u.{ + > l n 8 ' a.i.i.i.i.i.i.i.i.i.i.i.i.i.u.i.i.i.i.i.",
"i.i.i.i.i.i.i.u.i.i.i.i.i.u.i.i.i.i.i.a.{ & 3 n n b 8 i { a.i.i.i.i.i.i.a.| ; ; 7 n 2 ' i.i.i.i.i.i.i.i.i.i.u.i.i.i.i.i.i.u.i.i.",
"i.i.i.i.i.i.i.i.i.i.i.i.i.i.i.i.i.i.i.a.' O 1 x v 6 4  .i.i.i.i.i.i.i.i.i...$ ; > 2 > ' a.i.i.i.i.i.i.i.i.i.i.i.i.i.i.i.i.i.i.i.",
"i.i.i.i.i.i.i.i.i.i.i.i.i.i.i.i.a.u.u.a.' = ; ; ; > ' i.i.i.i.i.i.i.i.i.i.i.R + 2 x z [ i.i.i.i.u.i.i.i.i.i.i.i.i.u.i.i.i.i.i.i.",
"u.i.i.i.i.i.i.i.i.u.i.i.i.i.i.i.u.u.a.y._ = 8 l 2 h p.i.i.i.i.i.i.i.i.i.i.i.{ 4 z m q ..i.i.i.i.i.i.i.i.i.i.i.i.i.i.i.i.i.i.i.i.",
"i.i.i.i.i.i.i.i.i.i.i.i.i.i.i.i.i.i.i.| $ 3 n m f X.i.i.i.i.i.i.i.i.i.i.i.i.i.R 7 c ] i.i.i.i.i.i.i.u.i.i.i.i.i.i.i.i.i.i.i.i.i.",
"i.i.u.i.i.i.i.i.i.i.i.i.i.i.i.i.i.i.a.| , n n M ..a.i.i.i.i.i.i.i.i.i.i.i.i.a._ 2 x ] a.i.i.i.i.i.i.i.i.i.i.i.i.i.i.i.i.i.i.u.i.",
"i.i.i.i.i.i.i.i.i.i.i.i.i.i.u.i.i.i.i.| 1 n b ] i.u.i.i.i.i.i.i.u.i.i.i.i.i. .i 7 : h i.a.i.i.i.i.i.i.i.i.i.i.i.i.i.i.i.i.i.i.i.",
"i.i.i.i.i.i.i.i.i.i.i.i.i.i.i.i.i.i.i.| 6 2 g p.i.i.i.i.i.i.i.i.i.i.i.i.i.a.'       X s R +.i.i.i.i.i.i.i.i.i.i.i.i.i.i.i.i.i.i.",
"i.i.i.i.i.i.u.i.i.i.i.i.i.i.i.i.i.i.u.` o o y y.a.i.i.i.i.i.i.i.i.i.i.i.i.i.X.s @ .     @  .i.i.i.i.i.i.i.i.u.i.i.i.i.i.i.i.i.i.",
"i.i.i.i.i.i.i.i.i.i.i.i.i.i.i.i.i.i. .X       d a.u.i.i.i.i.i.i.i.i.i.i.i.i.i.a.y.` y s | i.i.i.i.i.i.i.i.i.i.i.i.i.i.i.i.i.i.i.",
"i.i.i.i.i.i.i.i.i.i.u.i.i.i.i.i.i.i.u.` % % s y.a.i.i.i.i.i.i.i.i.i.i.i.i.i.i.i.i.i.a.i.i.i.i.i.i.i.i.i.i.i.i.i.i.i.u.i.i.i.i.i.",
"i.i.i.i.i.i.i.i.i.i.i.i.i.i.i.i.i.i.i.p.y.y.y.a.u.i.i.i.i.i.i.i.i.i.i.i.i.i.i.i.i.i.i.i.i.i.i.u.i.i.i.i.i.i.i.i.i.i.i.i.i.i.i.i."
};
